<svg width="39" height="39" viewBox="0 0 39 39" fill="none" xmlns="http://www.w3.org/2000/svg">
<path fill-rule="evenodd" clip-rule="evenodd" d="M10.7984 12.9829C10.9621 12.7998 11.1961 12.6951 11.4418 12.695L28.0668 12.6884C28.3124 12.6883 28.5465 12.7928 28.7104 12.9758C28.8743 13.1588 28.9525 13.4029 28.9255 13.6471L26.559 35.023C26.5105 35.4604 26.141 35.7914 25.7009 35.7916L13.8259 35.7963C13.3858 35.7965 13.016 35.4657 12.9673 35.0284L10.5838 13.6543C10.5566 13.4102 10.6346 13.166 10.7984 12.9829ZM12.4074 14.4219L14.5982 34.0687L24.9272 34.0646L27.1025 14.416L12.4074 14.4219Z" fill="#86868B"/>
<path fill-rule="evenodd" clip-rule="evenodd" d="M8.20347 7.62145C8.20328 7.14448 8.58979 6.75766 9.06676 6.75747L30.4418 6.74901C30.9187 6.74882 31.3055 7.13533 31.3057 7.6123L31.3081 13.5498C31.3083 14.0268 30.9218 14.4136 30.4448 14.4138L9.0698 14.4222C8.59282 14.4224 8.20601 14.0359 8.20582 13.5589L8.20347 7.62145ZM9.93108 8.4844L9.93275 12.6946L29.5805 12.6868L29.5788 8.47662L9.93108 8.4844Z" fill="#86868B"/>
<path d="M26.8856 23.053C26.8872 26.988 23.6985 30.1792 19.7635 30.1808C15.8284 30.1823 12.6372 26.9936 12.6356 23.0586C12.6341 19.1236 15.8228 15.9323 19.7578 15.9308C23.6928 15.9292 26.8841 19.1179 26.8856 23.053Z" fill="#FF6633"/>
<path fill-rule="evenodd" clip-rule="evenodd" d="M10.6005 1.47468C10.716 1.0119 11.1848 0.730378 11.6475 0.845878L16.398 2.0315C16.6426 2.09255 16.8483 2.25744 16.9612 2.48289L19.3381 7.23195C19.5515 7.65849 19.3788 8.17732 18.9523 8.3908C18.5258 8.60427 18.0069 8.43156 17.7934 8.00503L15.5943 3.61118L11.2293 2.52174C10.7665 2.40624 10.485 1.93746 10.6005 1.47468Z" fill="#86868B"/>
</svg>
