<svg width="39" height="39" viewBox="0 0 39 39" fill="none" xmlns="http://www.w3.org/2000/svg">
<path fill-rule="evenodd" clip-rule="evenodd" d="M20.771 5.34931C19.0792 6.34535 18.2412 7.59583 18.2417 8.80436C18.2422 10.0129 19.0812 11.2627 20.7737 12.2574C22.4462 13.2404 24.8131 13.8756 27.4738 13.8746C30.1345 13.8735 32.5009 13.2364 34.1726 12.2521C35.8644 11.2561 36.7024 10.0056 36.7019 8.79705C36.7014 7.58852 35.8624 6.3387 34.1699 5.344C32.4974 4.36104 30.1304 3.72579 27.4698 3.72684C24.8091 3.72789 22.4427 4.36502 20.771 5.34931ZM19.8946 3.86086C21.8752 2.69475 24.5551 2.00072 27.4691 1.99957C30.3831 1.99841 33.0636 2.69032 35.0451 3.85486C37.0066 5.00767 38.4284 6.7257 38.4292 8.79636C38.43 10.867 37.0096 12.5862 35.049 13.7405C33.0684 14.9067 30.3885 15.6007 27.4745 15.6018C24.5605 15.603 21.88 14.9111 19.8985 13.7465C17.937 12.5937 16.5152 10.8757 16.5144 8.80504C16.5136 6.73438 17.934 5.01522 19.8946 3.86086Z" fill="#86868B"/>
<path d="M32.8173 8.80046C32.8179 10.1121 30.4258 11.1764 27.4745 11.1776C24.5233 11.1787 22.1304 10.1164 22.1298 8.80469C22.1293 7.49301 24.5214 6.42874 27.4727 6.42757C30.4239 6.4264 32.8168 7.48878 32.8173 8.80046Z" fill="#FF6633"/>
<path fill-rule="evenodd" clip-rule="evenodd" d="M16.5156 8.80479C16.5156 8.80472 16.5156 8.80469 17.3793 8.80435C18.2429 8.804 18.2429 8.80404 18.2429 8.8041L18.2476 20.679C18.2481 21.8875 19.0871 23.1374 20.7796 24.1321C22.4522 25.115 24.8191 25.7503 27.4797 25.7492C30.1404 25.7482 32.5068 25.111 34.1786 24.1267C35.8703 23.1307 36.7083 21.8802 36.7078 20.6717L36.7031 8.79669L38.4304 8.79601L38.4351 20.671C38.4359 22.7417 37.0155 24.4608 35.0549 25.6152C33.0743 26.7813 30.3944 27.4753 27.4804 27.4765C24.5664 27.4776 21.8859 26.7857 19.9044 25.6212C17.9429 24.4684 16.5211 22.7503 16.5203 20.6797L16.5156 8.80479Z" fill="#86868B"/>
<path fill-rule="evenodd" clip-rule="evenodd" d="M4.06693 23.4249C4.52275 23.2844 5.00613 23.5401 5.14658 23.9959L6.85147 29.529C7.18834 30.6223 8.04464 31.4779 9.13822 31.8139L20.6206 35.342C21.5256 35.6201 22.5051 35.5145 23.3301 35.0501L31.2129 30.6119C31.6285 30.3779 32.1551 30.5251 32.3891 30.9407C32.6231 31.3563 32.4759 31.883 32.0603 32.117L24.1775 36.5552C22.94 37.2519 21.4708 37.4102 20.1133 36.9931L8.63091 33.465C6.99054 32.961 5.70609 31.6776 5.20078 30.0376L3.49589 24.5046C3.35544 24.0487 3.6111 23.5653 4.06693 23.4249Z" fill="#86868B"/>
<path d="M33.3649 33.2359C31.2328 30.7969 22.508 28.0845 15.4663 26.6791C6.55939 24.9014 -2.34615 26.6862 1.80751 20.1533C5.80009 13.8737 29.875 12.3019 34.5678 31.9378C34.9503 33.5379 33.8267 33.7642 33.3649 33.2359Z" fill="#FF6633"/>
<path fill-rule="evenodd" clip-rule="evenodd" d="M17.6707 15.7209C17.7866 16.1836 17.5055 16.6526 17.0428 16.7685C15.7913 17.0819 14.5722 17.9955 13.4843 19.3493C12.403 20.6947 11.5047 22.4107 10.881 24.1966C10.2568 25.984 9.92336 27.7965 9.93637 29.3229C9.9497 30.8861 10.3218 31.9728 10.9038 32.5263C11.2494 32.855 11.263 33.4017 10.9343 33.7473C10.6056 34.0929 10.0589 34.1066 9.71331 33.7778C8.62273 32.7405 8.2239 31.0669 8.20916 29.3377C8.19411 27.5716 8.5755 25.5595 9.2503 23.6272C9.92563 21.6933 10.9105 19.7945 12.1379 18.2673C13.3587 16.7482 14.8737 15.5311 16.6232 15.093C17.0858 14.9771 17.5549 15.2582 17.6707 15.7209ZM24.8103 18.1488C24.8953 18.6181 24.5838 19.0675 24.1144 19.1525C23.1592 19.3256 22.0569 19.9571 20.959 20.9982C19.8722 22.0287 18.8481 23.4064 18.0432 24.9598C16.4155 28.1007 15.7817 31.7507 17.0377 34.5804C17.2312 35.0163 17.0346 35.5266 16.5987 35.7201C16.1627 35.9136 15.6524 35.7171 15.4589 35.2811C13.9031 31.7759 14.7605 27.5403 16.5096 24.1651C17.3929 22.4605 18.5285 20.9225 19.7705 19.7448C21.0014 18.5776 22.3969 17.7083 23.8065 17.4529C24.2758 17.3679 24.7252 17.6794 24.8103 18.1488Z" fill="#86868B"/>
</svg>
