<svg width="39" height="39" viewBox="0 0 39 39" fill="none" xmlns="http://www.w3.org/2000/svg">
<path fill-rule="evenodd" clip-rule="evenodd" d="M6.11771 16.296C6.57354 16.1555 7.05691 16.4112 7.19737 16.867L8.90225 22.4001C9.23912 23.4934 10.0954 24.349 11.189 24.685L22.6714 28.2131C23.5764 28.4912 24.5558 28.3856 25.3808 27.9212L33.2636 23.483C33.6793 23.249 34.2059 23.3962 34.4399 23.8118C34.6739 24.2274 34.5267 24.7541 34.111 24.9881L26.2282 29.4263C24.9908 30.123 23.5216 30.2813 22.1641 29.8642L10.6817 26.3361C9.04132 25.8321 7.75687 24.5487 7.25156 22.9087L5.54668 17.3756C5.40622 16.9198 5.66189 16.4364 6.11771 16.296Z" fill="#86868B"/>
<path d="M35.4157 26.1109C33.2836 23.6719 24.5587 20.9595 17.5171 19.5541C8.61017 17.7764 -0.295369 19.5612 3.85829 13.0283C7.85088 6.74872 31.9257 5.17692 36.6186 24.8128C37.001 26.4129 35.8775 26.6392 35.4157 26.1109Z" fill="#FF6633"/>
<path fill-rule="evenodd" clip-rule="evenodd" d="M19.7215 8.59593C19.8374 9.05861 19.5562 9.52762 19.0936 9.6435C17.8421 9.95692 16.623 10.8705 15.535 12.2243C14.4538 13.5697 13.5554 15.2857 12.9318 17.0716C12.3076 18.859 11.9741 20.6715 11.9872 22.1979C12.0005 23.7611 12.3726 24.8478 12.9545 25.4013C13.3001 25.73 13.3138 26.2767 12.9851 26.6223C12.6563 26.9679 12.1097 26.9816 11.7641 26.6528C10.6735 25.6155 10.2747 23.9419 10.2599 22.2126C10.2449 20.4466 10.6263 18.4345 11.3011 16.5022C11.9764 14.5683 12.9613 12.6695 14.1887 11.1423C15.4094 9.62321 16.9245 8.40611 18.6739 7.96797C19.1366 7.8521 19.6056 8.13324 19.7215 8.59593ZM26.8611 11.0238C26.9461 11.4931 26.6345 11.9425 26.1652 12.0275C25.21 12.2006 24.1077 12.8321 23.0098 13.8731C21.923 14.9037 20.8989 16.2814 20.0939 17.8348C18.4663 20.9757 17.8325 24.6257 19.0885 27.4554C19.282 27.8913 19.0854 28.4016 18.6495 28.5951C18.2135 28.7886 17.7032 28.5921 17.5097 28.1561C15.9538 24.6509 16.8113 20.4153 18.5603 17.0401C19.4437 15.3355 20.5793 13.7975 21.8213 12.6198C23.0522 11.4526 24.4477 10.5833 25.8573 10.3279C26.3266 10.2429 26.776 10.5544 26.8611 11.0238Z" fill="#86868B"/>
</svg>
