<svg width="267" height="147" viewBox="0 0 267 147" fill="none" xmlns="http://www.w3.org/2000/svg">
<path d="M224.369 30.6262C231.557 50.5223 207.456 80.8602 188.288 104.002C169.12 127.143 154.885 142.947 136.704 145.064C118.663 147.321 96.8171 135.751 83.8505 116.137C70.743 96.6642 66.3738 68.8662 77.2263 46.8535C88.2197 24.982 114.294 8.7547 146.569 5.22703C178.845 1.69936 217.181 10.8713 224.369 30.6262Z" fill="#EDEDED"/>
<path d="M154.429 83.2498C154.987 82.1716 155.666 81.1438 156.462 80.1853C162.467 72.9539 173.222 71.9107 180.499 77.8539C187.793 83.811 188.828 94.528 182.809 101.776C181.058 103.884 173.606 111.729 160.265 125.514C159.344 126.465 157.872 126.608 156.787 125.852C141.065 114.893 132.25 108.626 130.121 106.887C122.827 100.929 121.792 90.2125 127.811 82.9641C133.816 75.7327 144.572 74.6895 151.849 80.6327C152.813 81.4204 153.676 82.2988 154.429 83.2498Z" fill="#FF6633"/>
<path d="M151.123 79.1072C151.68 78.029 152.359 77.0012 153.155 76.0427C159.16 68.8113 169.916 67.7681 177.193 73.7113C184.487 79.6685 185.521 90.3855 179.502 97.6338C177.752 99.7416 170.299 107.586 156.958 121.372C156.038 122.323 154.566 122.466 153.48 121.709C137.759 110.75 128.943 104.483 126.814 102.744C119.52 96.7869 118.485 86.0699 124.505 78.8215C130.51 71.5901 141.265 70.5469 148.542 76.4901C149.507 77.2778 150.369 78.1562 151.123 79.1072Z" stroke="#1D1D1F" stroke-width="4" stroke-linecap="round" stroke-linejoin="round"/>
<path d="M190.928 5.16356C191.201 4.63698 191.534 4.135 191.923 3.6669C194.864 0.135214 200.132 -0.374258 203.696 2.52829C207.268 5.43766 207.775 10.6717 204.827 14.2116C203.97 15.241 200.32 19.0722 193.786 25.8048C193.335 26.2693 192.614 26.339 192.083 25.9696C184.383 20.6174 180.065 17.5567 179.023 16.7074C175.45 13.798 174.944 8.564 177.892 5.02401C180.833 1.49233 186.1 0.982856 189.664 3.8854C190.137 4.27012 190.559 4.69909 190.928 5.16356Z" fill="#FF6633"/>
<path d="M189.307 9.77098C189.58 9.2444 189.912 8.74243 190.302 8.27432C193.243 4.74264 198.511 4.23316 202.075 7.13571C205.647 10.0451 206.154 15.2791 203.206 18.8191C202.349 19.8484 198.699 23.6796 192.165 30.4122C191.714 30.8767 190.993 30.9464 190.462 30.577C182.762 25.2248 178.444 22.1641 177.401 21.3148C173.829 18.4054 173.323 13.1714 176.27 9.63143C179.211 6.09975 184.479 5.59028 188.043 8.49282C188.515 8.87754 188.938 9.30651 189.307 9.77098Z" stroke="#1D1D1F" stroke-width="4" stroke-linecap="round" stroke-linejoin="round"/>
<path d="M67.0005 26.7525C67.5762 26.046 68.2331 25.3953 68.9656 24.8136C74.4918 20.425 82.559 21.3194 86.9949 26.8123C91.4412 32.3182 90.5543 40.3565 85.0151 44.7554C83.4043 46.0345 76.7196 50.6503 64.7929 58.724C63.9702 59.281 62.866 59.1586 62.1845 58.4349C52.3116 47.9503 46.7944 41.9816 45.4965 40.3743C41.0502 34.8684 41.9371 26.8301 47.4763 22.4313C53.0025 18.0427 61.0698 18.937 65.5057 24.43C66.0936 25.1581 66.5928 25.937 67.0005 26.7525Z" fill="#FF6633"/>
<path d="M71.8189 24.8522C72.3946 24.1457 73.0515 23.4949 73.7839 22.9132C79.3102 18.5246 87.3774 19.419 91.8133 24.912C96.2596 30.4179 95.3726 38.4561 89.8334 42.855C88.2227 44.1341 81.5379 48.7499 69.6113 56.8236C68.7885 57.3806 67.6844 57.2582 67.0029 56.5345C57.1299 46.0499 51.6128 40.0812 50.3148 38.4739C45.8685 32.968 46.7555 24.9297 52.2947 20.5309C57.8209 16.1423 65.8881 17.0366 70.324 22.5296C70.912 23.2577 71.4111 24.0366 71.8189 24.8522Z" stroke="#1D1D1F" stroke-width="4" stroke-linecap="round" stroke-linejoin="round"/>
</svg>
