<svg width="400" height="203" viewBox="0 0 400 203" fill="none" xmlns="http://www.w3.org/2000/svg">
<g clip-path="url(#clip0_4197_98271)">
<g clip-path="url(#clip1_4197_98271)">
<path d="M255.832 47.3887C263.738 64.4018 260.833 83.5214 269.708 111.553C278.582 139.584 299.235 176.364 291.167 184.466C283.1 192.405 246.473 171.666 220.496 160.81C194.519 149.954 179.352 149.143 156.763 141.042C134.174 133.102 104.163 117.872 103.033 101.507C101.904 85.1417 129.817 67.8045 152.406 50.6293C174.995 33.6162 192.26 17.0891 210.492 16.279C228.725 15.3068 247.764 30.3756 255.832 47.3887Z" fill="#EDEDED"/>
</g>
</g>
<path d="M191.569 44.6816C194.719 39.7905 201.87 39.7905 205.02 44.6816L271.413 147.771C274.842 153.094 271.019 160.102 264.687 160.102H131.902C125.57 160.102 121.748 153.094 125.176 147.771L191.569 44.6816Z" fill="#F44837"/>
<path d="M232 127.234L246.339 141.573" stroke="white" stroke-width="4" stroke-linecap="round" stroke-linejoin="round"/>
<path d="M246.34 127.234L232.001 141.573" stroke="white" stroke-width="4" stroke-linecap="round" stroke-linejoin="round"/>
<path d="M188.236 46.8217C190.03 43.2469 194.918 42.7217 197.431 45.8337L274.456 141.24C277.191 144.627 275.093 149.699 270.764 150.164L138.739 164.349C134.411 164.814 131.283 160.304 133.236 156.413L188.236 46.8217Z" stroke="black" stroke-width="5"/>
<path fill-rule="evenodd" clip-rule="evenodd" d="M183.134 86.4997C183.574 85.9122 184.266 85.5664 185 85.5664H213C213.735 85.5664 214.426 85.9122 214.867 86.4997L221.867 95.8331C222.17 96.237 222.334 96.7282 222.334 97.2331V129.9C222.334 131.756 221.596 133.537 220.283 134.849C218.971 136.162 217.19 136.9 215.334 136.9H182.667C180.81 136.9 179.03 136.162 177.717 134.849C176.404 133.537 175.667 131.756 175.667 129.9V97.2331C175.667 96.7282 175.831 96.237 176.134 95.8331L183.134 86.4997ZM186.167 90.2331L180.334 98.0109V129.9C180.334 130.519 180.579 131.112 181.017 131.55C181.455 131.987 182.048 132.233 182.667 132.233H215.334C215.952 132.233 216.546 131.987 216.984 131.55C217.421 131.112 217.667 130.519 217.667 129.9V98.0108L211.834 90.2331H186.167Z" fill="white"/>
<path fill-rule="evenodd" clip-rule="evenodd" d="M175.667 97.2357C175.667 95.947 176.712 94.9023 178 94.9023H220C221.289 94.9023 222.334 95.947 222.334 97.2357C222.334 98.5243 221.289 99.569 220 99.569H178C176.712 99.569 175.667 98.5243 175.667 97.2357Z" fill="white"/>
<path fill-rule="evenodd" clip-rule="evenodd" d="M189.666 104.234C190.955 104.234 192 105.279 192 106.568C192 108.424 192.737 110.205 194.05 111.517C195.363 112.83 197.143 113.568 199 113.568C200.856 113.568 202.637 112.83 203.949 111.517C205.262 110.205 206 108.424 206 106.568C206 105.279 207.044 104.234 208.333 104.234C209.622 104.234 210.666 105.279 210.666 106.568C210.666 109.662 209.437 112.629 207.249 114.817C205.061 117.005 202.094 118.234 199 118.234C195.905 118.234 192.938 117.005 190.75 114.817C188.562 112.629 187.333 109.662 187.333 106.568C187.333 105.279 188.378 104.234 189.666 104.234Z" fill="white"/>
<path d="M85.026 111.349L89.3854 129.706L103.437 115.475L85.026 111.349Z" stroke="#1D1D1F" stroke-width="3" stroke-linecap="round" stroke-linejoin="round"/>
<path d="M285.668 155.863L285.063 157.77" stroke="#1D1D1F" stroke-width="3" stroke-linecap="round" stroke-linejoin="round"/>
<path d="M293.477 170.93L291.57 170.325" stroke="#1D1D1F" stroke-width="3" stroke-linecap="round" stroke-linejoin="round"/>
<path d="M272.508 164.277L270.601 163.672" stroke="#1D1D1F" stroke-width="3" stroke-linecap="round" stroke-linejoin="round"/>
<path d="M279.016 176.832L278.411 178.738" stroke="#1D1D1F" stroke-width="3" stroke-linecap="round" stroke-linejoin="round"/>
<circle cx="291" cy="51.2344" r="12" stroke="#1D1D1F" stroke-width="3.67962" stroke-linecap="round" stroke-linejoin="round"/>
<path d="M291 45.2344V51.9844L294 54.2344" stroke="#1D1D1F" stroke-width="3.67962" stroke-linecap="round" stroke-linejoin="round"/>
<defs>
<clipPath id="clip0_4197_98271">
<rect width="200" height="200" fill="white" transform="translate(105 2.23438)"/>
</clipPath>
<clipPath id="clip1_4197_98271">
<rect width="200" height="200" fill="white" transform="translate(105 2.23438)"/>
</clipPath>
</defs>
</svg>
