<svg width="24" height="28" viewBox="0 0 24 28" fill="none" xmlns="http://www.w3.org/2000/svg">
<g clip-path="url(#clip0_4430_177147)">
<path fill-rule="evenodd" clip-rule="evenodd" d="M12 5.5C9.87827 5.5 7.84344 6.34285 6.34315 7.84315C4.84285 9.34344 4 11.3783 4 13.5C4 16.5981 6.01574 19.6042 8.22595 21.9373C9.31061 23.0822 10.3987 24.0195 11.2167 24.6708C11.5211 24.9133 11.787 25.1152 12 25.2726C12.213 25.1152 12.4789 24.9133 12.7833 24.6708C13.6013 24.0195 14.6894 23.0822 15.774 21.9373C17.9843 19.6042 20 16.5981 20 13.5C20 11.3783 19.1571 9.34344 17.6569 7.84315C16.1566 6.34285 14.1217 5.5 12 5.5ZM12 26.5C11.4453 27.3321 11.445 27.3319 11.4448 27.3317L11.4419 27.3298L11.4352 27.3253L11.4123 27.3098C11.3928 27.2966 11.3651 27.2776 11.3296 27.253C11.2585 27.2038 11.1565 27.1321 11.0278 27.0392C10.7705 26.8534 10.4064 26.5822 9.97082 26.2354C9.10133 25.543 7.93939 24.5428 6.77405 23.3127C4.48426 20.8958 2 17.4019 2 13.5C2 10.8478 3.05357 8.3043 4.92893 6.42893C6.8043 4.55357 9.34784 3.5 12 3.5C14.6522 3.5 17.1957 4.55357 19.0711 6.42893C20.9464 8.3043 22 10.8478 22 13.5C22 17.4019 19.5157 20.8958 17.226 23.3127C16.0606 24.5428 14.8987 25.543 14.0292 26.2354C13.5936 26.5822 13.2295 26.8534 12.9722 27.0392C12.8435 27.1321 12.7415 27.2038 12.6704 27.253C12.6349 27.2776 12.6072 27.2966 12.5877 27.3098L12.5648 27.3253L12.5581 27.3298L12.556 27.3312C12.5557 27.3314 12.5547 27.3321 12 26.5ZM12 26.5L12.5547 27.3321C12.2188 27.556 11.7807 27.5556 11.4448 27.3317L12 26.5Z" fill="#686870"/>
<path fill-rule="evenodd" clip-rule="evenodd" d="M12 11.5C10.8954 11.5 10 12.3954 10 13.5C10 14.6046 10.8954 15.5 12 15.5C13.1046 15.5 14 14.6046 14 13.5C14 12.3954 13.1046 11.5 12 11.5ZM8 13.5C8 11.2909 9.79086 9.5 12 9.5C14.2091 9.5 16 11.2909 16 13.5C16 15.7091 14.2091 17.5 12 17.5C9.79086 17.5 8 15.7091 8 13.5Z" fill="#686870"/>
</g>
<defs>
<clipPath id="clip0_4430_177147">
<rect width="24" height="24" fill="white" transform="translate(0 3.5)"/>
</clipPath>
</defs>
</svg>
