<svg width="38" height="30" viewBox="0 0 38 30" fill="none" xmlns="http://www.w3.org/2000/svg">
<path d="M9.66473 26.2253V24.7304C9.67354 24.6047 9.65515 24.4786 9.61079 24.3604C9.56642 24.2423 9.49709 24.1348 9.40742 24.0452C9.31775 23.9557 9.2098 23.886 9.09076 23.8409C8.97171 23.7958 8.84432 23.7763 8.71705 23.7837C8.55046 23.7729 8.38399 23.8065 8.23503 23.881C8.08606 23.9555 7.96006 24.0681 7.87018 24.2072C7.78825 24.0723 7.67102 23.9618 7.53084 23.8872C7.39067 23.8127 7.23275 23.7769 7.07372 23.7837C6.9351 23.7767 6.79706 23.8057 6.67327 23.8678C6.54948 23.9298 6.44425 24.0228 6.368 24.1374V23.8434H5.84375V26.2253H6.37304V24.9148C6.36178 24.8333 6.36887 24.7504 6.39379 24.672C6.41871 24.5936 6.46084 24.5216 6.51719 24.4611C6.57354 24.4006 6.6427 24.3532 6.71974 24.3223C6.79678 24.2913 6.87978 24.2775 6.96282 24.282C7.31064 24.282 7.48707 24.5062 7.48707 24.9098V26.2353H8.01637V24.9148C8.00557 24.8334 8.01297 24.7507 8.03806 24.6725C8.06315 24.5942 8.10531 24.5224 8.16156 24.462C8.21781 24.4017 8.28679 24.3543 8.36361 24.3232C8.44043 24.292 8.52322 24.278 8.60615 24.282C8.96405 24.282 9.13544 24.5062 9.13544 24.9098V26.2353L9.66473 26.2253ZM17.4957 23.8434H16.6337V23.1209H16.1044V23.8434H15.6256V24.3168H16.1145V25.4131C16.1145 25.9662 16.3313 26.2951 16.9513 26.2951C17.183 26.2958 17.4101 26.2319 17.6066 26.1107L17.4554 25.6672C17.3148 25.7501 17.1552 25.7964 16.9916 25.8018C16.7396 25.8018 16.6438 25.6423 16.6438 25.4031V24.3168H17.5008L17.4957 23.8434ZM21.967 23.7837C21.8392 23.7799 21.7127 23.8104 21.6009 23.8718C21.4891 23.9332 21.3962 24.0232 21.3318 24.1325V23.8434H20.8126V26.2253H21.3369V24.8899C21.3369 24.4962 21.5083 24.277 21.841 24.277C21.9531 24.2755 22.0644 24.2958 22.1686 24.3368L22.3299 23.8385C22.2102 23.7961 22.0841 23.7742 21.9569 23.7737L21.967 23.7837ZM15.2072 24.0328C14.9104 23.8584 14.5692 23.7719 14.2242 23.7837C13.6143 23.7837 13.216 24.0727 13.216 24.546C13.216 24.9347 13.5084 25.1739 14.0478 25.2486L14.2998 25.2835C14.5871 25.3234 14.7232 25.3981 14.7232 25.5327C14.7232 25.7171 14.5317 25.8217 14.1738 25.8217C13.8859 25.8299 13.6036 25.7422 13.3723 25.5725L13.1202 25.9762C13.4256 26.1869 13.7914 26.2952 14.1637 26.2851C14.8594 26.2851 15.2626 25.9612 15.2626 25.5078C15.2626 25.0543 14.945 24.8699 14.4208 24.7952L14.1687 24.7603C13.9419 24.7304 13.7604 24.6856 13.7604 24.5261C13.7604 24.3667 13.9318 24.2471 14.2192 24.2471C14.4847 24.2501 14.7451 24.3205 14.9753 24.4514L15.2072 24.0328ZM29.2485 23.7837C29.1207 23.7799 28.9942 23.8104 28.8824 23.8718C28.7707 23.9332 28.6777 24.0232 28.6134 24.1325V23.8434H28.0942V26.2253H28.6184V24.8899C28.6184 24.4962 28.7898 24.277 29.1225 24.277C29.2346 24.2755 29.346 24.2958 29.4502 24.3368L29.6115 23.8385C29.4917 23.7961 29.3656 23.7742 29.2384 23.7737L29.2485 23.7837ZM22.4937 25.0294C22.4875 25.1968 22.5167 25.3636 22.5794 25.5192C22.6422 25.6748 22.7371 25.8157 22.858 25.933C22.979 26.0502 23.1235 26.1412 23.2821 26.2002C23.4407 26.2591 23.61 26.2846 23.7792 26.2751C24.0939 26.291 24.4033 26.1896 24.6462 25.9911L24.3942 25.5725C24.2129 25.7092 23.9919 25.7843 23.764 25.7868C23.5703 25.7713 23.3895 25.6843 23.2577 25.543C23.1259 25.4017 23.0527 25.2166 23.0527 25.0244C23.0527 24.8322 23.1259 24.6471 23.2577 24.5058C23.3895 24.3646 23.5703 24.2775 23.764 24.262C23.9919 24.2645 24.2129 24.3397 24.3942 24.4763L24.6462 24.0577C24.4033 23.8592 24.0939 23.7579 23.7792 23.7737C23.61 23.7642 23.4407 23.7897 23.2821 23.8487C23.1235 23.9076 22.979 23.9986 22.858 24.1158C22.7371 24.2331 22.6422 24.374 22.5794 24.5296C22.5167 24.6852 22.4875 24.852 22.4937 25.0194V25.0294ZM27.4036 25.0294V23.8434H26.8793V24.1325C26.7903 24.0192 26.6753 23.9285 26.5438 23.8679C26.4123 23.8072 26.2682 23.7784 26.1232 23.7837C25.7889 23.7837 25.4684 23.9149 25.2321 24.1485C24.9957 24.3821 24.863 24.699 24.863 25.0294C24.863 25.3598 24.9957 25.6767 25.2321 25.9103C25.4684 26.1439 25.7889 26.2751 26.1232 26.2751C26.2682 26.2804 26.4123 26.2516 26.5438 26.1909C26.6753 26.1303 26.7903 26.0396 26.8793 25.9263V26.2153H27.4036V25.0294ZM25.4527 25.0294C25.4611 24.8892 25.5108 24.7545 25.5956 24.6418C25.6804 24.5292 25.7968 24.4435 25.9302 24.3953C26.0637 24.3472 26.2085 24.3387 26.3468 24.3709C26.4851 24.4031 26.6108 24.4745 26.7086 24.5765C26.8063 24.6784 26.8718 24.8064 26.8968 24.9446C26.9219 25.0829 26.9056 25.2253 26.8498 25.3545C26.794 25.4837 26.7012 25.5939 26.5829 25.6716C26.4645 25.7493 26.3257 25.7911 26.1837 25.7918C26.0839 25.793 25.9849 25.7739 25.893 25.7355C25.801 25.6971 25.7181 25.6403 25.6495 25.5687C25.5808 25.4971 25.5279 25.4122 25.494 25.3194C25.4602 25.2266 25.4461 25.1278 25.4527 25.0294ZM19.1264 23.7837C18.7922 23.7883 18.4735 23.924 18.2405 24.1609C18.0075 24.3977 17.8792 24.7164 17.8839 25.0468C17.8886 25.3772 18.0258 25.6923 18.2655 25.9226C18.5051 26.153 18.8275 26.2798 19.1617 26.2751C19.5244 26.2935 19.881 26.1781 20.1623 25.9513L19.9103 25.5676C19.7113 25.7253 19.4647 25.813 19.2096 25.8167C19.0363 25.8314 18.8641 25.7788 18.7294 25.6699C18.5948 25.561 18.5085 25.4045 18.4888 25.2337H20.2783V25.0344C20.2783 24.2869 19.8095 23.7886 19.134 23.7886L19.1264 23.7837ZM19.1264 24.2471C19.2049 24.2454 19.2829 24.2591 19.356 24.2872C19.4291 24.3154 19.4959 24.3575 19.5526 24.4112C19.6092 24.4648 19.6546 24.529 19.6861 24.6001C19.7177 24.6711 19.7348 24.7475 19.7364 24.8251H18.4762C18.4853 24.6652 18.5574 24.5151 18.6771 24.4071C18.7967 24.299 18.9544 24.2416 19.1164 24.2471H19.1264ZM32.2604 25.0344V22.8867H31.7564V24.1325C31.6673 24.0192 31.5523 23.9285 31.4209 23.8679C31.2894 23.8072 31.1452 23.7784 31.0002 23.7837C30.666 23.7837 30.3454 23.9149 30.1091 24.1485C29.8728 24.3821 29.74 24.699 29.74 25.0294C29.74 25.3598 29.8728 25.6767 30.1091 25.9103C30.3454 26.1439 30.666 26.2751 31.0002 26.2751C31.1452 26.2804 31.2894 26.2516 31.4209 26.1909C31.5523 26.1303 31.6673 26.0396 31.7564 25.9263V26.2153H32.2604V25.0344ZM33.135 25.879C33.1678 25.8786 33.2003 25.8845 33.2308 25.8964C33.2598 25.9081 33.2862 25.925 33.3089 25.9463C33.3311 25.9677 33.349 25.9931 33.3619 26.021C33.3746 26.0501 33.3812 26.0815 33.3812 26.1132C33.3812 26.1449 33.3746 26.1763 33.3619 26.2054C33.349 26.2333 33.3311 26.2586 33.3089 26.2801C33.2862 26.3014 33.2598 26.3183 33.2308 26.33C33.2006 26.3431 33.168 26.3499 33.135 26.3499C33.0873 26.3495 33.0406 26.3358 33.0004 26.3102C32.9602 26.2846 32.9283 26.2482 32.9082 26.2054C32.8956 26.1762 32.8891 26.1449 32.8891 26.1132C32.8891 26.0815 32.8956 26.0501 32.9082 26.021C32.921 25.9931 32.939 25.9677 32.9611 25.9463C32.9838 25.925 33.0103 25.9081 33.0393 25.8964C33.0721 25.8835 33.1073 25.8776 33.1426 25.879H33.135ZM33.135 26.3001C33.1602 26.3002 33.1851 26.2951 33.2081 26.2851C33.2298 26.2755 33.2495 26.262 33.2661 26.2452C33.2976 26.2112 33.3151 26.1668 33.3151 26.1207C33.3151 26.0745 33.2976 26.0301 33.2661 25.9961C33.2495 25.9793 33.2298 25.9657 33.2081 25.9562C33.1851 25.9463 33.1602 25.9412 33.135 25.9413C33.1099 25.9414 33.0851 25.9465 33.0619 25.9562C33.0393 25.9654 33.0187 25.979 33.0014 25.9961C32.9699 26.0301 32.9524 26.0745 32.9524 26.1207C32.9524 26.1668 32.9699 26.2112 33.0014 26.2452C33.0188 26.2623 33.0393 26.2759 33.0619 26.2851C33.0874 26.2959 33.1149 26.3011 33.1426 26.3001H33.135ZM33.1502 26.0036C33.1737 26.0024 33.1969 26.0095 33.2157 26.0235C33.2234 26.0298 33.2295 26.0379 33.2334 26.047C33.2374 26.0561 33.2391 26.0659 33.2384 26.0758C33.2387 26.0841 33.2374 26.0924 33.2343 26.1001C33.2313 26.1078 33.2266 26.1148 33.2207 26.1207C33.2061 26.1338 33.1875 26.1417 33.1678 26.1431L33.2409 26.2253H33.1829L33.1149 26.1431H33.0922V26.2253H33.0443V26.0061L33.1502 26.0036ZM33.0947 26.0459V26.1057H33.1502C33.16 26.1086 33.1705 26.1086 33.1804 26.1057C33.1822 26.1022 33.1831 26.0984 33.1831 26.0945C33.1831 26.0906 33.1822 26.0868 33.1804 26.0833C33.1822 26.0798 33.1831 26.076 33.1831 26.0721C33.1831 26.0682 33.1822 26.0644 33.1804 26.0609C33.1705 26.058 33.16 26.058 33.1502 26.0609L33.0947 26.0459ZM30.3222 25.0344C30.3306 24.8942 30.3802 24.7595 30.4651 24.6468C30.5499 24.5341 30.6662 24.4485 30.7997 24.4003C30.9332 24.3522 31.078 24.3437 31.2163 24.3759C31.3546 24.408 31.4803 24.4795 31.5781 24.5814C31.6758 24.6834 31.7412 24.8114 31.7663 24.9496C31.7914 25.0878 31.7751 25.2303 31.7193 25.3595C31.6635 25.4886 31.5707 25.5989 31.4523 25.6766C31.334 25.7543 31.1952 25.796 31.0532 25.7968C30.9534 25.798 30.8544 25.7788 30.7624 25.7404C30.6705 25.702 30.5876 25.6453 30.519 25.5736C30.4503 25.502 30.3974 25.4172 30.3635 25.3244C30.3297 25.2315 30.3156 25.1328 30.3222 25.0344ZM12.6212 25.0344V23.8434H12.097V24.1325C12.0079 24.0192 11.8929 23.9285 11.7615 23.8679C11.63 23.8072 11.4858 23.7784 11.3408 23.7837C11.0066 23.7837 10.686 23.9149 10.4497 24.1485C10.2134 24.3821 10.0806 24.699 10.0806 25.0294C10.0806 25.3598 10.2134 25.6767 10.4497 25.9103C10.686 26.1439 11.0066 26.2751 11.3408 26.2751C11.4858 26.2804 11.63 26.2516 11.7615 26.1909C11.8929 26.1303 12.0079 26.0396 12.097 25.9263V26.2153H12.6212V25.0344ZM10.6704 25.0344C10.6787 24.8942 10.7284 24.7595 10.8132 24.6468C10.8981 24.5341 11.0144 24.4485 11.1479 24.4003C11.2813 24.3522 11.4261 24.3437 11.5644 24.3759C11.7027 24.408 11.8285 24.4795 11.9262 24.5814C12.024 24.6834 12.0894 24.8114 12.1145 24.9496C12.1396 25.0878 12.1232 25.2303 12.0674 25.3595C12.0116 25.4886 11.9189 25.5989 11.8005 25.6766C11.6821 25.7543 11.5434 25.796 11.4013 25.7968C11.3011 25.7987 11.2016 25.7801 11.109 25.742C11.0165 25.7039 10.933 25.6472 10.8638 25.5755C10.7946 25.5038 10.7412 25.4187 10.7071 25.3256C10.6729 25.2324 10.6587 25.1332 10.6653 25.0344H10.6704Z" fill="#1A1A1A"/>
<path d="M15.0312 5.69141H22.9706V19.7957H15.0312V5.69141Z" fill="#FF5F00"/>
<path d="M15.5349 12.748C15.5335 11.3894 15.8447 10.0483 16.4451 8.82632C17.0456 7.60429 17.9194 6.53334 19.0005 5.69455C17.6619 4.65466 16.0544 4.00801 14.3616 3.82851C12.6689 3.64902 10.9592 3.94391 9.42793 4.6795C7.89669 5.41508 6.6057 6.56168 5.70249 7.98824C4.79929 9.41481 4.32031 11.0638 4.32031 12.7467C4.32031 14.4296 4.79929 16.0786 5.70249 17.5052C6.6057 18.9317 7.89669 20.0783 9.42793 20.8139C10.9592 21.5495 12.6689 21.8444 14.3616 21.6649C16.0544 21.4854 17.6619 20.8388 19.0005 19.7989C17.9198 18.9603 17.0461 17.8898 16.4457 16.6682C15.8453 15.4466 15.5338 14.1061 15.5349 12.748Z" fill="#EB001B"/>
<path d="M33.6815 12.7451C33.6815 14.4281 33.2024 16.0772 32.2991 17.5038C31.3957 18.9304 30.1045 20.077 28.5731 20.8125C27.0416 21.548 25.3318 21.8427 23.6389 21.6629C21.946 21.4832 20.3385 20.8362 19 19.796C20.0803 18.9567 20.9537 17.8859 21.5543 16.6642C22.1549 15.4426 22.4669 14.1021 22.4669 12.7438C22.4669 11.3856 22.1549 10.0451 21.5543 8.82344C20.9537 7.6018 20.0803 6.53095 19 5.69168C20.3385 4.65146 21.946 4.0045 23.6389 3.82475C25.3318 3.64499 27.0416 3.9397 28.5731 4.67518C30.1045 5.41066 31.3957 6.55724 32.2991 7.98385C33.2024 9.41046 33.6815 11.0595 33.6815 12.7426V12.7451ZM32.8145 18.3011V18.0121H32.933V17.9523H32.633V18.0121H32.7616V18.3011H32.8145ZM33.3967 18.3011V17.9523H33.306L33.2001 18.2014L33.0943 17.9523H33.0136V18.3011H33.0792V18.0395L33.1775 18.2662H33.2455L33.3438 18.0395V18.3036L33.3967 18.3011Z" fill="#F79E1B"/>
</svg>
