<svg width="69" height="70" viewBox="0 0 69 70" fill="none" xmlns="http://www.w3.org/2000/svg">
<mask id="mask0_4134_35790" style="mask-type:alpha" maskUnits="userSpaceOnUse" x="10" y="0" width="48" height="48">
<path d="M28.6145 46.9739C28.714 46.7169 28.8974 46.4951 29.1393 46.3396V46.3396C29.2998 46.4333 29.4582 46.5307 29.6167 46.6243C30.4421 46.7556 31.2584 46.9323 32.0613 47.1534L32.7342 47.1114C32.6539 47.2623 32.7836 47.3578 32.9111 47.3999C33.0367 47.4438 33.0819 47.4495 33.1972 47.4897C34.8722 46.269 37.9938 46.9166 39.924 47.0369C40.9764 46.4335 42.1765 46.0877 43.4119 46.0321C47.8526 45.1973 52.2603 42.3471 54.3181 38.5666C54.6638 37.9285 54.1679 38.7251 54.4313 38.2304C54.1782 38.2667 53.995 38.1826 53.7707 38.1711C53.7892 38.0833 53.8078 37.9992 53.8181 37.9094C55.349 36.4863 56.5734 35.5502 56.0713 33.4508C56.5611 33.3247 56.703 32.6064 56.8327 32.337C56.9623 32.0677 56.8759 32.1995 57.0385 32.0581C56.9315 31.7659 57.0014 31.5099 57.0611 31.2061C57.592 28.9501 58.018 26.459 57.5591 24.138C57.8904 20.3384 57.2175 17.8817 56.4643 14.3323C56.3491 13.7898 56.4993 14.4412 56.4108 14.0229C53.2625 8.15821 52.0895 7.64434 47.5275 3.66897C47.4596 3.68044 47.4061 3.6919 47.332 3.70909C47.3135 4.02811 47.0768 4.54963 46.7805 4.64514C46.5747 4.7101 46.7373 4.64514 46.5747 4.68526C46.6303 4.04722 46.0767 3.562 45.6302 3.14364C45.6137 1.94014 41.0558 1.41098 40.3932 1.25243C40.1236 1.3766 40.2841 1.48167 39.8396 1.35941C39.3952 1.23906 38.3169 0.881827 37.7942 0.727092C37.7366 0.784401 37.7304 0.862724 37.6913 0.927675C35.115 0.555163 30.9131 -0.421007 28.8964 1.68416C26.3695 1.53324 23.9928 2.96789 21.5893 3.55818C19.655 4.58975 17.9327 5.97854 16.0251 7.06169C15.5354 7.90796 15.0724 9.21652 14.2287 9.83738C13.9468 11.0523 13.7698 12.3724 12.8685 13.3485C11.3848 18.6134 9.95676 21.6851 11.2223 27.1429C11.391 27.355 11.6338 27.5842 11.6832 27.8478C11.7326 28.1114 11.6133 28.3349 11.5186 28.5699C11.7923 30.7744 11.5371 32.9388 12.9158 34.8491C13.6895 37.1568 14.6176 39.1741 16.6754 40.7233C17.1137 41.5295 17.5952 42.1847 18.6241 42.2516C21.7457 44.3988 24.7233 46.3626 28.6145 46.9739Z" fill="#E72E2E"/>
</mask>
<g mask="url(#mask0_4134_35790)">
<path d="M37.8136 -1.26172H31.2222C-1.93324 -1.26172 1.43731 50.5826 34.5179 50.5826C67.5985 50.5826 70.9691 -1.26172 37.8136 -1.26172Z" fill="#E72E2E"/>
<path d="M26.3356 41.6869C25.9008 39.2058 25.7398 35.4398 25.6806 33.1885C25.6535 32.1576 24.7851 31.3423 23.7553 31.3965C22.8242 31.4455 22.1221 32.0589 22.1849 32.9892C22.3564 35.5275 23.3087 40.4092 25.3643 42.2925C25.5313 42.4455 25.7749 42.4678 25.9806 42.373C26.2419 42.2526 26.3853 41.9702 26.3356 41.6869Z" fill="#FFA100"/>
<path d="M21.5981 40.1013C20.2367 36.7837 19.9147 33.4073 19.8634 31.1596C19.8329 29.823 18.6918 28.8118 17.3748 29.0414C16.6759 29.1632 16.0747 29.5846 16.096 30.2937C16.1737 32.8746 18.2604 38.8837 21.1696 40.5004C21.2299 40.5339 21.2991 40.5434 21.3669 40.5309C21.5627 40.4949 21.6737 40.2855 21.5981 40.1013Z" fill="#FFA100"/>
<path d="M43.4847 41.6869C43.9195 39.2058 44.0805 35.4398 44.1397 33.1885C44.1668 32.1576 45.0352 31.3423 46.065 31.3965C46.9961 31.4455 47.6982 32.0589 47.6354 32.9892C47.4639 35.5275 46.5116 40.4092 44.456 42.2925C44.289 42.4455 44.0454 42.4678 43.8397 42.373C43.5784 42.2526 43.4351 41.9702 43.4847 41.6869Z" fill="#FFA100"/>
<path d="M48.2261 40.1014C49.5658 36.8122 49.8612 33.2136 49.892 30.7628C49.9095 29.3649 51.2221 28.396 52.5339 28.8796C52.9971 29.0504 53.4075 29.364 53.4453 29.8564C53.6261 32.2106 51.7014 38.8035 48.6552 40.5003C48.595 40.5338 48.5257 40.5434 48.4579 40.5309C48.2621 40.4948 48.151 40.2858 48.2261 40.1014Z" fill="#FFA100"/>
<path d="M53.825 36.0687C55.5222 32.9702 55.9306 29.9329 55.9792 27.7957C56.011 26.3981 57.263 25.4312 58.5747 25.9147C59.038 26.0855 59.4553 26.4008 59.4678 26.8944C59.5231 29.0858 57.2361 34.7997 54.2005 36.4622C54.1455 36.4923 54.0825 36.5011 54.0209 36.4897C53.8297 36.4545 53.7315 36.2393 53.825 36.0687Z" fill="#FFA100"/>
<path d="M15.6985 36.4281C14.0013 33.3296 13.5928 30.2923 13.5442 28.1551C13.5125 26.7574 12.2604 25.7906 10.9487 26.2741C10.4854 26.4449 10.0681 26.7602 10.0557 27.2538C10.0003 29.4451 12.2873 35.1591 15.323 36.8216C15.3779 36.8517 15.4409 36.8605 15.5025 36.8491C15.6938 36.8139 15.7919 36.5986 15.6985 36.4281Z" fill="#FFA100"/>
<path d="M14.0685 20.7036C10.298 19.7487 7.51232 17.8884 5.76603 16.4585C4.73007 15.6102 3.16934 15.9027 2.68152 17.1072C2.50814 17.5354 2.47545 18.0144 2.82599 18.3333C4.48558 19.8429 10.6781 22.1709 14.0854 21.2174C14.1523 21.1987 14.2074 21.1571 14.2434 21.1018C14.3431 20.9485 14.2544 20.7507 14.0685 20.7036Z" fill="#FFA100"/>
<path d="M14.6724 16.2228C11.0793 14.872 8.56432 12.7422 7.01254 11.1366C6.07286 10.1642 4.47677 10.265 3.83589 11.4109C3.60828 11.8178 3.51512 12.2945 3.82961 12.6548C5.29783 14.337 11.1339 17.3126 14.6328 16.7373C14.7004 16.7262 14.7591 16.6918 14.801 16.642C14.9199 16.5004 14.8538 16.291 14.6724 16.2228Z" fill="#FFA100"/>
<path d="M16.0647 12.2087C12.9329 10.1822 11.0065 7.6329 9.8762 5.75812C9.16616 4.58044 7.57777 4.31388 6.67235 5.30458C6.35147 5.65568 6.14531 6.10888 6.37547 6.53663C7.42427 8.4858 12.3789 12.5577 15.9176 12.7102C15.9839 12.713 16.0468 12.6925 16.0975 12.654C16.248 12.5401 16.2296 12.3154 16.0647 12.2087Z" fill="#FFA100"/>
<path d="M55.1307 20.7036C58.9013 19.7487 61.6869 17.8884 63.4332 16.4585C64.4692 15.6102 66.0299 15.9027 66.5177 17.1072C66.6911 17.5354 66.7238 18.0144 66.3732 18.3333C64.7136 19.8429 58.5212 22.1709 55.1138 21.2174C55.0469 21.1987 54.9919 21.1571 54.9558 21.1018C54.8561 20.9485 54.9448 20.7507 55.1307 20.7036Z" fill="#FFA100"/>
<path d="M54.5268 16.2228C58.1199 14.872 60.6349 12.7422 62.1867 11.1366C63.1264 10.1642 64.7225 10.265 65.3633 11.4109C65.5909 11.8178 65.6841 12.2945 65.3696 12.6548C63.9014 14.337 58.0653 17.3126 54.5664 16.7373C54.4988 16.7262 54.4402 16.6918 54.3983 16.642C54.2793 16.5004 54.3454 16.291 54.5268 16.2228Z" fill="#FFA100"/>
<path d="M53.1345 12.2087C56.2663 10.1822 58.1927 7.6329 59.323 5.75812C60.0331 4.58044 61.6214 4.31388 62.5269 5.30458C62.8478 5.65568 63.0539 6.10888 62.8237 6.53663C61.7749 8.4858 56.8203 12.5577 53.2816 12.7102C53.2153 12.713 53.1525 12.6925 53.1017 12.654C52.9512 12.5401 52.9696 12.3154 53.1345 12.2087Z" fill="#FFA100"/>
</g>
<path d="M29.4554 31.6512C28.8705 31.5613 28.6859 32.4112 29.0654 32.6394C30.1545 33.3774 30.8996 33.6596 32.8674 33.5378C33.2573 33.5137 33.3548 32.7292 32.9648 32.6394L29.4554 31.6512Z" fill="#FFA100"/>
<path d="M35.8883 34.3464C34.904 34.5852 34.4187 33.3704 35.3034 33.1785C36.9607 32.8192 38.6179 32.37 40.3726 31.3817C40.8435 31.1165 41.445 31.8343 40.8601 32.1903C39.1323 33.2418 37.7405 33.8973 35.8883 34.3464Z" fill="#FFA100"/>
<path fill-rule="evenodd" clip-rule="evenodd" d="M35.6494 35.4799L36.2783 37.5807L36.1005 37.679C35.9257 37.7756 35.8612 37.9799 35.9523 38.1478L36.0182 38.2693C36.1098 38.4381 36.3274 38.5128 36.5165 38.4405L39.4537 37.3169C40.5113 36.9123 41.033 35.81 40.6353 34.8204C40.4892 34.4569 40.0551 34.2671 39.6571 34.3928L36.9606 35.2448L36.9296 35.1448C36.8396 34.8545 36.5084 34.6889 36.1952 34.7777L36.0413 34.8214C35.7389 34.9071 35.5653 35.1989 35.6494 35.4799ZM37.0581 36.1432L37.2531 37.2213L38.9693 36.5522C39.4239 36.3749 39.641 35.895 39.4577 35.4727C39.4244 35.396 39.3307 35.3579 39.2468 35.3869L37.0581 36.1432Z" fill="#FFA100"/>
<path d="M32.2335 34.6173C31.0025 35.5291 30.5421 35.9648 28.6765 35.9648C27.7016 35.9648 27.7016 36.9991 28.6765 36.953C29.9042 36.8949 30.5583 36.7591 31.601 36.1445C30.6935 38.5301 30.0303 39.8369 28.9182 41.8967C28.7919 42.1306 28.905 42.4224 29.1563 42.5092C29.3347 42.5709 29.5328 42.5093 29.6428 42.3559C30.2359 41.5279 30.6318 40.865 31.3086 39.5584C31.826 40.5989 31.8912 41.2348 31.7731 42.1311C31.7378 42.3989 31.9121 42.6523 32.1777 42.7012C32.4497 42.7514 32.7115 42.5679 32.7459 42.2935C32.9065 41.0105 32.7799 40.1549 32.0884 38.7498C32.7897 39.1477 33.2066 39.342 33.863 39.5142C33.9732 39.5432 34.0904 39.5171 34.1798 39.4465C34.4116 39.2634 34.3476 38.8915 34.0793 38.7679C33.5013 38.5016 32.9566 38.1347 32.2834 37.5819L33.1864 35.3627C33.3285 35.0136 33.1342 34.6188 32.7709 34.5184C32.5861 34.4673 32.3877 34.5031 32.2335 34.6173Z" fill="#FFA100"/>
<path fill-rule="evenodd" clip-rule="evenodd" d="M34.8096 39.363L35.4038 42.2381C35.4586 42.5033 35.7195 42.6891 36.0118 42.6711L38.4244 42.5229L39.3993 42.8823C41.0919 42.4663 42.2179 40.9926 42.0725 39.3838L42.0017 38.6016C41.966 38.2068 41.5573 37.9339 41.139 38.0256L35.7923 39.1988L35.7532 39.1088C35.6633 38.9017 35.4238 38.7852 35.1876 38.8336C34.927 38.8869 34.7596 39.1214 34.8096 39.363ZM38.5219 39.9176V39.2887L40.7567 38.8134C40.9143 38.7799 41.0673 38.8838 41.0792 39.0324L41.1011 39.3045C41.1889 40.3973 40.4407 41.3995 39.3018 41.7143L38.2294 41.6245L38.4244 40.816L39.7751 40.2714C39.9021 40.2202 39.9842 40.1045 39.9842 39.9768C39.9842 39.7655 39.7668 39.6116 39.5453 39.666L38.5219 39.9176ZM35.8898 40.7261L35.7923 40.0972L37.547 39.4684L37.6445 40.2769L35.8898 40.7261ZM35.9873 41.4448L36.1822 42.0737L37.2546 41.8042L37.547 41.0855L35.9873 41.4448Z" fill="#FFA100"/>
<path d="M52.5815 18.5653C52.5815 30.6074 43.5864 27.0736 34.5416 27.0702C24.9213 27.0666 16.3321 31.0294 16.8632 17.8131C17.0378 13.4693 19.6664 9.54837 24.2982 8.72747C26.9219 8.26246 30.3121 7.90625 34.5416 7.90625C38.5841 7.90625 41.9305 8.23165 44.5975 8.66645C49.6738 9.49401 52.5815 13.8145 52.5815 18.5653Z" fill="white"/>
<path d="M20.0405 13.496C18.6354 17.1907 20.7463 21.2356 24.7554 22.5306C28.7645 23.8256 33.1537 21.8802 34.5589 18.1855C35.9641 14.4909 33.8532 10.4459 29.844 9.15095C25.8349 7.85597 21.4457 9.80132 20.0405 13.496Z" fill="url(#paint0_radial_4134_35790)"/>
<path d="M28.031 19.3676C30.0027 19.3676 31.6465 17.8887 31.6465 16.0107C31.6465 14.1328 30.0027 12.6538 28.031 12.6538C26.0593 12.6538 24.4156 14.1328 24.4156 16.0107C24.4156 17.8887 26.0593 19.3676 28.031 19.3676Z" fill="white" stroke="#FFA100" stroke-width="0.637621"/>
<path d="M33.9805 10.7758C31.7827 11.5352 31.1417 9.25681 28.0282 9.42551C31.1417 8.24387 31.1417 10.3537 33.9805 10.7758Z" fill="#1C1A1A"/>
<path d="M22.5254 18.1888C22.8169 17.4912 22.2824 16.9469 21.9787 16.7619C22.9262 16.9521 23.1631 17.7924 23.1631 18.1888C23.1631 20.0914 18.5166 20.2499 18.3344 17.079C18.025 11.6951 22.8845 10.0475 25.623 10.1029C29.5407 10.1822 30.8162 12.3226 32.5472 12.3226C33.9321 12.3226 33.8531 11.6355 33.6405 11.292C34.1872 11.292 34.5516 12.7982 32.5472 12.7982C30.0873 12.7982 28.8118 10.9 25.623 11.0542C20.7032 11.292 19.0633 14.6215 19.3366 17.079C19.5823 19.2883 22.1609 19.0608 22.5254 18.1888Z" fill="#1C1A1A"/>
<path d="M49.762 13.496C51.1672 17.1907 49.0563 21.2356 45.0472 22.5306C41.038 23.8256 36.6489 21.8802 35.2437 18.1855C33.8385 14.4909 35.9494 10.4459 39.9585 9.15095C43.9676 7.85597 48.3568 9.80132 49.762 13.496Z" fill="url(#paint1_radial_4134_35790)"/>
<path d="M41.7693 19.3676C43.741 19.3676 45.3847 17.8887 45.3847 16.0107C45.3847 14.1328 43.741 12.6538 41.7693 12.6538C39.7976 12.6538 38.1538 14.1328 38.1538 16.0107C38.1538 17.8887 39.7976 19.3676 41.7693 19.3676Z" fill="#1C1A1A" stroke="#FFA100" stroke-width="0.637621"/>
<path d="M44.7471 16.0107C44.7471 17.4885 43.4389 18.73 41.7693 18.73C40.0997 18.73 38.7915 17.4885 38.7915 16.0107C38.7915 14.5329 40.0997 13.2915 41.7693 13.2915C43.4389 13.2915 44.7471 14.5329 44.7471 16.0107Z" fill="#1C1A1A" stroke="white" stroke-width="0.637621"/>
<path d="M35.7305 10.7758C37.9282 11.5352 38.5692 9.25681 41.6827 9.42551C38.5692 8.24387 38.5692 10.3537 35.7305 10.7758Z" fill="#1C1A1A"/>
<path d="M47.0918 18.1888C46.8003 17.4912 47.3348 16.9469 47.6385 16.7619C46.691 16.9521 46.4541 17.7924 46.4541 18.1888C46.4541 20.0914 51.1006 20.2499 51.2828 17.079C51.5922 11.6951 46.7327 10.0475 43.9942 10.1029C40.0765 10.1822 38.801 12.3226 37.07 12.3226C35.6851 12.3226 35.7641 11.6355 35.9767 11.292C35.43 11.292 35.0656 12.7982 37.07 12.7982C39.5299 12.7982 40.8054 10.9 43.9942 11.0542C48.914 11.292 50.5539 14.6215 50.2806 17.079C50.0349 19.2883 47.4563 19.0608 47.0918 18.1888Z" fill="#1C1A1A"/>
<path d="M34.9199 21.3183C39.0122 21.2085 41.9648 24.3348 45.9013 24.8256L46.2409 24.8594L46.5859 24.878C46.8021 24.8949 47.0195 24.8949 47.2357 24.878C47.6523 24.849 48.0598 24.7506 48.4386 24.5876C48.8087 24.4235 49.1357 24.1868 49.3969 23.894C49.6564 23.5954 49.8342 23.2434 49.9153 22.8678C50 22.4956 49.9559 22.1083 49.7894 21.7605C49.6122 21.4055 49.2987 21.1239 48.9096 20.9706C48.4802 20.8049 48.0161 20.7304 47.5515 20.7529C47.058 20.775 46.5684 20.8457 46.0912 20.9639C46.5406 20.7447 47.0193 20.5813 47.515 20.4778C48.0339 20.3676 48.5736 20.3722 49.0903 20.4913C49.3637 20.5624 49.6219 20.6766 49.8533 20.8289C50.0898 20.9863 50.2917 21.1839 50.4484 21.4112C50.7532 21.8775 50.8906 22.421 50.8408 22.964C50.7852 23.5013 50.5903 24.0183 50.2725 24.4711C49.9547 24.9239 49.5235 25.2991 49.0154 25.5649C48.5153 25.8283 47.9649 26.0002 47.3945 26.0712C47.1206 26.1136 46.8435 26.1356 46.5658 26.1371H46.166L45.7663 26.1185C44.6953 26.0501 43.6453 25.8103 42.6631 25.4096C42.1834 25.2142 41.7154 24.995 41.2612 24.7531C40.814 24.5168 40.3887 24.2653 39.9707 24.0222C39.1851 23.5418 38.3592 23.1202 37.5009 22.7614C36.684 22.434 35.8093 22.2469 34.9199 22.2095V21.3183Z" fill="#1C1A1A"/>
<path d="M34.97 21.3183C30.8288 21.2071 27.9112 24.3365 23.9885 24.8256L23.649 24.8594L23.304 24.878C23.0878 24.8949 22.8704 24.8949 22.6542 24.878C22.2375 24.849 21.83 24.7506 21.4512 24.5876C21.0811 24.4235 20.7541 24.1868 20.4929 23.894C20.2334 23.5954 20.0556 23.2434 19.9745 22.8678C19.8898 22.4956 19.9339 22.1083 20.1004 21.7605C20.2776 21.4055 20.5912 21.1239 20.9803 20.9706C21.4096 20.8049 21.8737 20.7304 22.3384 20.7529C22.8319 20.775 23.3214 20.8457 23.7987 20.9639C23.3492 20.7447 22.8705 20.5813 22.3749 20.4778C21.8559 20.3676 21.3162 20.3722 20.7996 20.4913C20.5261 20.5624 20.268 20.6766 20.0366 20.8289C19.8001 20.9863 19.5981 21.1839 19.4415 21.4112C19.1367 21.8775 18.9993 22.421 19.049 22.964C19.1046 23.5013 19.2995 24.0183 19.6173 24.4711C19.9351 24.9239 20.3663 25.2991 20.8744 25.5649C21.3746 25.8283 21.9249 26.0002 22.4953 26.0712C22.7692 26.1136 23.0464 26.1356 23.3241 26.1371H23.7238L24.1236 26.1185C25.1946 26.0501 26.2445 25.8103 27.2267 25.4096C27.7064 25.2142 28.1744 24.995 28.6286 24.7531C29.0758 24.5168 29.5011 24.2653 29.9192 24.0222C30.7048 23.5418 31.5307 23.1202 32.3889 22.7614C33.2058 22.434 34.0805 22.2469 34.97 22.2095V21.3183Z" fill="#1C1A1A"/>
<path d="M28.7117 26.2218L29.959 25.2001C30.0116 25.157 30.0878 25.1593 30.1378 25.2053C30.1915 25.2548 30.1967 25.3378 30.1496 25.3935L29.1097 26.6257C29.0189 26.7333 28.8631 26.7583 28.7431 26.6846C28.5763 26.5822 28.5603 26.3458 28.7117 26.2218Z" fill="#1C1A1A"/>
<path d="M30.887 26.2194L31.8838 24.9071C31.9318 24.8438 32.024 24.8357 32.0824 24.8895C32.1264 24.93 32.1384 24.9947 32.112 25.0483L31.383 26.5261C31.3067 26.6809 31.1139 26.7365 30.9669 26.6462C30.8194 26.5555 30.7823 26.3573 30.887 26.2194Z" fill="#1C1A1A"/>
<path d="M33.1602 26.0916L33.6476 24.8722C33.6803 24.7906 33.7845 24.767 33.8492 24.8266C33.8799 24.8549 33.8945 24.8967 33.8881 24.938L33.687 26.2357C33.6569 26.4298 33.4388 26.5306 33.2715 26.4278C33.1575 26.3577 33.1105 26.2158 33.1602 26.0916Z" fill="#1C1A1A"/>
<path d="M41.2804 26.2218L40.0332 25.2001C39.9806 25.157 39.9044 25.1593 39.8544 25.2053C39.8007 25.2548 39.7955 25.3378 39.8426 25.3935L40.8825 26.6257C40.9733 26.7333 41.1291 26.7583 41.2491 26.6846C41.4158 26.5822 41.4319 26.3458 41.2804 26.2218Z" fill="#1C1A1A"/>
<path d="M39.1013 26.2194L38.1045 24.9071C38.0564 24.8438 37.9643 24.8357 37.9058 24.8895C37.8619 24.93 37.8499 24.9947 37.8763 25.0483L38.6052 26.5261C38.6815 26.6809 38.8743 26.7365 39.0213 26.6462C39.1689 26.5555 39.206 26.3573 39.1013 26.2194Z" fill="#1C1A1A"/>
<path d="M36.832 26.0916L36.3446 24.8722C36.3119 24.7906 36.2077 24.767 36.143 24.8266C36.1123 24.8549 36.0977 24.8967 36.1041 24.938L36.3052 26.2357C36.3353 26.4298 36.5533 26.5306 36.7207 26.4278C36.8347 26.3577 36.8817 26.2158 36.832 26.0916Z" fill="#1C1A1A"/>
<path d="M39.705 24.6149C39.8343 24.3629 39.4093 24.2102 39.1667 24.064C36.331 22.3559 33.1147 22.473 30.2781 24.2865C30.2613 24.2972 30.2432 24.3061 30.2255 24.3153C29.9789 24.4434 30.133 24.8036 30.4023 24.7554C30.4188 24.7525 30.4346 24.7466 30.4499 24.7398C33.2195 23.5219 36.1824 23.4285 38.9663 24.5772C39.2177 24.681 39.5809 24.857 39.705 24.6149V24.6149Z" fill="#E72E2E"/>
<path d="M30.1985 21.5081C31.0238 19.633 33.0336 19.0263 33.6181 20.3198C33.6672 20.4284 33.8104 20.4711 33.8986 20.391L33.9196 20.3719C33.9599 20.3353 33.9788 20.2786 33.9678 20.2252C33.5117 18.0123 30.7012 18.9681 29.8335 21.3811C29.7954 21.487 29.861 21.6005 29.9707 21.6257C30.0645 21.6474 30.1597 21.5963 30.1985 21.5081Z" fill="#E72E2E"/>
<path d="M39.5124 21.5081C38.6871 19.633 36.6774 19.0263 36.0929 20.3198C36.0438 20.4284 35.9006 20.4711 35.8123 20.391L35.7913 20.3719C35.751 20.3353 35.7322 20.2786 35.7431 20.2252C36.1992 18.0123 39.0097 18.9681 39.8774 21.3811C39.9155 21.487 39.8499 21.6005 39.7403 21.6257C39.6464 21.6474 39.5512 21.5963 39.5124 21.5081Z" fill="#E72E2E"/>
<path d="M13.505 56.0664C13.8173 56.1817 13.9953 56.3481 14.0387 56.5658L14.1161 56.5069L14.2411 56.4827L14.2497 56.5252L14.2266 56.6132L14.6446 56.5325L15.1591 56.6923L15.2144 56.7656L15.0894 56.7897L15.0978 56.8318C15.2128 57.1103 15.3854 57.3921 15.6156 57.6777C15.9781 58.1794 16.2228 58.7479 16.3495 59.3833L16.4654 59.9635C16.5514 59.9467 16.7215 60.3581 16.9755 61.1975L17.017 61.405C17.0227 61.433 17.0111 61.45 16.9824 61.4554L17.0416 61.528C17.0671 61.656 17.0527 61.8743 16.9979 62.1827C17.1456 62.3404 17.2429 62.5358 17.2894 62.7689L17.3064 62.8533L17.3882 62.8375C17.4455 62.8264 17.4801 62.6335 17.4918 62.259L17.5348 62.2507L17.4749 62.1744L17.4503 62.0514C17.5646 61.8245 17.5927 61.1595 17.5346 60.056C17.5833 59.9216 17.6173 59.6583 17.6365 59.2663C17.7664 58.6983 17.8968 58.3287 18.0275 58.1572L18.0705 58.1489C18.0895 58.0946 18.0927 58.0368 18.0805 57.9756L18.1625 57.9596L18.1648 58.1745C18.2559 58.1568 18.332 57.956 18.3934 57.5717L18.3848 57.5294L18.4754 57.5559L18.467 57.5136C18.4383 57.5192 18.4211 57.5078 18.4153 57.4797C18.4597 57.4711 18.5117 57.4333 18.5711 57.3658C18.5763 57.3914 18.592 57.4017 18.618 57.3966C18.7498 57.0279 18.8991 56.8275 19.0658 56.7954L19.1088 56.7871L19.1417 56.9524L18.8458 57.4405L18.7552 57.4139L18.6264 57.4389L18.6348 57.4813L18.8028 57.4487L18.8196 57.5333C18.6556 57.7272 18.577 57.8422 18.5843 57.878C18.4903 58.2873 18.3811 59.1969 18.2571 60.6067L18.2655 60.649L18.3045 60.6415C18.4153 60.3568 18.4725 59.9866 18.4763 59.5308L18.6143 58.9017L18.661 58.8926C18.6664 58.7775 18.6912 58.7157 18.7357 58.7071L18.7785 58.6987C18.7923 58.7679 18.8349 58.8316 18.906 58.8897L18.9164 58.942C18.9358 58.931 18.9527 58.9241 18.967 58.9213L18.9756 58.9636C18.9329 59.1845 18.9006 59.4622 18.8781 59.7963L18.9211 59.7881C18.9863 59.7756 19.0268 59.5389 19.043 59.0783C19.2122 59.0456 19.3162 58.7673 19.355 58.2439L19.441 58.2271C19.4527 58.2862 19.4326 58.4762 19.3804 58.7976C19.4507 58.7838 19.5033 58.8309 19.5383 58.9386L19.5369 59.1544C19.5819 59.2308 19.6188 59.2663 19.6474 59.2607L19.6711 60.0302C19.6881 60.1146 19.7382 60.1489 19.8215 60.1329L19.8292 60.1712C19.8496 61.1542 19.8149 62.2927 19.7245 63.5872C19.6312 64.0681 19.4494 64.7629 19.1793 65.6716C18.9714 66.2279 18.8531 66.5088 18.8244 66.5144L18.5866 66.6442C18.5744 66.5827 18.4958 66.5552 18.3511 66.562C18.3643 66.6286 18.2332 66.6963 17.9578 66.7656C17.8282 66.6177 17.6772 66.5178 17.5044 66.4661C17.4967 66.4278 17.4457 66.3951 17.3511 66.368L17.3121 66.3757L17.3289 66.4601C17.089 66.2883 16.9654 66.1833 16.9577 66.145C16.3916 65.3551 16.0708 64.7721 15.9957 64.3955C15.8868 63.9856 15.7679 63.6069 15.6391 63.2593L15.6658 63.1703L15.4311 62.4416L15.4741 62.4333L15.4143 62.3572L15.2654 61.6117L15.1442 61.2082L14.9724 61.2414C14.9858 61.308 14.9571 61.4558 14.8866 61.685L14.9724 61.6684C14.951 61.9945 14.9479 62.1958 14.9634 62.2727C14.9894 62.2677 15.0053 62.2791 15.0108 62.3075C14.9196 62.325 14.9024 62.5292 14.9588 62.9199L15.0431 63.1192C15.0286 63.2762 14.9945 63.3971 14.9412 63.4821C14.9468 63.5101 14.964 63.5216 14.9926 63.5159C15.014 63.9215 15.0077 64.1806 14.9735 64.2938C15.0098 64.34 15.0309 64.3784 15.0372 64.409C14.9533 64.585 14.9039 64.9949 14.8892 65.6387C14.8611 65.9316 14.8327 66.0807 14.804 66.0861L14.6792 66.1102C14.6176 66.4387 14.5217 66.6156 14.3915 66.6406C14.3279 66.5385 14.2753 66.4915 14.2336 66.4996L14.1476 66.5161L13.9444 66.5955C13.9198 66.4725 13.7772 66.415 13.5165 66.4227L13.518 66.207C13.4903 66.0687 13.4207 66.0104 13.3087 66.032L13.2586 65.7823C13.2317 65.6464 13.1478 65.5922 13.0073 65.6195C12.8825 64.9945 12.901 63.9162 13.0629 62.3846C13.0574 62.3562 13.0402 62.3451 13.0115 62.3506L13.0107 61.9198L13.1051 61.9456L13.0553 61.6957C13.1514 61.6771 13.1827 61.5421 13.1487 61.2905L13.0912 61.0025C13.1562 60.9899 13.1787 60.8857 13.1587 60.6902L13.0858 60.5287C13.0954 60.4418 13.1147 60.3955 13.1432 60.3897C13.1376 60.3617 13.1204 60.3502 13.0918 60.3559C13.0749 60.1224 13.0795 59.9219 13.1057 59.7546C13.0663 59.7065 13.0436 59.667 13.0373 59.6363C13.087 59.6 13.126 59.5792 13.1547 59.5737C13.1122 59.5102 13.0572 59.377 12.9899 59.1746C13.0262 59.1674 13.0656 59.0734 13.1078 58.8923C13.0684 58.8442 13.0461 58.806 13.0404 58.7776L13.0834 58.7694L13.0235 58.6932C13.0526 57.9588 13.0218 57.1479 12.9312 56.261C13.022 56.1877 13.1287 56.1392 13.251 56.1155L13.376 56.0912C13.4047 56.0858 13.4219 56.0971 13.4274 56.1253L13.505 56.0664ZM18.8025 58.3226L18.8279 58.4494C18.7733 58.4601 18.754 58.5063 18.7704 58.5881L18.7274 58.5964C18.7219 58.5684 18.6993 58.5302 18.6599 58.4819C18.7459 58.4653 18.7805 58.4146 18.7635 58.3302L18.8025 58.3226ZM18.0705 58.1489L18.0874 58.2335L18.0606 58.3223L18.1548 58.348L18.1978 58.3397L18.1894 58.2974L18.1034 58.314L18.1304 58.2252L18.1219 58.1828C18.1162 58.1547 18.0992 58.1433 18.0705 58.1489Z" fill="black"/>
<path d="M20.6429 55.5048L20.8762 55.5512L20.8858 55.5044L21.2004 55.6152L21.1918 55.6578C21.0995 55.6394 21.0471 55.6614 21.0343 55.724L21.1391 55.696L21.1822 55.7045L21.1727 55.7513L21.054 55.8695C21.0448 55.9149 21.0815 55.9692 21.1647 56.0329L21.2597 56.0517C21.2765 55.9694 21.3352 55.9177 21.4355 55.8962L21.4441 55.8537L21.6301 55.8904C21.6201 55.9385 21.7908 56.1303 22.1421 56.4652C22.4193 56.7974 22.6764 57.2772 22.914 57.9054C23.1429 58.8386 23.2356 59.413 23.1915 59.6284L23.1439 59.6188C23.1999 60.1374 23.237 60.7479 23.2553 61.4507C23.2116 61.5041 23.1859 61.5475 23.1791 61.5818C23.2743 61.6004 23.2991 61.8752 23.2534 62.4062L23.1877 62.4859L23.1294 63.7176C23.0223 63.9326 22.9644 64.0627 22.9551 64.108L22.9461 64.394L22.9893 64.4024L23.094 64.3744L23.0749 64.468L23.0091 64.5479C23.0407 64.5541 23.0535 64.5729 23.0472 64.6042C23.0155 64.598 22.9963 64.6102 22.99 64.6414L23.0832 64.66C23.4847 64.0996 23.7748 63.6479 23.9538 63.3048C23.9538 63.2383 24.0493 63.13 24.2405 62.9795L24.9503 61.4395C24.918 61.4224 24.9018 61.3124 24.9018 61.1099C25.1252 60.6444 25.2678 60.4116 25.3296 60.4116C25.5618 59.9141 25.9425 58.8542 26.4718 57.232L26.8994 56.2517C26.8671 56.1907 26.851 56.1445 26.851 56.1127C26.9686 56.1127 27.1419 55.9724 27.3713 55.6919H27.5653L27.6095 55.8784H27.658C27.7226 55.8784 27.7549 55.8467 27.7549 55.7829L28.2268 55.8307H28.3237C28.3237 55.9234 28.3547 55.9696 28.4164 55.9696H28.465C28.465 55.8769 28.4973 55.8307 28.5621 55.8307H28.6104C28.6722 55.8393 28.7031 55.8711 28.7031 55.9262L28.8001 55.8784H28.8442V56.065H28.9411C29.003 56.065 29.0338 56.0332 29.0338 55.9696V55.9262L28.9897 55.8307L29.2278 55.7829H29.3205L29.272 55.8784V56.0174C29.3366 56.0174 29.3689 56.0794 29.3689 56.2039H29.7483C29.7483 56.2357 29.732 56.2517 29.6997 56.2517C29.7145 56.4077 29.7628 56.4857 29.8452 56.4857V56.7633C29.8628 57.0961 29.9568 57.3301 30.1275 57.4661C30.1275 57.4806 30.1759 57.6368 30.273 57.9346L30.3657 57.8869H30.4142L30.6036 58.5895C30.6904 58.5895 30.7372 58.6683 30.7439 58.8261L30.7447 58.8672H30.8903C30.8932 59.0436 30.9874 59.3863 31.1727 59.8955C31.1402 60.066 31.1241 60.1903 31.1241 60.2683L31.221 60.3161C31.221 60.2843 31.2373 60.2683 31.2696 60.2683C31.2696 60.3321 31.3636 60.5344 31.5519 60.8756C32.5309 60.7831 33.1173 60.7369 33.3113 60.7369V60.8324H33.2142L33.2627 61.0623L32.3147 61.3442L32.3589 61.4395C32.3589 61.5871 32.2178 61.6796 31.9355 61.7172V61.7649H32.028V61.8605L31.9355 61.9992V62.0902C32.1884 62.8797 32.394 63.581 32.5529 64.1942C32.5529 64.2434 32.5838 64.3055 32.6454 64.3807V64.4284C32.6454 64.4602 32.6293 64.476 32.5968 64.476L33.0248 65.6908C32.9953 65.6908 32.9806 65.7066 32.9806 65.7384C33.1158 65.7384 33.257 66.2199 33.404 67.1829C33.2981 67.1829 33.2201 67.2609 33.1702 67.417H32.8835C32.8835 67.5125 32.8042 67.5603 32.6454 67.5603C32.5337 67.4533 32.2486 67.3275 31.79 67.1829C31.79 67.1338 31.5532 67.0411 31.08 66.9054C31.08 66.8706 30.9844 66.7924 30.7932 66.6711V66.5756L31.1241 66.6234H31.2696C31.3313 66.6234 31.3621 66.5931 31.3621 66.5322C31.3621 66.4338 31.0624 65.6703 30.4626 64.2419C30.4626 64.0509 30.3037 63.568 29.9863 62.793C29.3779 62.9811 28.7135 63.1213 27.9931 63.2138C27.9931 63.1819 27.977 63.1661 27.9447 63.1661C27.9447 63.2586 27.8491 63.3206 27.658 63.3526C27.12 63.474 26.851 63.6461 26.851 63.8687C26.6511 64.4935 26.4615 64.9286 26.282 65.1745V65.3176C26.3762 65.3176 26.4233 65.348 26.4233 65.4088V65.4565L26.3306 65.4088H26.2336C26.1396 65.6517 26.0926 65.8077 26.0926 65.8771L25.9955 65.8295C25.9955 65.9106 25.8999 66.0044 25.7088 66.1114C25.7088 66.1693 25.5354 66.4498 25.1885 66.953L25.0914 66.9964H24.9989L24.8093 66.8576H24.7607C24.699 66.8663 24.6682 66.8981 24.6682 66.953C24.6975 67.0107 24.7122 67.0569 24.7122 67.0917L24.6197 67.1395C24.5784 67.1077 24.4991 67.0917 24.3815 67.0917C24.3815 67.1842 24.3183 67.2305 24.1919 67.2305L23.4291 66.7189C23.2337 66.7189 23.0434 66.4934 22.858 66.0426C22.8424 66.2464 22.7921 66.5557 22.7073 66.9706L22.6326 67.3361C22.5892 67.5489 22.5372 67.6491 22.4766 67.6373L22.4304 68.1058L22.3748 68.3781C22.2046 68.8872 21.9961 69.1956 21.7494 69.3029C21.6838 69.3531 21.5661 69.3913 21.398 69.4182L21.3778 69.4252C21.2461 69.5318 21.3397 69.5028 21.2319 69.6087C21.1956 69.6243 21.1121 69.6324 20.9837 69.6335V69.6346C20.9057 69.6685 20.8067 69.6767 20.6864 69.6592C20.5425 69.8256 20.4315 69.9259 20.3535 69.9595L19.8837 69.9544C19.4561 70.0037 18.9238 70.0129 18.2869 69.9821C17.797 69.7484 17.2167 69.5748 16.5458 69.4607C16.2121 69.2103 15.9151 69.0845 15.6543 69.0835C15.5917 68.9433 15.1453 68.6421 14.3156 68.1797C14.0388 68.0278 13.8722 67.9639 13.8156 67.9885C13.6067 67.7725 13.4618 67.6818 13.381 67.7168L13.3047 67.5461C14.0964 67.8513 14.5219 67.991 14.5809 67.9652L14.5614 67.9218L14.164 67.7334L14.1463 67.6937L14.1908 67.6745C14.199 67.6931 14.4511 67.79 14.9473 67.9656C15.4431 68.141 15.8617 68.2292 16.2027 68.2301C16.4791 68.2813 16.6565 68.2897 16.7345 68.2559L16.7788 68.2367C16.8274 68.2158 16.843 68.1758 16.8262 68.1167C15.6599 67.8283 15.0402 67.6021 14.9666 67.4382L14.9015 67.5185C14.8128 67.557 14.7239 67.4769 14.635 67.2784L14.5503 67.315L14.5876 67.3983L14.5431 67.4177C14.4911 67.3013 14.4253 67.1937 14.346 67.0954L14.4349 67.0571L14.4544 67.1005C15.9705 67.6322 17.013 67.9127 17.5814 67.9415C17.5814 67.9415 19.1801 68.2871 19.9223 67.8699C21.2602 67.1178 20.9171 62.0196 20.9171 62.0196L21.0215 60.5623C21.0364 59.5359 20.9372 58.4366 20.7239 57.2646C20.6216 57.0025 20.2097 55.9724 20.2533 55.7597C20.3221 55.6142 20.3839 55.5465 20.4385 55.5574L20.5769 55.5847C20.5891 55.5253 20.6111 55.4986 20.6429 55.5048ZM31.6539 63.0247C31.8451 63.7418 31.9877 64.1005 32.0817 64.1005V64.0528C32.0817 64.0152 32.0656 63.8604 32.0332 63.5885L32.0817 63.3545C32.0494 63.3545 32.0332 63.3385 32.0332 63.3067L31.9406 63.3545H31.8435C31.8435 63.1345 31.7805 63.0247 31.6539 63.0247ZM28.7351 59.2643C28.5852 59.4579 28.4266 59.8005 28.2589 60.2924C28.1882 60.7231 28.0619 61.1424 27.8797 61.5502H27.8312V61.7367C27.9929 61.7367 28.5162 61.6125 29.401 61.3637V61.3161C29.401 61.2494 29.1791 60.58 28.7351 59.3075V59.2643ZM27.3002 57.0081H27.1106V57.1036H27.2077C26.7314 58.0956 26.4932 58.7809 26.4932 59.1598C26.5609 59.1453 26.6239 59.0672 26.6828 58.9255C26.6534 58.8706 26.6389 58.8083 26.6389 58.739C26.7123 58.739 26.8548 58.4742 27.0664 57.9451L27.0181 57.8496V57.8019C27.1914 57.6082 27.2855 57.3437 27.3002 57.0081Z" fill="black"/>
<path d="M7.00424 66.5395C6.43388 66.5077 6.1487 66.3834 6.1487 66.1667C6.06938 66.1667 5.99006 66.1347 5.91054 66.0711C5.91054 66.1029 5.89449 66.1189 5.86219 66.1189C5.86219 66.0811 5.73565 65.9568 5.48297 65.7457C5.48297 65.6126 5.35644 65.4725 5.10375 65.3249C4.81265 65.1572 4.41718 64.4878 3.91736 63.3165C3.81357 63.173 3.75183 63.1582 3.73234 63.2717C3.76177 63.509 3.77649 63.7807 3.77649 64.0874C3.77649 64.1336 3.76177 64.1567 3.73234 64.1567L3.77649 64.2522V64.5341C3.77649 64.5948 3.74552 64.7496 3.68379 64.9983L3.77649 64.9549C3.80879 65.2758 3.82485 65.4623 3.82485 65.5146H3.77649L3.82485 65.6056V65.9352L3.8734 66.1695C3.80879 66.1695 3.77649 66.2157 3.77649 66.3084C3.77649 66.3344 3.79254 66.4587 3.82485 66.6815L3.30457 66.868C3.11343 66.868 3.01805 66.7132 3.01805 66.4037H2.92095C2.89152 66.5252 2.8768 66.6337 2.8768 66.7292H2.82825C2.82825 66.5324 2.66961 66.4081 2.35213 66.356C2.35213 66.1479 2.27281 65.8976 2.11397 65.6056C2.05223 65.6374 2.00521 65.6534 1.97291 65.6534V65.7009H2.06982V65.7487C2.06982 65.7776 2.05376 65.7921 2.02127 65.7921L2.06982 65.8874V65.983C1.81407 65.7573 1.6862 65.3367 1.6862 64.7206C1.75081 64.0787 1.7833 63.6188 1.7833 63.3411C1.7833 63.0145 1.75081 62.7267 1.6862 62.4779C1.6862 62.4491 1.70226 62.3247 1.73475 62.1049C1.73475 62.0645 1.71851 61.9082 1.6862 61.6365L1.73475 61.4023C1.70226 61.35 1.6862 61.272 1.6862 61.168H1.73475C1.67282 61.0031 1.62599 60.7703 1.5935 60.4697H1.64205C1.25098 58.5058 0.902728 57.5242 0.597098 57.5242L0.5 57.1987V57.1509C0.508792 57.0876 0.541095 57.0558 0.597098 57.0558H0.64106L0.738158 57.1034C0.738158 57.0716 0.754214 57.0558 0.786516 57.0558L0.738158 56.9646C0.74695 56.9009 0.777723 56.8691 0.830669 56.8691C0.892406 56.9009 0.940955 56.9169 0.976125 56.9169C0.976125 56.8706 1.02314 56.8244 1.11738 56.7781C1.30851 56.908 1.40389 57.0485 1.40389 57.1987C1.49506 57.1987 1.63765 57.1207 1.83166 56.9646L1.96507 56.9601C1.96507 57.0844 2.09142 57.1466 2.34429 57.1466V57.2421H2.24738V57.2854C2.41788 57.2854 2.54422 57.3331 2.6266 57.4287L2.58245 57.3331V57.2854H2.67515C2.67515 57.3403 2.77072 57.4805 2.96167 57.7064C3.52916 59.0798 5.1653 61.3863 5.95909 64.249C6.02676 64.249 6.09002 64.3893 6.1487 64.67C6.46637 64.3316 6.75136 63.2877 7.00424 61.538C7.00424 61.509 6.98818 61.4948 6.95588 61.4948C7.01169 60.7457 7.09101 60.3712 7.19385 60.3712C7.19385 60.4059 7.21009 60.4522 7.24239 60.5101C7.17779 60.6344 7.1453 60.8064 7.1453 61.0262C7.1453 61.0956 7.16154 61.1578 7.19385 61.2127C7.16154 61.5743 7.11452 61.8546 7.05279 62.0543C7.08509 62.2711 7.13211 62.3796 7.19385 62.3796H7.24239C7.24239 62.2553 7.27336 62.1931 7.33491 62.1931V61.7288C7.37027 61.7288 7.41882 61.713 7.48055 61.6811C7.44825 61.6147 7.41576 61.4744 7.38345 61.2605C7.44519 61.2285 7.49221 61.2127 7.52471 61.2127L7.48055 60.9785C7.50999 60.9785 7.52471 60.9627 7.52471 60.9307H7.432V60.8397C7.55835 60.8397 7.62161 60.481 7.62161 59.7639C7.66577 59.5527 7.71279 59.4126 7.76267 59.3431C7.70113 59.3431 7.67016 59.2968 7.67016 59.2041V58.688H7.62161V58.6448C7.62161 58.613 7.63786 58.597 7.67016 58.597L7.62161 58.5015C7.6952 58.4321 7.75828 58.2298 7.81122 57.8944L7.76267 57.8032C7.82747 57.6876 7.85977 57.5631 7.85977 57.4302L7.81122 57.3346H7.90832V57.2869H7.81122V57.1959C7.96126 56.8778 8.18318 56.6275 8.47715 56.4453C8.76232 56.4976 8.90491 56.5596 8.90491 56.632V56.7273C8.55207 56.8663 8.26689 57.1308 8.04938 57.5212L8.09793 57.6167L7.95228 58.6448H8.04938L7.95228 58.7835C7.95228 58.8529 7.96853 58.9151 8.00083 58.97L7.90832 59.2041L7.95228 59.4384L7.90832 59.5296L7.95228 59.8116V59.9504C7.89074 60.254 7.85977 60.4261 7.85977 60.4665C7.85977 60.5359 7.87602 60.5981 7.90832 60.653C7.84372 60.8092 7.79517 60.8873 7.76267 60.8873L7.81122 60.9785C7.81122 61.1347 7.78045 61.2127 7.71871 61.2127L7.76267 61.3082L7.67016 61.447C7.70246 61.6175 7.71871 61.7418 7.71871 61.8198C7.68622 61.8198 7.67016 61.8358 7.67016 61.8676H7.76267C7.76267 61.5553 7.84219 61.259 8.00083 60.9785L7.95228 60.7008V60.653C8.08168 60.653 8.14648 60.5287 8.14648 60.28H8.19063L8.14648 60.1846C8.21987 60.0833 8.26689 59.9432 8.28754 59.7639C8.25524 59.712 8.23899 59.6337 8.23899 59.5296H8.28754L8.23899 59.4384L8.33609 59.2955V59.2519C8.33609 59.1797 8.31984 59.1174 8.28754 59.0655C8.34928 58.8456 8.3963 58.7358 8.4286 58.7358C8.3963 58.6952 8.38005 58.6171 8.38005 58.5015C8.41254 58.5015 8.4286 58.4872 8.4286 58.4582L8.38005 58.2672C8.4242 58.1256 8.48747 58.0489 8.56966 58.0373L8.5257 57.9419C8.55513 57.8869 8.56966 57.8248 8.56966 57.7554H8.66676C8.63445 58.1749 8.61821 58.4857 8.61821 58.688V59.0178C8.52417 59.0178 8.47715 59.0481 8.47715 59.1088C8.57119 59.1088 8.61821 59.265 8.61821 59.5773H8.66676C8.7931 59.3372 8.85636 59.197 8.85636 59.1565C8.82406 59.0958 8.80801 59.0496 8.80801 59.0178L8.85636 58.5492C8.82406 58.4885 8.80801 58.4423 8.80801 58.4105C8.90491 58.4105 8.95346 58.3484 8.95346 58.2238H9.04597V58.2672C8.91963 58.9093 8.85636 59.9692 8.85636 61.447H8.80801C8.80801 61.4788 8.82406 61.4948 8.85636 61.4948L8.80801 61.7288V61.8198L8.99742 61.7288V61.7723C8.93569 62.4057 8.7931 63.3714 8.56966 64.67C8.56966 65.0431 8.33303 65.5577 7.85977 66.2144C7.85977 66.4051 7.57459 66.5136 7.00424 66.5395Z" fill="black"/>
<path d="M11.1944 65.4477H10.9121C10.9121 65.387 10.8166 65.3248 10.6256 65.2612C10.1493 64.7637 9.91115 63.4711 9.91115 61.3831C9.88171 61.3831 9.86719 61.3211 9.86719 61.1966C9.86719 61.1648 9.88171 61.1489 9.91115 61.1489L9.86719 60.9148V60.4938C9.86719 60.4649 9.88171 60.4506 9.91115 60.4506C9.88171 60.3898 9.86719 60.3421 9.86719 60.3073L9.91115 59.1882H9.9597C9.9597 59.1564 9.94364 59.1404 9.91115 59.1404C9.95224 58.7183 9.98474 58.4696 10.0082 58.3942C10.0082 58.3624 9.992 58.3466 9.9597 58.3466C9.9597 58.3147 9.97594 58.2684 10.0082 58.2079C10.0405 57.4214 10.0566 56.7981 10.0566 56.3382C10.0566 55.8292 9.99353 55.1742 9.86719 54.3732C10.0052 54.1245 10.1478 54 10.2948 54C10.4771 54 10.5874 54.0782 10.6256 54.2343C10.8579 54.2865 11.0635 54.4426 11.243 54.703C11.243 54.7867 11.2753 54.8792 11.3399 54.9805L11.4326 54.9371H11.4812C11.5429 55.3622 11.5737 55.595 11.5737 55.6354H11.6708V55.5444C11.8059 55.5444 11.8852 55.7612 11.9087 56.1951C11.9529 56.1951 12.0162 56.4134 12.0983 56.85C12.1308 56.85 12.1469 56.866 12.1469 56.8978C12.1469 56.9295 12.1308 56.9455 12.0983 56.9455L12.2396 57.9258C12.2073 58.0937 12.191 58.2338 12.191 58.3466V58.8584C12.191 58.9308 12.1763 58.9945 12.1469 59.0494C12.1763 59.1072 12.191 59.1534 12.191 59.1882C12.0764 60.3391 11.9823 60.9148 11.9087 60.9148L11.9573 61.2444V62.0858C11.9573 62.1551 11.9412 62.2174 11.9087 62.2723C11.9412 62.3274 11.9573 62.3894 11.9573 62.459V62.5066C11.9573 62.5675 11.925 62.5977 11.8604 62.5977C11.8604 62.566 11.8441 62.55 11.8118 62.55V62.5977L11.9087 62.7365V62.832L11.7193 64.3285L11.4812 64.7015C11.3753 64.7015 11.2797 64.7477 11.1944 64.8404C11.1944 64.872 11.2105 64.888 11.243 64.888L11.1944 65.3567V65.4477Z" fill="black"/>
<path d="M7.18983 60.2915H7.14123C7.09721 60.2915 7.05014 60.2453 7 60.1527V60.0617C7 60.0297 7.01627 60.0139 7.04861 60.0139L7 59.9183C7.06468 59.8171 7.09721 59.7245 7.09721 59.6406H7.18983V59.6839L7.14123 59.9183C7.17376 60.0398 7.18983 60.1644 7.18983 60.2915Z" fill="black"/>
<path d="M47.6234 57.3545C47.6595 57.3695 47.7059 57.2749 47.7136 57.2525C47.7136 57.2325 47.8038 57.3222 47.8141 57.2923C47.8476 57.1803 47.8888 57.0209 47.912 56.9015C47.912 56.9015 47.8321 56.8766 47.8811 56.8492C47.9386 56.7961 47.9735 56.7242 47.979 56.6475C47.979 56.6102 47.9249 56.5554 47.9352 56.543C47.9455 56.5305 48.01 56.5878 48.0332 56.5878C48.0553 56.4702 48.0899 56.3551 48.1362 56.2443V56.2443C48.1362 56.2094 48.0847 56.1671 48.0898 56.1447C48.095 56.1223 48.0898 56.0999 48.0898 56.0949C48.0898 56.0899 48.162 56.1372 48.1852 56.1397C48.248 55.819 48.3518 55.5071 48.4944 55.2112C48.4944 55.2112 48.4944 55.2112 48.4944 55.2112C48.4944 55.2112 48.4944 55.1838 48.4944 55.1539C48.4944 55.124 48.4249 55.1539 48.3991 55.1539C48.1478 55.645 47.9575 56.1631 47.8321 56.6973V56.6973C47.8321 56.7322 47.8837 56.7596 47.8811 56.7944C47.6621 56.8766 47.6234 57.0956 47.5719 57.2923C47.5719 57.2923 47.5719 57.3197 47.5719 57.3421C47.5719 57.3645 47.5899 57.3421 47.6234 57.3545ZM40.3305 68.3228C40.3615 68.3228 40.3151 68.2805 40.3305 68.2805C40.3769 68.2829 40.4233 68.2829 40.4697 68.2805C40.7454 68.2158 40.9567 68.1411 41.0624 67.8772C41.2362 67.786 41.3726 67.6402 41.4489 67.464C41.4644 67.4316 41.4 67.3992 41.4077 67.3669C41.8587 66.8192 42.2633 66.3114 42.3999 65.6094C42.387 65.582 42.3045 65.577 42.3071 65.5397C42.3298 65.4322 42.3608 65.3265 42.3999 65.2235C42.6106 64.616 42.7827 63.9967 42.9153 63.3689C42.9153 63.3415 42.9153 63.344 42.9153 63.3689C42.941 63.2395 42.8972 63.344 42.9153 63.237C43.1008 63.2046 43.0673 62.9507 43.0905 62.8237C43.0905 62.7839 43.1781 62.8561 43.191 62.8237C43.3662 63.6925 43.3946 64.6161 43.928 65.3579C44.0118 65.7789 44.2451 66.1584 44.5877 66.4309C44.5465 66.6051 44.9098 67.2773 44.964 67.3519C45.098 67.5088 45.0696 67.3519 45.1418 67.4042C45.2139 67.4565 45.2242 67.3345 45.25 67.3818C45.3312 67.553 45.4488 67.7057 45.5953 67.8299C45.6108 67.8424 45.5799 67.8299 45.5953 67.8299C45.6108 67.8299 45.6108 67.8299 45.6443 67.8299C45.6778 67.8299 45.6443 67.7502 45.6572 67.7403C45.6876 67.7328 45.7195 67.7328 45.7499 67.7403C45.7757 67.7403 45.7267 67.7702 45.7499 67.7926C45.8184 67.8518 45.8814 67.9168 45.9381 67.9867C45.9638 68.0216 45.9226 67.9643 45.9381 67.9867C45.9535 68.0091 46.0695 67.9867 46.0875 67.9867C46.1056 67.9867 46.1004 67.9519 46.0875 67.9469C46.0746 67.9419 46.0025 67.9469 45.9973 67.9469C45.9922 67.9469 45.9973 67.8623 45.9973 67.8523C46.0294 67.8442 46.0632 67.8442 46.0953 67.8523C46.1288 67.8523 46.2086 67.9419 46.2421 67.9494C46.2756 67.9569 46.3246 67.9793 46.3401 67.9494C46.3913 67.8845 46.4571 67.8318 46.5326 67.7951C46.608 67.7584 46.6911 67.7388 46.7756 67.7378C46.9468 67.5422 47.0631 67.3073 47.1132 67.0557C47.5913 66.0424 47.9675 64.987 48.2367 63.9041C48.2367 63.9041 48.2548 63.9041 48.2367 63.9041C48.3166 63.5755 48.1697 63.6154 48.2625 63.1573C48.3553 62.6993 48.5769 61.6263 48.6233 61.0563C48.6233 60.9791 48.6233 61.0164 48.6233 61.0563C48.6387 60.8571 48.6233 61.0413 48.6233 60.9766C48.6233 60.9119 48.5924 61.004 48.5795 60.9617C48.5537 61.0314 48.5537 61.126 48.5228 61.1857C48.4919 61.2455 48.4429 61.1857 48.4197 61.1857C48.5176 60.1899 48.6774 59.1942 48.8397 58.1984C48.8397 58.1686 48.8397 58.1586 48.8397 58.1511C48.7547 58.1163 48.613 58.3702 48.582 58.4001C48.5511 58.4299 48.6052 58.3578 48.582 58.4001C48.5589 58.4424 48.5047 58.3826 48.479 58.4125C48.479 58.2881 48.5176 58.2557 48.5279 58.1138C48.5382 57.9719 48.5279 57.7155 48.5279 57.5587C48.5279 57.5288 48.6207 57.5736 48.6181 57.5587C48.6129 57.4742 48.5974 57.3906 48.5717 57.3097C48.5589 57.2898 48.497 57.2873 48.4687 57.3097C48.4461 57.3998 48.4297 57.4913 48.4197 57.5836C48.4017 57.6234 48.4197 57.5836 48.4197 57.5836C48.4197 57.5836 48.3295 57.5188 48.3218 57.5487C48.2556 57.8933 48.1696 58.234 48.0641 58.5694V58.5694C48.0641 58.6067 48.1182 58.6415 48.113 58.6814C47.9198 58.8034 47.9326 59.0921 47.894 59.2788C47.894 59.3137 47.8167 59.2241 47.8012 59.234C47.7858 59.244 47.7574 59.2166 47.7445 59.234C47.6703 59.4092 47.6176 59.5922 47.5873 59.7792V59.7792C47.5873 59.8215 47.6337 59.8464 47.6337 59.8962C47.6082 59.9809 47.5559 60.0557 47.4843 60.1103C47.443 60.1103 47.4843 60.1103 47.4843 60.1103C47.4843 60.1103 47.3941 60.1277 47.376 60.1103C47.358 60.0929 47.376 60.0032 47.376 59.9435C47.3957 59.8613 47.4112 59.7782 47.4224 59.6946C47.4224 59.6746 47.3683 59.6622 47.376 59.6373C47.3837 59.6124 47.376 59.6522 47.376 59.6373C47.376 59.6224 47.425 59.6373 47.4276 59.6373C47.5976 58.878 47.7677 58.1287 47.8605 57.357C47.8141 57.357 47.693 57.3446 47.6672 57.357C47.6414 57.3695 47.742 57.4143 47.6956 57.4516C47.6492 57.489 47.6054 57.3944 47.5384 57.4168C47.4714 57.4392 47.443 57.6657 47.4482 57.7205C47.4533 57.7752 47.4482 57.7205 47.4482 57.7205C47.4482 57.7727 47.4868 57.9694 47.492 58.0391C47.4971 58.1088 47.492 58.1536 47.492 58.2084C47.2497 58.42 47.2601 58.7909 47.2343 59.0822C47.2343 59.1419 47.291 59.1344 47.2755 59.2017C47.2601 59.2689 47.1441 59.3684 47.0874 59.4182C47.0307 59.468 47.1235 59.5303 47.1209 59.5751C47.1183 59.6199 47.1209 59.5751 47.1209 59.5751C47.0909 59.6512 47.0556 59.7252 47.0152 59.7966C47.0152 59.8315 47.09 59.8962 47.0565 59.9062C46.9689 59.936 46.9534 60.1227 46.9585 60.175C46.9637 60.2273 46.9585 60.175 46.9585 60.175C46.9585 60.2273 47.0101 60.2572 46.9972 60.287C46.9843 60.3169 46.9817 60.287 46.9328 60.287C46.9035 60.3144 46.8804 60.3473 46.8648 60.3838C46.8493 60.4202 46.8417 60.4593 46.8426 60.4986V60.4986C46.8426 60.5235 46.7601 60.4986 46.7369 60.4986C46.7168 60.4978 46.6972 60.4927 46.6793 60.4836C46.6615 60.4746 46.646 60.4619 46.6338 60.4464C46.6081 60.4115 46.6751 60.3219 46.688 60.287C46.7008 60.2522 46.688 60.3094 46.688 60.287C46.688 60.2646 46.6313 60.2198 46.6442 60.1775C46.657 60.1352 46.6828 60.1128 46.6957 60.063C46.7086 60.0132 46.6416 59.9634 46.657 59.9062C46.696 59.8025 46.7296 59.697 46.7575 59.59C46.7575 59.5327 46.7575 59.6249 46.7575 59.59C46.7641 59.5538 46.7641 59.5167 46.7575 59.4805C46.7575 59.4431 46.724 59.4954 46.7086 59.4805C46.3607 60.7824 46.0308 62.0869 45.6984 63.3938C45.719 63.4336 45.7396 63.471 45.7577 63.5108C45.5232 63.6502 45.5154 63.8593 45.5154 64.1058C45.4871 64.0784 45.4819 64.1456 45.4562 64.0834C45.4304 64.0211 45.317 63.929 45.299 63.8519C45.2603 63.6776 45.299 63.4809 45.2706 63.3017C45.2706 63.2594 45.3325 63.2345 45.317 63.1971C45.268 63.1001 45.3505 63.3291 45.2345 63.1324C45.0985 62.8168 45.0276 62.4785 45.0258 62.1367C45.0438 62.1367 45.0748 62.0993 45.0748 62.0894C45.0748 62.0794 45.0748 62.0894 45.0748 62.0894C44.8403 60.9642 44.6315 59.8489 44.4151 58.7137C44.3996 58.7137 44.3249 58.7785 44.3197 58.7561C44.2901 58.6713 44.2557 58.5882 44.2166 58.5071C44.2166 58.4922 44.2604 58.4623 44.2604 58.4499C44.2604 58.3229 44.2604 58.2009 44.2604 58.0765C44.1316 58.0964 44.1084 57.8873 44.1058 57.8275C44.1058 57.5935 44.1058 57.3944 44.1058 57.1678C44.0234 57.1803 44.0053 57.0608 44.0002 57.0309C44.0002 57.016 43.9151 57.006 43.8997 57.0309C43.8842 57.0558 43.9177 57.1106 43.8301 57.118C43.7764 57.1302 43.7259 57.1528 43.6815 57.1844C43.6372 57.2161 43.6001 57.2562 43.5724 57.3023V57.3023L43.3147 57.245C43.3353 57.1703 43.3508 57.0807 43.3688 57.011C43.3868 56.9413 43.3688 56.8691 43.3688 56.8094C43.3688 56.7496 43.2503 56.66 43.2322 56.6699C43.1069 56.772 42.9703 56.8605 42.8251 56.9338C42.7246 56.9537 42.8251 56.9338 42.8251 56.9338C42.7246 56.9537 42.7787 56.8766 42.6756 56.8915C42.5725 56.9064 42.3612 57.0483 42.338 57.1778C42.3147 57.343 42.3147 57.5105 42.338 57.6757C42.3741 58.0416 42.4875 58.4524 42.4952 58.8332C42.5033 59.3238 42.4408 59.8131 42.3097 60.287C42.2865 60.3717 42.3689 60.4663 42.3457 60.536C42.3457 60.5634 42.271 60.536 42.253 60.536C42.1017 61.096 41.9193 61.6478 41.7066 62.1889V62.1889L41.7633 62.281C41.5881 62.9084 41.3407 63.4859 41.1217 64.1033C40.9613 64.6663 40.7118 65.2021 40.3821 65.6915V65.6915C40.3821 65.6915 40.3434 65.6915 40.3408 65.6915C40.323 65.2591 40.26 64.8296 40.1527 64.4095V64.4095C40.1862 64.4095 40.1733 64.4344 40.212 64.4095C40.2506 64.3846 40.1708 64.2502 40.1553 64.2153C40.1398 64.1805 40.1553 64.2377 40.1553 64.2153C40.1553 64.1929 40.2017 64.1406 40.1914 64.1083C40.1811 64.0759 40.1476 64.0286 40.1424 64.0062C40.1231 63.7676 40.1231 63.5279 40.1424 63.2892C40.1424 63.2619 40.1424 63.2594 40.1424 63.2892C40.1424 63.0976 40.1141 63.0552 40.1038 62.8835C39.8461 62.5325 39.8022 62.0147 39.7224 61.6064C39.6889 61.4371 39.7533 61.3575 39.6914 61.2131C39.6296 61.0687 39.5471 60.8671 39.4956 60.7152C39.301 60.1948 39.0532 59.6945 38.756 59.2216C38.5318 58.883 38.6323 58.9527 38.3617 58.7511C38.3952 58.5021 37.9314 57.9619 37.7664 57.8897C37.6015 57.8176 37.7819 57.8748 37.7664 57.8897C37.5989 57.8176 37.6917 57.9993 37.5783 57.9719C37.5938 57.8773 37.4392 57.7752 37.3721 57.7553C37.3051 57.7354 37.3721 57.7553 37.3721 57.7553C37.3077 57.7379 37.1686 57.7827 37.1145 57.7727C37.1299 57.8698 37.0603 57.9097 36.9882 57.937C36.916 57.9644 36.9289 57.8624 36.916 57.8499C36.9031 57.8375 36.9341 57.8673 36.916 57.8499C36.898 57.8325 36.8877 57.8499 36.8593 57.8499C36.831 57.8499 36.7537 57.9346 36.7227 57.952C36.6918 57.9694 36.6944 57.952 36.6609 57.952C36.6274 57.952 36.5604 57.8972 36.5552 57.8673C36.5501 57.8375 36.5552 57.8848 36.5552 57.8673C36.5552 57.8499 36.6068 57.7777 36.5862 57.7628C36.5375 57.7551 36.4877 57.7603 36.4419 57.7777C36.3926 57.8127 36.3453 57.8501 36.3001 57.8897C36.3001 57.8051 36.3156 57.7205 36.3207 57.6408C36.1534 57.6938 35.999 57.7794 35.8672 57.8922V57.8922C35.8878 57.9868 35.8672 57.9943 35.8981 58.1138C35.9308 58.2744 35.9854 58.4301 36.0605 58.5768C36.3896 59.063 36.6578 59.5853 36.8593 60.1327C37.1855 60.4893 37.4187 60.9161 37.5397 61.3774C37.56 61.5252 37.5711 61.6739 37.5732 61.823C37.6015 61.9898 37.6788 62.0421 37.7304 62.184C37.7561 62.2561 37.6943 62.3234 37.7304 62.413C38.0152 63.3468 38.2246 64.3007 38.3566 65.2658C38.4648 66.1769 38.4931 66.5329 38.8024 67.2872C38.8024 67.2673 38.8024 67.2872 38.8024 67.2872C38.8024 67.2872 38.8694 67.2872 38.8951 67.2872C38.9209 67.2872 38.8797 67.1876 38.908 67.1951C38.9364 67.2026 38.939 67.1503 39.0343 67.215C39.1627 67.3656 39.2512 67.5442 39.292 67.7353C39.6316 67.913 39.9595 68.1109 40.2738 68.3278V68.3278C40.328 68.3477 40.297 68.3128 40.3305 68.3228ZM44.5156 58.1412C44.5156 57.8176 44.5156 57.5039 44.5156 57.1778C44.4279 57.2425 44.3944 57.1628 44.2914 57.2525C44.1925 57.4451 44.1609 57.6634 44.2012 57.8748V57.8748C44.2012 57.8897 44.1857 57.9122 44.2012 57.9196C44.2166 57.9271 44.2785 57.9395 44.2991 57.9196C44.3197 57.8997 44.3377 57.7454 44.3506 57.7279C44.3635 57.7105 44.3944 57.713 44.397 57.7279C44.4125 57.8474 44.397 58.0167 44.397 58.1337C44.4228 58.1561 44.5001 58.1163 44.5156 58.1412ZM42.6498 60.5459C42.5983 60.5584 42.472 60.5011 42.3921 60.4986C42.474 60.2605 42.5327 60.0155 42.5674 59.7668V59.7668C42.5828 59.7941 42.6086 59.7269 42.6137 59.7668C42.6174 59.8107 42.6174 59.8548 42.6137 59.8987C42.6137 59.9933 42.5725 60.2597 42.5699 60.3791C42.5699 60.4065 42.6601 60.3791 42.6601 60.3791C42.6601 60.3791 42.6807 60.5335 42.6498 60.541V60.5459ZM42.1937 63.4411C42.1937 63.344 42.1782 63.237 42.1731 63.1424C42.1679 63.0478 42.2555 63.0776 42.3019 63.0552C42.3483 63.0328 42.2555 63.0154 42.2607 62.998C42.2865 62.9183 42.3612 62.7291 42.3251 62.6545C42.289 62.5798 42.1937 62.4877 42.1705 62.4329C42.1473 62.3781 42.1834 62.4603 42.1705 62.4329C42.1576 62.4055 42.0958 62.4329 42.0752 62.4155C42.0545 62.398 42.0752 62.5026 42.0752 62.5001C42.0752 62.4976 41.9824 62.5001 41.9798 62.4877C41.9772 62.4752 41.9411 62.3856 41.9798 62.3582C42.0729 62.2894 42.1369 62.1904 42.1602 62.0794C42.2318 61.7562 42.3274 61.4384 42.4462 61.1285V61.1285C42.4643 61.1285 42.5364 61.1932 42.5416 61.1708C42.5335 61.097 42.5206 61.0239 42.5029 60.9517C42.5029 60.9119 42.4875 60.9144 42.5029 60.892C42.5184 60.8696 42.5751 60.9044 42.5906 60.892C42.606 60.8795 42.5906 60.8671 42.5906 60.8447C42.5906 60.8223 42.5287 60.775 42.5545 60.7451C42.5802 60.7152 42.5854 60.7774 42.6034 60.7924C42.6215 60.8073 42.6472 60.7575 42.6498 60.7476C42.6524 60.7376 42.6498 60.7476 42.6498 60.7476H42.6962C42.6962 60.7476 42.6524 60.8173 42.6498 60.8472C42.6461 60.8935 42.6461 60.9402 42.6498 60.9866C42.6524 60.9902 42.6559 60.9931 42.6599 60.9951C42.664 60.9971 42.6685 60.9982 42.673 60.9982C42.6776 60.9982 42.682 60.9971 42.6861 60.9951C42.6901 60.9931 42.6936 60.9902 42.6962 60.9866C42.699 60.9551 42.699 60.9234 42.6962 60.892C42.8818 61.009 42.8457 61.2479 42.8405 61.4396C42.8405 61.5268 42.8405 61.6438 42.74 61.6711C42.7401 62.0098 42.6514 62.3429 42.4823 62.6395C42.4823 62.9183 42.5132 63.3117 42.1911 63.4287L42.1937 63.4411ZM47.3219 61.9997C47.3039 62.0545 47.2832 62.0122 47.2652 61.9997C47.2382 61.952 47.2216 61.8995 47.2162 61.8454C47.2162 61.8155 47.2601 61.7583 47.2678 61.7259C47.2754 61.5321 47.2581 61.3381 47.2162 61.1484C47.2162 61.0438 47.2162 61.1484 47.2162 61.1484C47.2162 61.0438 47.1879 61.1285 47.2162 61.0612C47.2446 60.994 47.3116 61.1633 47.309 61.1782C47.3064 61.1932 47.309 61.1583 47.309 61.1782C47.3077 61.1973 47.3077 61.2164 47.309 61.2355C47.309 61.2579 47.2369 61.3176 47.2652 61.345C47.3471 61.4775 47.3815 61.6324 47.3631 61.7857C47.3631 61.7857 47.3631 61.7857 47.3631 61.7857C47.3577 61.8583 47.3439 61.9301 47.3219 61.9997ZM41.6164 64.631C41.5855 64.6061 41.4928 64.631 41.4747 64.6036C41.4598 64.5532 41.4598 64.4997 41.4747 64.4493C41.4876 64.3796 41.5881 64.2526 41.601 64.163C41.601 64.1307 41.5598 64.1008 41.552 64.0535C41.5443 64.0062 41.5829 64.0535 41.5958 64.0012C41.686 63.6602 41.6783 63.1548 42.0082 62.9158C42.0236 63.0279 42.0752 63.0627 42.0752 63.1971C42.0407 63.3538 41.9493 63.4933 41.8175 63.5905C41.802 63.5905 41.869 63.7348 41.8741 63.7423C41.8768 63.7588 41.8768 63.7756 41.8741 63.7921C41.8071 64.0809 41.6809 64.3423 41.6164 64.631V64.631Z" fill="#FFA100"/>
<path d="M57.6773 61.2921C57.6773 61.1975 57.4196 60.8142 56.9042 60.147C56.7573 60.147 56.6027 60.03 56.4403 59.801H56.3888C56.3878 59.8701 56.4065 59.9381 56.4429 59.9976V60.0499L56.2316 59.9479C55.5177 59.45 55.09 59.201 54.9431 59.201C54.5294 59.1283 54.1296 58.9948 53.7577 58.8052L53.6572 58.855C53.4295 58.8043 53.2056 58.7386 52.9871 58.6583C52.846 58.6669 52.7073 58.6989 52.5774 58.7529C52.5774 58.7231 52.5594 58.7081 52.5233 58.7081L52.781 58.3571V58.1082H52.7294C52.5607 57.9084 52.3486 57.7469 52.1082 57.6351C51.8677 57.5232 51.6047 57.4638 51.3379 57.4609C51.1936 57.4602 51.0516 57.4954 50.9256 57.563C50.9256 57.5282 50.9101 57.5107 50.874 57.5107H50.6679V57.6128C50.405 57.6128 50.0099 58.3256 49.4824 59.7512C49.3811 59.7512 49.2789 60.8299 49.1758 62.9874C49.2214 63.0813 49.2401 63.1853 49.2299 63.2886C49.2309 63.3577 49.2122 63.4258 49.1758 63.4853C49.3484 64.1076 49.4335 64.4387 49.4335 64.481C49.4262 64.4803 49.4188 64.4811 49.4118 64.4834C49.4049 64.4858 49.3986 64.4896 49.3934 64.4946C49.3882 64.4996 49.3842 64.5057 49.3818 64.5124C49.3794 64.5191 49.3785 64.5263 49.3794 64.5333C49.5244 65.1072 49.7139 65.6697 49.9463 66.2162L50.052 66.1639C50.2195 66.4906 50.4116 66.8051 50.6266 67.1049C50.7588 67.2595 50.9153 67.3931 51.0905 67.5007C51.7347 68.133 52.379 68.4491 53.0516 68.4491C53.0516 68.3894 53.2062 68.3421 53.5154 68.2998C54.3143 68.2998 54.7764 68.0849 54.9019 67.655C55.6234 67.1148 55.9868 66.7837 55.9868 66.6593C56.1079 66.5995 56.314 66.3356 56.6027 65.8651C57.1868 64.7034 57.4788 64.0562 57.4788 63.9234L57.5845 63.9707C57.5783 63.9184 57.5597 63.8682 57.5304 63.8238C57.5816 63.6617 57.6153 63.4948 57.6309 63.326H57.6773V63.428C57.7477 63.428 57.8508 63.1467 57.9865 62.5841C57.9377 62.143 57.8338 61.7092 57.6773 61.2921V61.2921ZM52.2244 66.714H51.9177C51.8739 66.714 51.8043 66.6145 51.7115 66.4153C51.3662 65.2702 51.1961 64.4412 51.1961 63.9259H51.0905L51.142 63.677V63.6197L50.9359 63.2737L50.99 62.9725L50.9359 62.7235C51.008 62.7235 51.0415 62.6389 51.0415 62.4746C51.0415 62.4422 51.0261 62.4273 50.99 62.4273C50.99 62.2605 50.9204 62.1784 50.7838 62.1784C50.8056 61.958 50.8954 61.7489 51.0415 61.5784C51.0415 61.5212 51.008 61.4888 50.9359 61.4813C51.0309 61.2058 51.0999 60.9225 51.142 60.6349C51.1351 60.6357 51.128 60.635 51.1214 60.6328C51.1147 60.6306 51.1087 60.6269 51.1037 60.6221C51.0988 60.6173 51.095 60.6115 51.0927 60.6051C51.0904 60.5987 51.0897 60.5919 51.0905 60.5851C51.3133 60.3354 51.6251 60.1755 51.9641 60.137C52.0054 60.0251 52.0811 59.928 52.181 59.8586C52.2809 59.7892 52.4003 59.7509 52.5233 59.7487H52.781V59.801C52.8704 59.8092 52.9603 59.7909 53.0387 59.7487C53.1679 59.7727 53.2902 59.8237 53.3969 59.8981L53.5025 59.8458C53.7549 60.0301 53.9942 60.2306 54.2189 60.4457L54.3246 60.3959C54.3246 60.4756 54.4792 60.6573 54.7885 60.9411C55.1991 61.527 55.4044 61.9916 55.4044 62.3352C55.3236 63.2795 54.8082 64.3582 53.8582 65.5714C53.3761 66.0294 52.8253 66.4147 52.2244 66.714V66.714ZM55.1106 64.9715L55.0049 64.9192H54.9019C54.9019 65.0536 54.8683 65.1183 54.8013 65.1183C54.7189 65.3523 54.6493 65.4693 54.5952 65.4693V65.3623H54.4895V65.4644H54.389V65.4146C54.7653 65.0362 54.9534 64.8022 54.9534 64.7175H55.1003L55.1106 64.9715ZM56.1929 63.3782V63.428H56.0873C56.0306 63.7616 55.9275 63.9259 55.7806 63.9259V64.1176H55.8734V64.2147C55.7016 64.2246 55.547 64.491 55.4095 65.0138H55.2034V64.964L55.5616 64.4138V64.267L55.5152 64.1699C55.8914 63.5251 56.0795 63.1442 56.0795 63.0223H56.1311C56.1372 63.0754 56.1557 63.1264 56.1852 63.1716L56.0795 63.3708L56.1929 63.3782Z" fill="#FFA100"/>
<path d="M59.3516 68.845C59.4588 68.8615 59.6344 68.8992 59.6856 68.7743C59.7636 68.7743 59.827 68.805 59.9074 68.812C59.9878 68.8191 60.0195 68.7202 60.0317 68.6566C60.5802 68.4211 60.5656 67.6134 60.5461 67.1353C60.5461 67.1141 60.5144 66.987 60.512 66.9658C60.4925 66.8103 60.5266 66.5113 60.6777 66.4594C60.7387 66.4383 60.6436 66.4265 60.6485 66.4076C60.6667 66.3683 60.6805 66.3273 60.6899 66.2852C60.6899 66.2522 60.6607 66.2216 60.6461 66.1933C60.6656 65.9037 60.6924 65.6117 60.6997 65.3244C60.6997 65.2938 60.629 65.3244 60.6631 65.2631C60.8021 64.9923 60.9264 64.3212 60.7923 64.0244C60.9198 63.6505 61.1294 63.3075 61.4066 63.0189C61.5822 62.8187 61.7065 62.6586 62.0063 62.3454C62.3062 62.0322 63.1009 61.2715 63.4203 60.9042C63.664 60.6145 63.9517 60.2825 64.1077 60.0917C64.3515 59.7973 64.332 59.6513 64.5953 59.4535C64.5788 59.4244 64.5657 59.3936 64.5563 59.3617H64.6465C64.6777 59.2216 64.7448 59.0912 64.8415 58.9825C64.8951 58.9519 64.8098 58.9496 64.8147 58.9307C64.8196 58.9119 64.8147 58.9048 64.8147 58.8907C64.8537 58.9237 64.8951 58.9543 64.9341 58.9919C64.8437 59.1037 64.7736 59.2295 64.7269 59.364C64.7272 59.4428 64.7329 59.5215 64.744 59.5995C64.7127 59.6215 64.6834 59.6459 64.6562 59.6725C64.588 59.7549 64.5173 59.908 64.4124 59.908C64.2613 60.0682 64.1126 60.2283 63.9566 60.379C63.9566 60.379 63.9566 60.4096 63.9566 60.419C63.9566 60.4285 63.9858 60.419 63.9931 60.419C64.0681 60.4054 64.1372 60.3709 64.1922 60.3199C64.2472 60.2689 64.2856 60.2035 64.3027 60.1317L64.432 60.1459C64.432 60.1459 64.432 60.1835 64.432 60.1859C64.432 60.1883 64.3783 60.1576 64.3466 60.1859C64.3149 60.2142 64.3832 60.2236 64.3832 60.2354C64.3832 60.2825 64.3393 60.3861 64.2735 60.3978C64.1955 60.4826 64.0127 60.704 63.9639 60.7723C63.8298 60.9465 63.7201 61.1396 63.53 61.1773C63.5239 61.1801 63.5172 61.1815 63.5105 61.1815C63.5037 61.1815 63.4971 61.1801 63.491 61.1773C63.4611 61.1623 63.4326 61.145 63.4056 61.1255C63.4056 61.1797 63.3861 61.2244 63.3788 61.2786C63.3715 61.3328 63.4032 61.3563 63.4544 61.3704C63.3751 61.4102 63.3041 61.4637 63.2447 61.5282C63.196 61.7637 62.9327 61.8979 62.8084 62.0322C62.7216 62.1138 62.6231 62.1828 62.5158 62.237C62.4476 62.2606 62.489 62.3265 62.4842 62.3454C62.4622 62.4302 62.4573 62.5079 62.3696 62.5196C62.2776 62.5433 62.1914 62.5845 62.1161 62.6407C62.0407 62.6969 61.9777 62.767 61.9308 62.847C61.9454 62.8776 61.9552 62.9058 61.9698 62.9365L61.882 62.9153C61.7313 63.1898 61.5627 63.4549 61.3774 63.7089V63.836L61.453 63.8525C61.5724 63.7842 61.5334 63.6759 61.6455 63.5958C61.9186 63.4004 62.077 63.099 62.3574 62.8046C62.5353 62.6162 62.9376 62.2465 63.0351 61.9309C63.0511 61.9267 63.0679 61.9267 63.0838 61.9309C63.1131 61.945 63.135 61.9662 63.1643 61.9827C63.5227 61.6153 63.8737 61.2433 64.2101 60.8571L64.2467 60.6027H64.3344C64.3856 60.5439 64.449 60.4591 64.5343 60.4544C64.5343 60.3837 64.5343 60.3107 64.5173 60.2377C64.5459 60.2401 64.5744 60.2441 64.6026 60.2495C64.7854 60.014 64.7927 59.8444 65.0463 59.6184C65.4656 59.2463 65.8142 58.5374 66.0653 58.0099C66.0653 57.9935 66.0165 57.9464 65.9848 57.9605C66.1572 57.6777 66.2699 57.3648 66.3164 57.0397C66.2018 57.0067 66.1213 56.8937 66.0214 56.8325C66.0063 56.8278 65.9901 56.8278 65.9751 56.8325C65.9507 56.8325 65.9093 56.8772 65.8824 56.8654C65.8556 56.8537 65.8824 56.8136 65.841 56.8183C65.8066 56.825 65.7731 56.8353 65.741 56.849C65.741 56.8207 65.741 56.7924 65.741 56.7618L65.88 56.7783C65.8871 56.737 65.892 56.6953 65.8946 56.6535C65.8312 56.6747 65.6728 56.7289 65.624 56.6982C65.5753 56.6676 65.624 56.6676 65.624 56.6111C65.624 56.5546 65.7898 56.5004 65.8678 56.5216C65.8678 56.4887 65.8678 56.4627 65.8678 56.4321H65.7752C65.593 56.5589 65.3811 56.6399 65.1584 56.6676C65.1072 56.6676 65.1584 56.6182 65.1097 56.6299C65.2047 56.5075 65.2925 56.3945 65.3851 56.2673C65.3705 56.2673 65.3559 56.2673 65.3412 56.2673L65.1438 56.3733C65.1438 56.3309 65.1438 56.2885 65.1609 56.2461C64.7574 56.3313 64.375 56.4912 64.0346 56.7171C63.8371 56.849 63.4325 57.2375 63.3033 57.3482C62.9083 57.692 62.3476 58.3373 62.1209 58.5798C61.7187 59.0108 61.4261 59.0626 61.2287 59.5218C60.8429 59.8141 60.5304 60.1869 60.3145 60.6121C60.2264 60.5066 60.1707 60.3793 60.1536 60.2448C60.0805 59.8209 60.0927 59.0814 59.8075 58.7164C59.7221 58.4809 59.6124 57.9793 59.3345 57.8804C59.2833 57.8616 59.276 57.9063 59.2321 57.904C59.2321 57.831 59.1639 57.6261 59.0883 57.6072C59.052 57.5965 59.0141 57.5917 58.9762 57.5931C58.8982 57.5931 58.7324 57.5931 58.6422 57.5931C58.6422 57.5696 58.6422 57.5248 58.6422 57.506C58.6422 57.4871 58.6129 57.506 58.6007 57.506C58.5203 57.5531 58.452 57.6214 58.357 57.6685C58.357 57.6685 58.357 57.6685 58.3058 57.6685C58.2546 57.6685 58.2107 57.5531 58.2375 57.4919C58.1619 57.4306 58.101 57.367 58.0279 57.3082C58.0279 57.3082 58.001 57.3082 57.9815 57.3082C57.9758 57.3075 57.97 57.308 57.9645 57.3097C57.959 57.3114 57.954 57.3143 57.9498 57.3181C57.9456 57.322 57.9423 57.3267 57.9402 57.3319C57.9381 57.3371 57.9373 57.3426 57.9377 57.3482C57.6939 57.3953 57.4501 57.4589 57.3867 57.7226C57.5107 57.8931 57.6223 58.0718 57.7207 58.2572C58.1424 59.5147 58.6032 62.5997 58.6495 63.5511C58.7324 65.1996 58.6495 66.2828 58.6495 67.2884C58.6495 68.2939 58.8762 67.969 58.9396 68.7225C58.9396 68.7414 58.9396 68.7225 58.9396 68.7555C59.0427 68.7495 59.1461 68.7495 59.2492 68.7555C59.3565 68.7461 59.3467 68.7814 59.3516 68.845ZM61.2823 60.3366C61.492 59.656 62.1575 59.1073 62.6304 58.5893C62.6304 58.5893 62.6304 58.5539 62.6304 58.5492C62.6153 58.5452 62.5993 58.5452 62.5841 58.5492C62.5548 58.5492 62.5207 58.5704 62.489 58.5751C62.489 58.5422 62.4744 58.4715 62.5037 58.4503C62.5462 58.4311 62.594 58.4254 62.6402 58.4338C62.6548 58.4338 62.6597 58.4833 62.6841 58.4809C62.7084 58.4786 62.7182 58.4927 62.7304 58.4809C62.8644 58.4103 62.7133 58.2784 62.9205 58.2454C63.0646 58.1859 63.1936 58.097 63.2988 57.9848C63.404 57.8727 63.4829 57.7398 63.53 57.5955C63.53 57.5955 63.53 57.5601 63.53 57.5554C63.53 57.5507 63.4666 57.5554 63.4471 57.5413C63.4276 57.5272 63.4471 57.513 63.4471 57.5036L63.6689 57.4871C63.6562 57.4573 63.6456 57.4266 63.6372 57.3953C63.6348 57.3679 63.6348 57.3403 63.6372 57.3129L63.7177 57.3623C63.7177 57.3411 63.7177 57.2987 63.7177 57.2823C63.7177 57.2658 63.7494 57.2823 63.7616 57.2823C63.7737 57.2823 63.8176 57.3199 63.8469 57.3341C63.8812 57.1911 63.9677 57.0648 64.0907 56.9785C64.1199 56.995 64.1467 57.0162 64.1784 57.0303C64.1784 56.9667 64.2637 56.7948 64.3198 56.8513C64.3759 56.9078 64.2052 57.035 64.176 57.068C64.2033 57.074 64.231 57.0787 64.2589 57.0821C64.1004 57.5696 63.5543 58.0241 63.2228 58.3773C62.6499 59.0037 61.7796 59.6584 61.3506 60.3696L61.2823 60.3366ZM64.2516 58.9543C64.193 58.9354 64.2516 58.8295 64.1955 58.8012C64.2735 58.6175 64.3637 58.2996 64.6026 58.2831C64.6245 58.2831 64.6416 58.269 64.6562 58.2831C64.6709 58.2972 64.7074 58.4126 64.6855 58.4362C64.6635 58.4597 64.5709 58.4856 64.5831 58.5422C64.5953 58.5987 64.6197 58.5893 64.627 58.6364C64.6343 58.6835 64.5026 58.6929 64.4685 58.6999C64.4515 58.7941 64.3418 58.9755 64.2516 58.9543ZM60.6119 63.8525C60.5851 63.8525 60.5607 63.8125 60.5315 63.7984C60.6475 63.6464 60.7403 63.479 60.8069 63.3015C60.9162 63.1062 61.0705 62.9378 61.2579 62.8093C61.275 62.6774 61.3457 62.6468 61.4749 62.6704C61.4749 62.7057 61.4749 62.7434 61.4749 62.7787C61.4481 62.7787 61.4237 62.7646 61.3896 62.7598C61.3316 62.9134 61.2333 63.0497 61.1044 63.1555C60.9717 63.2727 60.8855 63.4309 60.8606 63.6029C60.7265 63.6335 60.7119 63.7466 60.7094 63.8667C60.6765 63.8657 60.6437 63.861 60.6119 63.8525V63.8525ZM59.8343 66.5866L59.7368 66.5725C59.7368 66.5466 59.7806 66.5277 59.7831 66.4995C59.7892 66.4455 59.7892 66.391 59.7831 66.337C59.7831 66.3111 59.727 66.2734 59.7392 66.2475C59.7514 66.2216 59.7879 66.2475 59.7879 66.2098C59.7917 66.184 59.7917 66.1579 59.7879 66.1321C59.7879 66.1062 59.7319 66.0662 59.7416 66.0426C59.7514 66.0191 59.7758 66.0191 59.7758 66.0049C59.777 65.9924 59.777 65.9798 59.7758 65.9673C59.7611 65.9319 59.7416 65.906 59.727 65.8731C59.7594 65.8671 59.793 65.8721 59.8221 65.8872C59.8406 65.9022 59.8548 65.9216 59.8633 65.9435C59.8718 65.9653 59.8744 65.9889 59.8708 66.012C59.8538 66.0403 59.8391 66.012 59.8245 66.012C59.8367 66.1345 59.866 66.264 59.866 66.3864C59.8757 66.4571 59.8391 66.5183 59.8343 66.5866ZM59.2614 67.1801C59.2361 67.1459 59.224 67.1042 59.2273 67.0623C59.279 66.8857 59.3157 66.7054 59.337 66.523C59.337 66.4854 59.3662 66.523 59.3857 66.523C59.4052 66.523 59.4564 66.6431 59.4247 66.6714C59.393 66.6997 59.4247 66.6478 59.3735 66.6714C59.3223 66.6949 59.4125 66.8009 59.4125 66.8245C59.4024 66.9469 59.3694 67.0666 59.315 67.1777C59.2882 67.2272 59.2882 67.1965 59.2614 67.1801Z" fill="#FFA100"/>
<path d="M63.5262 64.946C63.4214 64.8636 62.7412 64.2395 62.5267 64.1053C62.2415 63.9192 62.0391 63.7238 61.7954 63.5212C61.6052 63.3729 61.2493 63.3352 61.0787 63.1327C60.869 63.1327 60.8544 63.0691 60.8129 62.8713C60.7555 62.8206 60.6873 62.7829 60.613 62.7606C60.5448 62.737 60.3449 62.5981 60.2766 62.5675C60.0906 62.5067 59.9231 62.4023 59.7891 62.2637C59.869 62.287 59.9504 62.3051 60.0328 62.3179C60.1196 62.3203 60.2062 62.3084 60.2888 62.2825C60.9969 62.451 61.6892 62.6763 62.3585 62.9561C62.378 62.916 62.3902 62.8242 62.4584 62.8524C62.5791 62.9225 62.7075 62.9793 62.8412 63.022C63.0544 63.1172 63.2523 63.2418 63.4287 63.3917C63.4433 63.4082 63.4677 63.3564 63.4848 63.3682C63.5018 63.3799 63.5189 63.3682 63.5262 63.3682C63.5884 63.479 63.671 63.5779 63.77 63.6602C63.8114 63.7002 63.8163 63.7968 63.8504 63.8274C63.8846 63.858 63.9065 63.8274 63.9406 63.8509C63.9478 63.7621 63.9286 63.6731 63.8855 63.5943C63.8423 63.5155 63.7769 63.4501 63.6968 63.4058C63.6627 63.3847 63.6968 63.4671 63.6359 63.4247C63.575 63.3823 63.653 63.4082 63.536 63.3069C63.4189 63.2057 63.0484 62.9796 62.8924 62.8571C62.8582 62.8312 62.8144 62.8995 62.7973 62.876C62.7498 62.8169 62.6892 62.7687 62.6201 62.7349C62.551 62.7011 62.475 62.6825 62.3975 62.6805C62.3756 62.6805 62.3975 62.6146 62.417 62.6122C62.4365 62.6099 62.5681 62.6428 62.595 62.6452C62.6218 62.6476 62.6364 62.6452 62.6462 62.6452C62.6559 62.6452 62.6218 62.5793 62.6291 62.5722C62.6352 62.5693 62.6418 62.5678 62.6486 62.5678C62.6554 62.5678 62.662 62.5693 62.6681 62.5722C62.8294 62.6508 62.9864 62.7372 63.1386 62.8312C63.1532 62.8053 63.1557 62.7983 63.1922 62.7959C63.2288 62.7936 63.1922 62.8265 63.2239 62.8383C63.3772 62.9193 63.5143 63.0262 63.6286 63.1539C63.7042 63.2481 63.67 63.1539 63.7285 63.1915C63.787 63.2292 63.8967 63.1562 63.926 63.1915C63.9553 63.2269 64.0357 63.3376 64.0966 63.3352C64.1576 63.3328 64.1235 63.3187 64.1625 63.3022C64.2015 63.2857 64.1625 63.2222 64.1771 63.1845C64.2136 63.1415 64.244 63.094 64.2673 63.0432C64.2673 62.9937 64.3063 62.9678 64.3039 62.9137C64.289 62.8573 64.2792 62.7998 64.2746 62.7418C63.787 62.5063 63.3556 62.2237 62.8607 61.9952C63.4774 62.0989 63.8358 62.0918 64.4331 62.438C65.0225 62.8186 65.557 63.2731 66.0225 63.7897C66.0159 63.8525 66.0229 63.9159 66.043 63.9759C66.0632 64.0359 66.096 64.0912 66.1395 64.1382C66.4564 64.5244 66.8099 64.8824 66.827 65.3863C66.8904 65.4311 66.9537 65.4805 67.0147 65.5324C67.1697 66.0093 67.3738 66.4701 67.6241 66.9076C67.6802 67.0277 67.6241 67.1431 67.7241 67.2632C67.6716 67.3619 67.6497 67.4731 67.6607 67.5835C67.6607 67.6636 67.5754 67.6071 67.5461 67.6542C67.5169 67.7012 67.5315 67.7483 67.5047 67.7954C67.4779 67.8425 67.4486 67.8473 67.3999 67.892C67.3511 67.9367 67.2024 68.0074 67.1561 68.0521C67.1098 68.0969 67.1561 68.1016 67.1561 68.1087C67.0146 68.2101 66.8446 68.2676 66.6685 68.2735C66.5491 68.2452 66.6003 68.1887 66.5125 68.1534C66.5734 68.1039 66.6222 68.0545 66.5881 67.9815C66.4942 68.0414 66.3873 68.0796 66.2757 68.093C66.1641 68.1065 66.0507 68.0949 65.9445 68.0592C65.8909 68.0404 65.8519 67.8237 65.8421 67.7907C65.8324 67.7578 65.8421 67.8331 65.808 67.7907C65.7781 67.7322 65.743 67.6762 65.7032 67.6235C65.6617 67.5788 65.5861 67.5435 65.5398 67.5011C65.4296 67.0698 65.1985 66.6763 64.8719 66.3636C64.828 66.3213 64.8719 66.4508 64.7817 66.3425C64.6833 66.2534 64.6009 66.1491 64.5379 66.034C64.2313 65.6458 63.893 65.282 63.5262 64.946ZM62.8558 61.9246C62.3049 61.7927 61.7661 61.6232 61.2274 61.4536C61.2274 61.4654 61.2274 61.4842 61.2274 61.496C61.2274 61.5078 61.1932 61.496 61.1859 61.496C60.9421 61.4654 60.7252 61.383 60.4838 61.3312C60.4838 61.31 60.4838 61.2558 60.4838 61.2417C60.4838 61.2275 60.5813 61.2417 60.6106 61.2417C60.6399 61.2417 60.6837 61.2841 60.6935 61.2746C60.7032 61.2652 60.6594 61.2063 60.6594 61.1875C60.83 61.2158 61.0689 61.2228 61.1762 61.3712C61.3541 61.3712 61.5955 61.3476 61.7247 61.4866C62.1212 61.5803 62.502 61.7278 62.8558 61.9246V61.9246ZM60.3108 61.9529C60.1401 61.9222 59.95 61.8681 59.8988 61.7174C59.8988 61.6938 59.9865 61.7174 60.0012 61.7174C60.0709 61.7283 60.1373 61.7538 60.1958 61.7921C60.2543 61.8303 60.3035 61.8803 60.34 61.9387C60.3668 62.0141 60.3181 61.9529 60.3108 61.9529V61.9529ZM61.2712 62.1742C61.1908 62.1954 61.1932 62.1365 61.1396 62.1248C60.8641 62.0635 60.5058 62.1036 60.3181 61.8587C60.5838 61.9128 60.8471 61.974 61.1103 62.0471C61.1225 62.0141 61.1298 61.9458 61.1542 61.9246C61.1786 61.9034 61.2591 61.8822 61.2712 61.9081C61.3127 62.0141 61.3834 62.04 61.515 62.0235C61.4785 62.1177 61.3493 62.1507 61.2712 62.1742V62.1742Z" fill="#FFA100"/>
<defs>
<radialGradient id="paint0_radial_4134_35790" cx="0" cy="0" r="1" gradientUnits="userSpaceOnUse" gradientTransform="translate(27.2997 15.8408) rotate(110.823) scale(7.15733 8.62068)">
<stop offset="0.526744" stop-color="#E72E2E"/>
<stop offset="0.796875" stop-color="#FFA100" stop-opacity="0"/>
</radialGradient>
<radialGradient id="paint1_radial_4134_35790" cx="0" cy="0" r="1" gradientUnits="userSpaceOnUse" gradientTransform="translate(42.5028 15.8408) rotate(69.1768) scale(7.15733 8.62068)">
<stop offset="0.526744" stop-color="#E72E2E"/>
<stop offset="0.796875" stop-color="#FFA100" stop-opacity="0"/>
</radialGradient>
</defs>
</svg>
