<svg width="68" height="70" viewBox="0 0 68 70" fill="none" xmlns="http://www.w3.org/2000/svg">
<path fill-rule="evenodd" clip-rule="evenodd" d="M52.6045 16.6997C51.9912 15.2637 51.3099 13.6686 48.4678 14.6453V6.89655C48.4678 2.89523 41.7211 0 33.5015 0C25.2819 0 18.5352 2.89523 18.5352 6.89655V41.1034C18.5352 45.1048 25.2819 48 33.5015 48C41.7211 48 48.4678 45.1048 48.4678 41.1034V20.4599C51.0031 20.7935 51.5501 22.7863 51.0766 24.8474L53.6854 25.2612C54.2707 21.4816 52.9849 18.9679 48.4678 18.7711V17.1948C50.2034 16.3589 51.2646 17.7252 52.3527 19.1262C53.2449 20.275 54.1553 21.4471 55.4704 21.4471C57.3927 21.4471 58.903 20.4816 60.0015 18.5505L57.6673 15.3781C57.2096 17.4931 56.1111 18.5505 54.3719 18.5505C53.395 18.5505 53.0149 17.6607 52.6045 16.6997ZM37.4913 25.737C36.1607 25.4131 34.7928 25.0801 33.4464 25.0801C32.0783 25.0801 30.6961 25.42 29.3566 25.7494C25.8592 26.6094 22.6525 27.398 20.7467 21.879C18.422 15.1465 23.7288 16.6302 28.5673 17.9829C30.4448 18.5078 32.2518 19.013 33.515 19.0109C34.7291 19.0088 36.4723 18.5356 38.2951 18.0407L38.2951 18.0407C43.092 16.7385 48.44 15.2867 46.1463 21.879C44.2329 27.378 40.9912 26.5889 37.4913 25.737ZM26.7672 20.7469C26.1778 20.4767 25.5942 20.2286 25.0435 20.049C24.9667 21.0237 25.3872 21.9303 26.3253 22.8138C27.1442 23.585 27.9158 23.675 28.7434 23.0086C29.016 22.7081 29.2523 22.369 29.4521 21.9914C29.1155 21.8503 28.765 21.6901 28.4071 21.5219C28.4164 21.5796 28.4212 21.6387 28.4212 21.699C28.4212 22.3085 27.9294 22.8025 27.3227 22.8025C26.7161 22.8025 26.2243 22.3085 26.2243 21.699C26.2243 21.2932 26.4423 20.9386 26.7672 20.7469ZM21.8305 21.0094C22.185 19.9412 22.9705 19.6619 23.9652 19.7909C23.7975 21.1648 24.3415 22.458 25.574 23.6188C25.9292 23.9533 26.2885 24.1983 26.6492 24.3556C26.0729 24.5544 25.4277 24.6804 24.7139 24.7335C27.5047 25.2592 29.5061 24.4911 30.7181 22.4292C31.8822 22.7109 32.6776 22.4358 32.6776 20.8715C32.2724 22.4999 30.4268 21.3818 28.3658 20.1332C25.539 18.4205 22.307 16.4624 21.8305 21.0094ZM38.5882 21.4993C38.227 21.6858 37.8729 21.8604 37.5312 22.0068C37.7318 22.3874 37.9693 22.7288 38.2437 23.0312C39.0712 23.6977 39.8429 23.6076 40.6618 22.8364C41.644 21.9114 42.0588 20.9611 41.9294 19.9339C41.3367 20.111 40.7186 20.3947 40.0999 20.7084C40.4899 20.8778 40.7628 21.2677 40.7628 21.7217C40.7628 22.3311 40.271 22.8251 39.6644 22.8251C39.0577 22.8251 38.5659 22.3311 38.5659 21.7217C38.5659 21.6455 38.5736 21.5712 38.5882 21.4993ZM34.573 21.7217C34.9879 22.3328 35.5642 22.4964 36.2404 22.4028C37.4495 24.5015 39.4604 25.286 42.2732 24.7562C41.5593 24.7031 40.9142 24.5771 40.3378 24.3782C40.6986 24.2209 41.0578 23.976 41.413 23.6414C42.666 22.4614 43.2075 21.1444 43.0129 19.745C43.8514 19.7257 44.595 20.0648 45.1566 21.032C44.6226 16.0912 41.565 18.0921 38.712 19.959C37.1048 21.0107 35.5626 22.0199 34.573 21.7217ZM34.0238 19.6527C34.0238 20.4218 34.4357 21.032 35.1223 21.17C34.4357 21.3079 33.6119 20.7562 34.0238 19.6527ZM46.5455 6.89655C46.5455 9.59882 40.7506 12.1379 33.5015 12.1379C26.2523 12.1379 20.4574 9.59882 20.4574 6.89655C20.4574 4.19428 26.2523 1.65517 33.5015 1.65517C40.7506 1.65517 46.5455 4.19428 46.5455 6.89655Z" fill="black"/>
<ellipse cx="33.5002" cy="6.89534" rx="6.45337" ry="2.75862" fill="#FF6633"/>
<path fill-rule="evenodd" clip-rule="evenodd" d="M10.2319 65.447H9.96179C9.96179 65.3863 9.87033 65.3241 9.68761 65.2605C9.23182 64.7631 9.00392 63.4705 9.00392 61.3827C8.97575 61.3827 8.96185 61.3206 8.96185 61.1962C8.96185 61.1644 8.97575 61.1484 9.00392 61.1484L8.96185 60.9144V60.4934C8.96185 60.4645 8.97575 60.4502 9.00392 60.4502C8.97575 60.3894 8.96185 60.3417 8.96185 60.3069L9.00392 59.1879H9.05038C9.05038 59.1561 9.03501 59.1401 9.00392 59.1401C9.04324 58.7181 9.07434 58.4693 9.09684 58.3939C9.09684 58.3622 9.08129 58.3464 9.05038 58.3464C9.05038 58.3144 9.06592 58.2681 9.09684 58.2076C9.12775 57.4212 9.14311 56.7979 9.14311 56.3381C9.14311 55.8291 9.08275 55.1741 8.96185 54.3732C9.09391 54.1245 9.23035 54 9.37101 54C9.5455 54 9.65103 54.0782 9.68761 54.2343C9.90984 54.2865 10.1066 54.4426 10.2784 54.703C10.2784 54.7866 10.3093 54.8791 10.3711 54.9805L10.4598 54.937H10.5063C10.5654 55.3621 10.5948 55.5949 10.5948 55.6353H10.6877V55.5443C10.817 55.5443 10.8929 55.7611 10.9154 56.195C10.9577 56.195 11.0182 56.4133 11.0969 56.8498C11.128 56.8498 11.1433 56.8658 11.1433 56.8976C11.1433 56.9293 11.128 56.9453 11.0969 56.9453L11.232 57.9256C11.2011 58.0935 11.1856 58.2336 11.1856 58.3464V58.8581C11.1856 58.9305 11.1715 58.9942 11.1433 59.0491C11.1715 59.1069 11.1856 59.1531 11.1856 59.1879C11.0759 60.3387 10.9859 60.9144 10.9154 60.9144L10.9619 61.2439V62.0853C10.9619 62.1546 10.9465 62.2169 10.9154 62.2718C10.9465 62.3269 10.9619 62.3889 10.9619 62.4585V62.506C10.9619 62.5669 10.931 62.5972 10.8692 62.5972C10.8692 62.5654 10.8536 62.5495 10.8227 62.5495V62.5972L10.9154 62.736V62.8315L10.7342 64.3278L10.5063 64.7008C10.405 64.7008 10.3135 64.7471 10.2319 64.8398C10.2319 64.8714 10.2473 64.8873 10.2784 64.8873L10.2319 65.356V65.447ZM13.3524 67.1007C14.8032 67.6324 15.8008 67.9129 16.3447 67.9416C16.3447 67.9416 17.8745 68.2872 18.5847 67.87C19.8651 67.118 19.5367 62.0201 19.5367 62.0201L19.6366 60.5629C19.6509 59.5366 19.556 58.4373 19.3518 57.2654L19.3315 57.211C19.2088 56.8841 18.8623 55.9607 18.9015 55.7606C18.9674 55.6151 19.0264 55.5474 19.0788 55.5583L19.2112 55.5856C19.2229 55.5262 19.2439 55.4995 19.2743 55.5057L19.4976 55.5521L19.5068 55.5053L19.8078 55.616L19.7996 55.6587C19.7112 55.6403 19.6611 55.6623 19.6489 55.7249L19.7491 55.6969L19.7904 55.7053L19.7813 55.7522L19.6677 55.8704C19.6589 55.9157 19.694 55.9701 19.7736 56.0338L19.8645 56.0526C19.8806 55.9703 19.9368 55.9186 20.0328 55.8971L20.041 55.8546L20.219 55.8913C20.2095 55.9394 20.3728 56.1312 20.709 56.466C20.9742 56.7982 21.2202 57.278 21.4475 57.9062C21.6667 58.8392 21.7554 59.4136 21.7131 59.6291L21.6676 59.6195C21.7212 60.138 21.7566 60.7485 21.7742 61.4512C21.7323 61.5046 21.7078 61.5481 21.7012 61.5823C21.7923 61.6009 21.8161 61.8758 21.7724 62.4067L21.7095 62.4864L21.6537 63.718C21.5512 63.9329 21.4958 64.063 21.4869 64.1083L21.4783 64.3943L21.5196 64.4028L21.6198 64.3748L21.6015 64.4684L21.5386 64.5483C21.5688 64.5545 21.5811 64.5733 21.575 64.6045C21.5447 64.5983 21.5264 64.6105 21.5203 64.6417L21.6109 64.6606C21.9954 64.0999 22.2732 63.648 22.4445 63.3047C22.4445 63.2382 22.536 63.1299 22.7189 62.9795L23.3982 61.4395C23.3673 61.4224 23.3517 61.3124 23.3517 61.1099C23.5655 60.6444 23.702 60.4117 23.7611 60.4117C23.9833 59.9142 24.3476 58.8544 24.8541 57.2323L25.2632 56.252C25.2323 56.1911 25.217 56.1448 25.217 56.1131C25.3294 56.1131 25.4953 55.9728 25.7148 55.6923H25.9005L25.9427 55.8788H25.9892C26.051 55.8788 26.0819 55.847 26.0819 55.7833L26.5335 55.8311H26.6262C26.6262 55.9237 26.6559 55.97 26.7149 55.97H26.7614C26.7614 55.8773 26.7923 55.8311 26.8543 55.8311H26.9006C26.9597 55.8397 26.9893 55.8715 26.9893 55.9266L27.082 55.8788H27.1243V56.0653H27.217C27.2763 56.0653 27.3057 56.0335 27.3057 55.97V55.9266L27.2635 55.8311L27.4914 55.7833H27.5801L27.5336 55.8788V56.0177C27.5954 56.0177 27.6263 56.0798 27.6263 56.2043H27.9894C27.9894 56.236 27.9739 56.252 27.943 56.252C27.957 56.4081 28.0033 56.4861 28.0821 56.4861V56.7636C28.099 57.0963 28.189 57.3304 28.3523 57.4663C28.3523 57.4808 28.3986 57.6371 28.4915 57.9349L28.5802 57.8871H28.6266L28.8079 58.5897C28.8979 58.5897 28.9429 58.6822 28.9429 58.8674C28.9122 58.8674 28.8966 58.8834 28.8966 58.9151L28.9893 58.9629V58.9151C28.9584 58.9151 28.9429 58.8993 28.9429 58.8674H29.0823C29.085 59.0437 29.1752 59.3865 29.3524 59.8956C29.3213 60.0661 29.306 60.1904 29.306 60.2684L29.3987 60.3162C29.3987 60.2844 29.4142 60.2684 29.4451 60.2684C29.4451 60.3321 29.5351 60.5344 29.7153 60.8757C30.6521 60.7832 31.2133 60.7369 31.3989 60.7369V60.8324H31.306L31.3525 61.0624L30.4453 61.3442L30.4875 61.4395C30.4875 61.5871 30.3525 61.6796 30.0824 61.7172V61.765H30.1709V61.8605L30.0824 61.9992V62.0902C30.3244 62.8797 30.5212 63.5809 30.6732 64.194C30.6732 64.2433 30.7028 64.3053 30.7617 64.3805V64.4283C30.7617 64.46 30.7463 64.4758 30.7152 64.4758L31.1247 65.6906C31.0966 65.6906 31.0825 65.7063 31.0825 65.7381C31.2118 65.7381 31.347 66.2196 31.4876 67.1826C31.3863 67.1826 31.3117 67.2606 31.2639 67.4167H30.9896C30.9896 67.5122 30.9137 67.5599 30.7617 67.5599C30.6549 67.4529 30.382 67.3272 29.9432 67.1826C29.9432 67.1335 29.7166 67.0408 29.2637 66.9051C29.2637 66.8703 29.1722 66.7921 28.9893 66.6708V66.5753L29.306 66.6231H29.4451C29.5042 66.6231 29.5337 66.5928 29.5337 66.5319C29.5337 66.4336 29.2469 65.6701 28.6729 64.2418C28.6729 64.0507 28.5209 63.5679 28.2171 62.793C27.6349 62.981 26.9992 63.1212 26.3098 63.2137C26.3098 63.1818 26.2944 63.166 26.2635 63.166C26.2635 63.2585 26.1721 63.3205 25.9892 63.3525C25.4743 63.4739 25.217 63.646 25.217 63.8686C25.0256 64.4933 24.8442 64.9284 24.6725 65.1743V65.3174C24.7626 65.3174 24.8076 65.3478 24.8076 65.4085V65.4563L24.7189 65.4085H24.6262C24.5362 65.6514 24.4912 65.8075 24.4912 65.8769L24.3983 65.8293C24.3983 65.9103 24.3068 66.0041 24.1239 66.1111C24.1239 66.169 23.958 66.4495 23.6261 66.9526L23.5332 66.9961H23.4446L23.2632 66.8573H23.2167C23.1577 66.866 23.1282 66.8977 23.1282 66.9526C23.1562 67.0104 23.1703 67.0566 23.1703 67.0914L23.0817 67.1392C23.0422 67.1074 22.9663 67.0914 22.8538 67.0914C22.8538 67.1839 22.7933 67.2301 22.6724 67.2301L21.9424 66.7186C21.7549 66.7186 21.5723 66.4917 21.3943 66.0382C21.3798 66.2419 21.3316 66.5527 21.2498 66.9708L21.1783 67.3363C21.1368 67.5491 21.087 67.6493 21.0291 67.6374L20.9848 68.106L20.9316 68.3782C20.7688 68.8873 20.5692 69.1956 20.3331 69.303C20.2704 69.3532 20.1577 69.3914 19.9969 69.4182C19.9902 69.4203 19.9845 69.4229 19.9775 69.4252C19.9101 69.4822 19.9044 69.5005 19.8979 69.5213C19.8922 69.5394 19.886 69.5595 19.838 69.6087C19.8032 69.6243 19.7233 69.6324 19.6004 69.6335V69.6346C19.5258 69.6685 19.431 69.6768 19.316 69.6593C19.1783 69.8257 19.072 69.9259 18.9974 69.9595L18.5478 69.9544C18.1386 70.0037 17.6292 70.0129 17.0198 69.9821C16.551 69.7484 15.9957 69.5749 15.3537 69.4607C15.0344 69.2103 14.7502 69.0845 14.5007 69.0836C14.4407 68.9433 14.0136 68.6422 13.2196 68.1798C12.9548 68.0279 12.7953 67.964 12.7412 67.9886C12.5412 67.7726 12.4026 67.682 12.3252 67.717L12.2523 67.5463C13.0098 67.8514 13.417 67.9911 13.4735 67.9653L13.4548 67.9219L13.0746 67.7335L13.0576 67.6938L13.1002 67.6747C13.1081 67.6933 13.3493 67.7901 13.8241 67.9657C14.2986 68.1411 14.6991 68.2293 15.0254 68.2302C15.2899 68.2814 15.4596 68.2898 15.5343 68.256L15.5767 68.2368C15.6232 68.2159 15.6382 68.1759 15.6221 68.1169C14.506 67.8285 13.913 67.6023 13.8426 67.4383L13.7802 67.5186C13.6954 67.5572 13.6103 67.4771 13.5253 67.2785L13.4442 67.3152L13.4799 67.3985L13.4373 67.4178C13.3875 67.3015 13.3246 67.1939 13.2487 67.0956L13.3338 67.0573L13.3524 67.1007ZM21.5525 64.7456L21.5551 64.7417L21.5483 64.7406C21.5498 64.7419 21.5512 64.7436 21.5525 64.7456ZM5.40535 66.1655C5.40535 66.3822 5.67824 66.5065 6.22402 66.5383C6.7698 66.5123 7.0427 66.4038 7.0427 66.2132C7.49557 65.5565 7.722 65.0419 7.722 64.6689C7.93581 63.3703 8.07226 62.4047 8.13134 61.7713V61.7279L7.95008 61.8189V61.7279L7.99636 61.4938C7.96545 61.4938 7.95008 61.4779 7.95008 61.4461H7.99636C7.99636 59.9683 8.0569 58.9086 8.1778 58.2665V58.2231H8.08927C8.08927 58.3477 8.04281 58.4098 7.95008 58.4098C7.95008 58.4415 7.96545 58.4878 7.99636 58.5485L7.95008 59.017C7.95008 59.0488 7.96545 59.0951 7.99636 59.1558C7.99636 59.1962 7.93581 59.3365 7.81492 59.5765H7.76846C7.76846 59.2643 7.72346 59.108 7.63348 59.108C7.63348 59.0473 7.67847 59.017 7.76846 59.017V58.6873C7.76846 58.485 7.78401 58.1742 7.81492 57.7547H7.722C7.722 57.8241 7.7081 57.8862 7.67993 57.9413L7.722 58.0366C7.64335 58.0482 7.58281 58.1249 7.54056 58.2665L7.58702 58.4575C7.58702 58.4865 7.57165 58.5008 7.54056 58.5008C7.54056 58.6164 7.55611 58.6944 7.58702 58.735C7.55611 58.735 7.51111 58.8448 7.45204 59.0648C7.48295 59.1167 7.49849 59.1789 7.49849 59.2511V59.2947L7.40558 59.4376L7.45204 59.5288H7.40558C7.40558 59.6329 7.42112 59.7112 7.45204 59.763C7.43228 59.9424 7.38729 60.0825 7.31705 60.1838L7.3593 60.2791H7.31705C7.31705 60.5279 7.25505 60.6521 7.13122 60.6521V60.6999L7.17768 60.9776C7.02587 61.2581 6.94978 61.5544 6.94978 61.8667H6.86126C6.86126 61.8349 6.87662 61.8189 6.90771 61.8189C6.90771 61.7409 6.89217 61.6166 6.86126 61.4461L6.94978 61.3073L6.90771 61.2118C6.96679 61.2118 6.99624 61.1338 6.99624 60.9776L6.94978 60.8864C6.98088 60.8864 7.02733 60.8084 7.08915 60.6521C7.05824 60.5972 7.0427 60.535 7.0427 60.4656C7.0427 60.4252 7.07233 60.2532 7.13122 59.9495V59.8108L7.08915 59.5288L7.13122 59.4376L7.08915 59.2033L7.17768 58.9693C7.14677 58.9144 7.13122 58.8521 7.13122 58.7828L7.22414 58.644H7.13122L7.27059 57.616L7.22414 57.5205C7.43228 57.1302 7.70517 56.8657 8.04281 56.7267V56.6314C8.04281 56.559 7.90637 56.497 7.63348 56.4447C7.35217 56.6269 7.13982 56.8771 6.99624 57.1952V57.2862H7.08915V57.334H6.99624L7.0427 57.4295C7.0427 57.5624 7.01179 57.6869 6.94978 57.8025L6.99624 57.8937C6.94557 58.2291 6.88522 58.4314 6.8148 58.5008L6.86126 58.5963C6.83035 58.5963 6.8148 58.6123 6.8148 58.644V58.6873H6.86126V59.2033C6.86126 59.296 6.89089 59.3423 6.94978 59.3423C6.90204 59.4118 6.85705 59.5519 6.8148 59.763C6.8148 60.4801 6.75426 60.8388 6.63336 60.8388V60.9298H6.72207C6.72207 60.9618 6.70798 60.9776 6.67982 60.9776L6.72207 61.2118C6.69097 61.2118 6.64598 61.2276 6.5869 61.2596C6.61781 61.4735 6.64891 61.6138 6.67982 61.6802C6.62074 61.7121 6.57428 61.7279 6.54044 61.7279V62.1921C6.48155 62.1921 6.45192 62.2543 6.45192 62.3786H6.40546C6.34638 62.3786 6.30139 62.2701 6.27048 62.0534C6.32956 61.8537 6.37455 61.5734 6.40546 61.2118C6.37455 61.1569 6.359 61.0947 6.359 61.0253C6.359 60.8055 6.3901 60.6335 6.45192 60.5092C6.42101 60.4513 6.40546 60.4051 6.40546 60.3703C6.30706 60.3703 6.23115 60.7448 6.17775 61.4938C6.20866 61.4938 6.22402 61.5081 6.22402 61.5371C5.98204 63.2867 5.70933 64.3305 5.40535 64.6689C5.34919 64.3882 5.28865 64.248 5.22391 64.248C4.71323 62.3234 3.83823 60.6504 3.15458 59.3432C2.82134 58.706 2.53357 58.1557 2.35561 57.7057C2.17289 57.4799 2.08144 57.3396 2.08144 57.2847H1.99273V57.3325L2.03498 57.428C1.95615 57.3325 1.83525 57.2847 1.6721 57.2847V57.2415H1.76484V57.146C1.52285 57.146 1.40195 57.0837 1.40195 56.9595L1.27429 56.964C1.08864 57.12 0.952195 57.1981 0.86495 57.1981C0.86495 57.0478 0.773682 56.9074 0.590778 56.7775C0.500607 56.8237 0.455613 56.87 0.455613 56.9162C0.421958 56.9162 0.375501 56.9003 0.316423 56.8685C0.265759 56.8685 0.236311 56.9003 0.227898 56.964L0.274172 57.0552C0.243262 57.0552 0.227898 57.071 0.227898 57.1027L0.134983 57.0552H0.0929149C0.0393242 57.0552 0.00841356 57.0869 0 57.1503V57.1981L0.0929149 57.5235C0.385378 57.5235 0.718628 58.5051 1.09285 60.4688H1.04639C1.07748 60.7695 1.1223 61.0022 1.18156 61.1671H1.1351C1.1351 61.2711 1.15046 61.3491 1.18156 61.4013L1.1351 61.6356C1.16601 61.9073 1.18156 62.0635 1.18156 62.1039C1.15046 62.3237 1.1351 62.4482 1.1351 62.4769C1.19692 62.7257 1.22801 63.0135 1.22801 63.3401C1.22801 63.6178 1.19692 64.0776 1.1351 64.7195C1.1351 65.3356 1.25746 65.7562 1.50219 65.9818V65.8863L1.45573 65.7909C1.48682 65.7909 1.50219 65.7765 1.50219 65.7475V65.6998H1.40945V65.6522C1.44036 65.6522 1.48536 65.6362 1.54444 65.6044C1.69643 65.8964 1.77233 66.1467 1.77233 66.3548C2.07614 66.4069 2.22795 66.5311 2.22795 66.728H2.2744C2.2744 66.6325 2.28849 66.524 2.31665 66.4025H2.40957C2.40957 66.712 2.50084 66.8667 2.68374 66.8667L3.18161 66.6802C3.15069 66.4574 3.13533 66.3332 3.13533 66.3072C3.13533 66.2145 3.16624 66.1683 3.22806 66.1683L3.18161 65.934V65.6044L3.13533 65.5134H3.18161C3.18161 65.4612 3.16624 65.2747 3.13533 64.9537L3.04662 64.9972C3.1057 64.7484 3.13533 64.5937 3.13533 64.533V64.2512L3.09308 64.1557C3.12125 64.1557 3.13533 64.1325 3.13533 64.0863C3.13533 63.7796 3.12125 63.508 3.09308 63.2707C3.11174 63.1571 3.17081 63.172 3.27013 63.3154C3.74842 64.4867 4.12685 65.156 4.40541 65.3237C4.64721 65.4713 4.76829 65.6114 4.76829 65.7445C5.01009 65.9556 5.13117 66.0799 5.13117 66.1177C5.16208 66.1177 5.17745 66.1017 5.17745 66.0699C5.25354 66.1335 5.32944 66.1655 5.40535 66.1655ZM17.3055 66.6444C17.2938 66.5829 17.2186 66.5555 17.0801 66.5623C17.0927 66.6288 16.9673 66.6965 16.7037 66.7659C16.5797 66.6179 16.4352 66.5181 16.2699 66.4664C16.2625 66.428 16.2137 66.3953 16.1232 66.3682L16.0859 66.376L16.102 66.4604C15.8724 66.2885 15.7541 66.1836 15.7468 66.1453C15.205 65.3554 14.8981 64.7724 14.8262 64.3959C14.7219 63.986 14.6082 63.6074 14.4849 63.2597L14.5105 63.1708L14.2859 62.4421L14.3271 62.4338L14.2698 62.3577L14.1273 61.6122L14.0114 61.2088L13.8469 61.242C13.8597 61.3086 13.8323 61.4564 13.7648 61.6855L13.8469 61.669C13.8265 61.995 13.8235 62.1964 13.8383 62.2733C13.8632 62.2682 13.8784 62.2796 13.8837 62.308C13.7965 62.3255 13.78 62.5297 13.8339 62.9204L13.9146 63.1197C13.9007 63.2766 13.8682 63.3975 13.8171 63.4825C13.8224 63.5105 13.8389 63.522 13.8663 63.5164C13.8868 63.9219 13.8808 64.181 13.848 64.2941C13.8828 64.3404 13.9029 64.3787 13.9089 64.4094C13.8286 64.5854 13.7815 64.9952 13.7674 65.639C13.7405 65.9319 13.7132 66.081 13.6858 66.0864L13.5664 66.1105C13.5075 66.4389 13.4156 66.6159 13.2911 66.6409C13.2302 66.5388 13.1799 66.4918 13.14 66.4999L13.0577 66.5164L12.8633 66.5957C12.8397 66.4728 12.7032 66.4152 12.4538 66.423L12.4552 66.2073C12.4287 66.0689 12.3621 66.0107 12.2549 66.0323L12.207 65.7826C12.1812 65.6467 12.1009 65.5925 11.9665 65.6198C11.8471 64.9948 11.8648 63.9166 12.0197 62.3851C12.0144 62.3567 11.998 62.3456 11.9705 62.3511L11.9698 61.9204L12.0602 61.9461L12.0124 61.6963C12.1044 61.6776 12.1344 61.5427 12.1019 61.2911L12.0468 61.0031C12.109 60.9905 12.1306 60.8863 12.1114 60.6908L12.0417 60.5293C12.0508 60.4424 12.0693 60.3962 12.0965 60.3904C12.0912 60.3623 12.0748 60.3509 12.0473 60.3565C12.0313 60.123 12.0356 59.9226 12.0607 59.7553C12.023 59.7071 12.0013 59.6677 11.9952 59.637C12.0428 59.6007 12.0801 59.5799 12.1075 59.5744C12.0669 59.5109 12.0142 59.3777 11.9499 59.1753C11.9846 59.1681 12.0223 59.0741 12.0627 58.8931C12.025 58.8449 12.0036 58.8068 11.9981 58.7784L12.0393 58.7701L11.9821 58.694C12.0099 57.9596 11.9804 57.1487 11.8937 56.2619C11.9806 56.1886 12.0826 56.1401 12.1997 56.1164L12.3193 56.0921C12.3468 56.0867 12.3632 56.098 12.3685 56.1262L12.4428 56.0673C12.7416 56.1826 12.9119 56.3489 12.9535 56.5667L13.0275 56.5078L13.1471 56.4836L13.1554 56.526L13.1332 56.614L13.5333 56.5334L14.0256 56.6932L14.0785 56.7665L13.9589 56.7906L13.9669 56.8327C14.077 57.1111 14.2422 57.3929 14.4624 57.6785C14.8094 58.1801 15.0435 58.7487 15.1648 59.384L15.2756 59.9641C15.3579 59.9474 15.5207 60.3588 15.7638 61.198L15.8035 61.4056C15.8089 61.4336 15.7978 61.4505 15.7703 61.456L15.827 61.5286C15.8514 61.6566 15.8377 61.8749 15.7852 62.1832C15.9265 62.3409 16.0196 62.5363 16.0641 62.7694L16.0804 62.8538L16.1587 62.838C16.2135 62.8269 16.2466 62.634 16.2578 62.2595L16.2989 62.2513L16.2417 62.1749L16.2181 62.052C16.3275 61.825 16.3544 61.1601 16.2988 60.0566C16.3454 59.9222 16.378 59.659 16.3962 59.267C16.5206 58.699 16.6454 58.3294 16.7705 58.158L16.8116 58.1497L16.8277 58.2343L16.8021 58.323L16.8923 58.3488L16.9334 58.3405L16.9254 58.2982L16.8431 58.3148L16.8689 58.226L16.8608 58.1835C16.8553 58.1555 16.8391 58.144 16.8116 58.1497C16.8297 58.0953 16.8328 58.0376 16.8211 57.9763L16.8996 57.9604L16.9018 58.1752C16.989 58.1576 17.0618 57.9568 17.1205 57.5725L17.1123 57.5302L17.199 57.5567L17.191 57.5144C17.1635 57.52 17.1471 57.5086 17.1416 57.4806C17.184 57.4719 17.2338 57.4341 17.2906 57.3666C17.2956 57.3922 17.3106 57.4025 17.3355 57.3975C17.4617 57.0288 17.6045 56.8284 17.764 56.7962L17.8051 56.7879L17.8366 56.9532L17.5535 57.4413L17.4668 57.4148L17.3435 57.4398L17.3515 57.4821L17.5123 57.4495L17.5284 57.5341C17.3715 57.728 17.2963 57.843 17.3033 57.8788C17.2133 58.2881 17.1088 59.1976 16.9901 60.6073L16.9982 60.6496L17.0355 60.6421C17.1416 60.3575 17.1963 59.9873 17.1999 59.5315L17.332 58.9025L17.3744 58.8938C17.3795 58.7785 17.4032 58.7165 17.4458 58.708L17.4868 58.6995C17.5 58.7687 17.5408 58.8324 17.6088 58.8905L17.619 58.944C17.6384 58.9322 17.6552 58.9249 17.6694 58.922L17.6777 58.9643C17.6369 59.1852 17.606 59.4629 17.5844 59.797L17.6255 59.7887C17.6879 59.7763 17.7267 59.5396 17.7422 59.079C17.9041 59.0463 18.0036 58.768 18.0407 58.2446L18.123 58.2279C18.1342 58.2869 18.115 58.477 18.0651 58.7983C18.1324 58.7846 18.1827 58.8316 18.2161 58.9393L18.2149 59.1551C18.2578 59.2315 18.2931 59.267 18.3206 59.2614L18.3433 60.0309C18.3595 60.1153 18.4074 60.1495 18.4872 60.1335L18.4945 60.1719C18.5141 61.1548 18.4808 62.2932 18.3943 63.5876C18.305 64.0685 18.1311 64.7632 17.8726 65.6719C17.6736 66.2282 17.5604 66.5091 17.533 66.5147L17.3055 66.6444ZM17.4501 59.094L17.4277 58.9766C17.4419 58.9767 17.4564 58.9779 17.471 58.9803L17.4913 59.0858L17.4501 59.094ZM17.4379 58.5983L17.479 58.59C17.4633 58.5082 17.4818 58.462 17.5341 58.4512L17.5098 58.3245L17.4724 58.332C17.4887 58.4165 17.4556 58.4672 17.3733 58.4838C17.411 58.5321 17.4326 58.5702 17.4379 58.5983ZM6.35204 60.2899H6.3985C6.3985 60.1628 6.38314 60.0384 6.35204 59.9169L6.3985 59.6827V59.6394H6.30998C6.30998 59.7233 6.27888 59.8158 6.21706 59.9169L6.26352 60.0124C6.23261 60.0124 6.21706 60.0282 6.21706 60.0602V60.1512C6.26498 60.2437 6.30998 60.2899 6.35204 60.2899ZM24.8753 59.1589C24.94 59.1444 25.0004 59.0664 25.0567 58.9246C25.0286 58.8697 25.0147 58.8075 25.0147 58.7381C25.0849 58.7381 25.2213 58.4734 25.4238 57.9444L25.3775 57.8489V57.8011C25.5434 57.6075 25.6334 57.3429 25.6475 57.0073H25.4661V57.1028H25.559C25.1032 58.0948 24.8753 58.7801 24.8753 59.1589ZM16.6787 63.9026C16.679 64.0542 16.6516 64.2019 16.5965 64.3461C16.5492 64.3557 16.5166 64.3343 16.4987 64.282L16.4592 64.0747L16.5003 64.0664L16.6792 63.2561C16.6739 63.2281 16.6523 63.1899 16.6146 63.1416C16.6571 63.1329 16.7052 63.094 16.7591 63.0246L16.7674 63.0668L16.7123 63.2057L16.7284 63.2901L16.8069 63.2743L16.7835 63.1512L16.8246 63.1431L16.8714 63.3888C16.7952 63.7208 16.7308 63.8921 16.6787 63.9026ZM26.1557 61.7367C26.3104 61.7367 26.8112 61.6125 27.6579 61.3637V61.3162C27.6579 61.2494 27.4455 60.5801 27.0206 59.3077V59.2644C26.8772 59.4581 26.7254 59.8006 26.565 60.2924C26.4974 60.7232 26.3765 61.1424 26.2021 61.5502H26.1557V61.7367ZM30.2239 64.0527V64.1004C30.134 64.1004 29.9975 63.7417 29.8146 63.0246C29.9357 63.0246 29.9961 63.1344 29.9961 63.3544H30.089L30.1775 63.3067C30.1775 63.3384 30.193 63.3544 30.2239 63.3544L30.1775 63.5885C30.2086 63.8603 30.2239 64.0151 30.2239 64.0527ZM16.8381 62.1229C16.8181 62.0178 16.8564 61.8531 16.9533 61.6288C16.9718 61.5771 16.9723 61.5051 16.9548 61.413L16.9394 61.3323L16.8982 61.3406C16.8633 61.3477 16.8203 61.5559 16.7691 61.9652L16.6458 61.9902L16.6773 62.1552L16.7184 62.147L16.7392 62.1318C16.7382 62.2216 16.7071 62.4157 16.6458 62.714L16.6524 62.9719L16.6597 63.0105L16.7009 63.002C16.7614 62.4393 16.79 62.1475 16.7859 62.127L16.781 62.1012L16.7934 62.0921C16.7982 62.1175 16.8132 62.1278 16.8381 62.1229Z" fill="black"/>
<path fill-rule="evenodd" clip-rule="evenodd" d="M37.3806 66.771L36.4655 66.6773L36.3766 66.7241C36.0036 66.6306 35.7296 66.4931 35.5546 66.3117C35.159 65.9853 34.9614 65.7415 34.9614 65.5798C34.9614 65.5516 34.9304 65.4283 34.8681 65.2098V65.1674L34.9148 65.0737C34.8753 65.0737 34.7849 64.9518 34.6437 64.7079V64.5716C34.6437 64.5405 34.7495 64.4483 34.9614 64.2951L34.9148 64.0655C35.4486 63.6685 35.8145 63.4699 36.0121 63.4699V63.5168C36.0121 63.6387 35.9048 63.8826 35.6901 64.2484V64.2951C35.7551 64.2951 35.9232 64.3406 36.1942 64.4313L36.9698 64.3419V64.3887C37.1731 64.3576 37.3708 64.3107 37.5629 64.2484L37.8806 64.2951C38.3212 64.2244 38.8692 63.9492 39.5246 63.4699C39.711 63.314 39.8932 63.07 40.0711 62.7383C40.2236 62.5766 40.2998 62.4234 40.2998 62.2788C38.6079 61.913 37.6955 61.6833 37.5629 61.5898C37.5629 61.6519 37.5317 61.6833 37.4696 61.6833C36.3992 61.4251 35.7763 61.1814 35.6011 60.9516C35.4712 60.9516 35.2424 60.7986 34.9148 60.4922C34.8356 60.4837 34.6691 60.2851 34.4147 59.8966C34.3414 59.8966 34.2652 59.7904 34.1861 59.5774C34.0645 59.5774 34.0039 59.4244 34.0039 59.1181C34.0039 58.6078 34.1549 58.1638 34.4571 57.7867C34.6408 57.4747 34.854 57.2153 35.097 57.0082C35.2409 56.8637 35.3328 56.7118 35.3724 56.553C35.8383 56.2156 36.1125 56.0469 36.1942 56.0469C36.8807 56.1177 37.382 56.2396 37.6985 56.4125C38.3989 56.787 38.7493 57.1386 38.7493 57.4675V57.8335H38.656V57.8802L38.7026 57.9739L38.4738 58.0165C38.3748 58.0165 38.1475 57.8946 37.7916 57.6505C37.2662 57.866 36.9472 58.0192 36.834 58.1101C36.8087 58.2547 36.6109 58.4376 36.2409 58.6587C36.2409 58.7097 36.0885 58.863 35.7834 59.1181C35.5998 59.396 35.508 59.5634 35.508 59.6202C36.118 59.8951 37.1222 60.1702 38.5203 60.4455C39.7859 60.7518 40.5611 61.058 40.8465 61.3643C41.7616 61.8208 42.2192 62.1712 42.2192 62.4149H42.1259C42.1259 62.3354 41.9594 62.1839 41.6261 61.9597H41.5328V62.0023C41.6712 62.3767 41.8844 62.622 42.1726 62.7383C42.1726 62.778 42.2488 62.9155 42.4014 63.1508C42.3391 63.1594 42.3081 63.1891 42.3081 63.2402L42.3548 63.6529C42.3548 63.8855 42.1726 64.0683 41.8082 64.2018C41.8082 64.301 41.6712 64.454 41.3972 64.6611C41.3972 64.8143 41.1528 65.0283 40.6643 65.3034C40.6643 65.3628 40.4665 65.5459 40.0711 65.8522C39.9808 65.889 39.9354 65.9359 39.9354 65.9925H39.889L39.7999 65.9458C39.7999 66.1669 39.5105 66.3812 38.9314 66.588C38.9314 66.4946 38.9002 66.4477 38.8382 66.4477C38.7394 66.5866 38.5726 66.6788 38.3383 66.7241L38.0628 66.6773H37.9737C37.906 66.6773 37.8454 66.693 37.7916 66.7241L37.6985 66.6773C37.6447 66.7086 37.5841 66.7241 37.5163 66.7241L37.4272 66.6773L37.3806 66.771ZM46.1889 66.2653H46.0956C45.7821 66.2653 45.5689 66.2199 45.4558 66.1292L45.2736 66.176C45.2257 66.176 45.1351 66.115 45.0026 65.9929L44.9093 66.0355C44.6975 65.9872 44.4997 65.8043 44.3161 65.4866L44.223 65.5334H44.1339C43.4956 65.0061 43.1764 64.6545 43.1764 64.4786C42.6594 63.4066 42.4011 62.1843 42.4011 60.8118C42.3785 60.8118 42.3318 60.3692 42.2611 59.4846H42.3078C42.2457 59.3284 42.2147 59.2222 42.2147 59.1654C42.2372 58.981 42.2683 58.8888 42.3078 58.8888L42.0325 57.5616C42.0889 57.5616 42.1355 57.4241 42.1722 57.149C42.2936 57.149 42.3544 57.1178 42.3544 57.0555V57.0087H42.4011L42.5366 57.1024C42.6016 57.1024 42.6919 57.0102 42.8078 56.8258C42.8416 56.8258 42.8883 56.8101 42.9476 56.7789V56.8726L43.1764 56.8258C43.1764 56.9194 43.1905 56.9661 43.2188 56.9661C43.2611 56.9349 43.3375 56.9194 43.4475 56.9194C43.4475 56.9901 43.5393 57.0354 43.7229 57.0555V57.1024L43.6765 57.1916C43.7385 57.1916 43.7696 57.2228 43.7696 57.2851H43.812C43.843 57.2851 43.9659 57.2539 44.1806 57.1916H44.3161V57.5148L44.223 57.6509L44.3627 57.7446L44.223 58.4295C44.2342 58.4919 44.2652 58.523 44.3161 58.523C44.2851 58.8804 44.2696 59.14 44.2696 59.3015V59.3483L44.3161 59.8034H44.2696L44.3161 59.897V59.9439C44.3161 60.4345 44.3613 61.3194 44.4516 62.5983H44.4052C44.4362 62.6692 44.4983 62.9145 44.5916 63.3343L44.5449 63.564C44.6042 63.6632 44.6338 63.754 44.6338 63.8362L44.5916 63.9299C44.7412 63.9299 44.8162 64.0829 44.8162 64.3892C44.8668 64.3892 44.9291 64.4799 45.0026 64.6615C45.1522 64.6615 45.5166 64.2955 46.0956 63.564C46.4317 62.9939 46.7665 62.0154 47.0998 60.6289V59.9863L47.0531 59.6673H47.0998L47.0531 59.5779C47.0531 59.5073 47.0687 59.4448 47.0998 59.3909C47.0094 58.1941 46.9642 57.4766 46.9642 57.2384C47.0742 57.0909 47.2114 56.9689 47.3752 56.8726V56.7364H47.4641V56.8258H47.5997C47.7552 56.613 47.892 56.5066 48.0106 56.5066L48.0573 56.596L48.1506 56.5534H48.2395V56.6895H48.2861L48.5149 56.6429L48.7902 56.8258V56.9661H48.9724V56.8726C49.0319 56.9038 49.0771 56.9194 49.1081 56.9194C49.1674 56.8881 49.2126 56.8726 49.2436 56.8726C49.4583 57.071 49.5656 57.3149 49.5656 57.6041C49.5345 57.6041 49.5189 57.6197 49.5189 57.6509C49.5784 57.6623 49.608 57.6935 49.608 57.7446C49.5176 57.8155 49.4725 57.9217 49.4725 58.0637H49.4258L49.3369 57.7871C49.2747 57.7984 49.2436 57.8296 49.2436 57.8806V58.523C49.2436 58.8123 49.228 59.1639 49.197 59.5779L49.2436 59.8034C49.0545 61.0398 48.8723 61.8653 48.6971 62.2793C48.6659 62.2793 48.6505 62.2949 48.6505 62.3261V62.7388L48.6971 63.194C48.5755 63.194 48.5149 63.3173 48.5149 63.564H48.4683C48.4683 63.6632 48.5291 63.9992 48.6505 64.5721H48.6038L48.6505 64.6615V64.8912C48.6505 64.9593 48.635 65.0203 48.6038 65.0741C48.635 65.1337 48.6505 65.1791 48.6505 65.2102C48.5827 65.2102 48.5065 65.0585 48.4216 64.7552H48.3792C48.3792 64.7834 48.3638 64.7976 48.3328 64.7976C48.3921 65.121 48.4683 65.4427 48.5616 65.7632C48.5304 65.8229 48.5149 65.8683 48.5149 65.8994C48.4668 65.8994 48.3609 65.5788 48.197 64.9381H48.1506L48.1039 65.0273V65.0741H48.197V65.3505H48.2861C48.2861 65.3819 48.2705 65.3974 48.2395 65.3974L48.2861 65.4866V65.6229L48.197 65.5803C48.197 65.6087 48.1816 65.6229 48.1506 65.6229C48.0573 65.4412 47.95 65.1053 47.8285 64.6147H47.7396C47.6972 64.6147 47.6366 64.7522 47.5574 65.0273C47.4981 65.0273 47.3455 65.196 47.0998 65.5334L47.1464 65.6229C47.0645 65.7248 46.8513 65.817 46.5066 65.8994C46.2947 66.0753 46.1889 66.1972 46.1889 66.2653V66.2653ZM48.8804 67.001H48.7449C48.7136 66.777 48.6826 66.6394 48.6516 66.5883C48.6826 66.5374 48.6982 66.4609 48.6982 66.3588H48.7913V66.5415L48.7449 66.6309C48.8042 66.6621 48.8494 66.6776 48.8804 66.6776V66.7244L48.7913 66.8607C48.8506 66.8719 48.8804 66.9033 48.8804 66.9541V67.001ZM59.5716 67.9534L59.3894 67.8641C59.3301 67.8925 59.2834 67.9067 59.2496 67.9067L59.0673 67.8641C59.0081 67.8925 58.963 67.9067 58.9317 67.9067C58.9317 67.8274 58.8245 67.7664 58.6098 67.7238C58.542 67.545 58.4205 67.3934 58.2453 67.2686C58.0646 66.9396 57.9276 66.4816 57.8345 65.8946L57.8809 65.8009C57.8499 65.7413 57.8345 65.696 57.8345 65.6648H57.8809C57.8273 65.5656 57.7665 65.1375 57.6988 64.38H57.7454C57.689 64.1958 57.5364 62.7608 57.2878 60.0753C57.2567 60.0753 57.2115 59.83 57.1522 59.3394C57.1522 59.3082 57.1678 59.2627 57.1989 59.2031C57.1989 58.8856 57.0152 58.5338 56.6481 58.1483C56.6481 58.1282 56.5719 57.9141 56.4193 57.5057C56.4533 57.3696 56.5605 57.2634 56.7412 57.1869H56.7879V57.2761C57.0026 57.2166 57.1239 57.1869 57.1522 57.1869H57.1989V57.4633H57.2878L57.2413 57.5525V57.5994C57.3034 57.5994 57.3344 57.615 57.3344 57.6462L57.6988 57.4165H57.7454V57.4633C57.7144 57.5199 57.6988 57.5653 57.6988 57.5994C57.73 57.5994 57.7454 57.615 57.7454 57.6462C57.8047 57.615 57.8499 57.5994 57.8809 57.5994C58.1465 57.6165 58.4205 57.8603 58.7029 58.3312C58.7029 58.5325 58.8089 58.8388 59.0208 59.25C59.2353 61.2096 59.3427 62.2788 59.3427 62.4575H59.3894C60.0814 62.3638 60.5983 62.317 60.9401 62.317H61.1222C61.3962 62.317 61.5332 62.1497 61.5332 61.8151H61.5799L61.5332 61.7214V61.679C61.6857 61.679 61.8383 60.7613 61.9909 58.9266C61.9286 58.9266 61.8976 58.8969 61.8976 58.8373V58.5607C62.0614 58.5607 62.183 58.5154 62.2619 58.4247H62.3552L62.3977 58.6544C62.3692 58.6544 62.3552 58.6686 62.3552 58.6968L62.4441 58.7436C62.4441 58.7125 62.4597 58.6968 62.4908 58.6968L62.4441 58.6076V58.5607C62.6447 58.5607 62.7662 58.4687 62.8085 58.2843H62.9018C62.9018 58.3183 62.9174 58.3651 62.9484 58.4247L63.0373 58.378H63.0839C63.0839 58.48 63.0994 58.5565 63.1306 58.6076L63.2195 58.5607C63.2817 58.5694 63.3128 58.6006 63.3128 58.6544V58.6968H63.2195V58.7436H63.3594L63.4016 58.6544C63.3735 58.5947 63.3594 58.5482 63.3594 58.5141H63.4483C63.6319 58.6756 63.7238 58.8132 63.7238 58.9266H63.8593L63.9524 58.8797L63.9059 58.7905C63.9144 58.7282 63.9441 58.6968 63.9948 58.6968C64.2209 58.6968 64.3437 58.7436 64.3636 58.8373V58.9266C64.3636 58.9891 64.3169 59.0202 64.2236 59.0202C64.3452 59.3379 64.4058 59.5363 64.4058 59.6158C64.2561 60.2228 64.1814 60.9856 64.1814 61.9045L64.2703 61.9514C64.2703 61.92 64.2857 61.9045 64.3169 61.9045C64.3169 61.9668 64.3324 61.9978 64.3636 61.9978L64.5456 61.9045V61.9514C64.5456 62.0421 64.4242 62.1029 64.1814 62.1341V62.4106H64.4991L65.0923 62.2744C65.0923 62.303 65.1079 62.317 65.1387 62.317C65.1387 62.2576 65.2603 62.2123 65.5033 62.1809V62.2277C65.5033 62.2674 65.3055 62.3738 64.9101 62.5467C64.9101 62.6686 64.6361 62.8062 64.0881 62.9594V63.0529L64.3169 63.0062C64.348 63.0062 64.3636 63.0217 64.3636 63.0529C64.4229 63.0217 64.4681 63.0062 64.4991 63.0062H64.5922V63.0529C64.2251 63.0982 64.0415 63.1592 64.0415 63.2358C64.0415 63.3267 64.0258 63.372 63.9948 63.372L64.0415 63.4655C63.9821 63.7236 63.9524 63.8754 63.9524 63.9207L63.9948 64.1973C63.9948 64.4781 63.9045 65.1799 63.7238 66.303H63.6305V66.2137H63.5882V66.8091H63.4483L63.2661 66.673C63.2661 66.7241 63.1899 66.8617 63.0373 67.0857C63.0373 67.4118 62.9469 67.5948 62.7662 67.6346C62.7662 67.7253 62.6136 67.7707 62.3086 67.7707H62.2619C62.2619 67.6799 62.2168 67.6346 62.1264 67.6346H62.0798V67.2686C62.0798 67.1978 62.0643 67.1368 62.0331 67.0857C62.0331 67.0545 62.0487 67.0388 62.0798 67.0388C62.0798 66.9765 62.0643 66.9452 62.0331 66.9452C62.1038 65.7852 62.1646 65.2055 62.2155 65.2055L62.1731 65.1119C62.2324 64.9018 62.2619 64.7191 62.2619 64.5631V64.1973L62.3086 63.9676C62.2351 63.908 62.1743 63.8783 62.1264 63.8783C61.6772 63.9691 61.3722 64.0441 61.2111 64.1037V64.38C61.1322 64.38 61.0262 64.5488 60.8934 64.8864L60.4824 65.8009C60.4231 65.8321 60.3779 65.8477 60.3469 65.8477V66.2137C60.3469 66.2873 60.2707 66.4248 60.1181 66.6262C60.1181 66.8076 60.087 66.8985 60.025 66.8985L60.0714 66.992C59.8285 67.2529 59.7071 67.4061 59.7071 67.4517V67.6812L59.7537 67.7707C59.652 67.7707 59.5912 67.8315 59.5716 67.9534V67.9534ZM61.7653 61.9049C61.9092 61.4428 62.0152 61.1974 62.083 61.169C62.0519 61.0471 62.0068 60.9407 61.9474 60.85L62.0363 60.7139H61.9941C61.9432 60.7139 61.881 60.8203 61.8075 61.0329L61.8542 61.2627C61.84 61.3845 61.7948 61.4456 61.7186 61.4456V61.4922L61.7653 61.5818H61.672V61.8114C61.6834 61.8739 61.7144 61.9049 61.7653 61.9049V61.9049ZM62.9056 65.662C62.979 65.662 63.0242 65.5086 63.0411 65.2023C63.0128 65.1429 62.9989 65.0976 62.9989 65.0662H63.0877V64.8835C63.0877 64.821 63.058 64.7898 62.9989 64.7898L63.0411 64.5601V64.1049C63.0411 64.0737 63.0567 64.058 63.0877 64.058L63.0411 63.9645C63.0411 63.9334 63.0567 63.8878 63.0877 63.8285L62.9989 63.4158C63.027 63.4158 63.0411 63.4002 63.0411 63.369H62.9522V63.6924C62.9522 63.7604 62.9366 63.8213 62.9056 63.8751C62.9056 63.9065 62.9212 63.922 62.9522 63.922L62.9056 64.1475V64.2409L62.9522 64.5601H62.9056L62.9522 64.6538V64.743C62.9522 64.8053 62.9212 64.8367 62.8589 64.8367C62.9212 64.9359 62.9522 65.0281 62.9522 65.1131V65.3386L62.9056 65.662ZM62.5883 66.0744C62.6478 65.8447 62.6774 65.7071 62.6774 65.6618C62.6774 65.6306 62.6617 65.6149 62.6307 65.6149L62.6774 65.3852V64.8833L62.6307 64.3301H62.6774L62.6307 64.2407V63.9217C62.6307 63.8906 62.6463 63.8749 62.6774 63.8749C62.6463 63.8353 62.6307 63.7274 62.6307 63.5517C62.5714 63.5631 62.5418 63.5943 62.5418 63.6453V63.9643C62.5418 64.1402 62.5262 64.2481 62.4952 64.2876C62.5262 64.4522 62.5418 64.5896 62.5418 64.7004V66.0744H62.5883ZM60.5327 64.9249C60.5327 64.8257 60.6386 64.6129 60.8504 64.2867L61.0792 63.8274V63.7338H61.0327C60.8575 63.9296 60.7206 64.1748 60.6218 64.4698C60.6019 64.4698 60.5411 64.5463 60.4396 64.6996V64.9249H60.5327ZM59.4803 65.6616C59.6612 65.4628 59.9958 64.9582 60.4845 64.1471C60.4845 64.1187 60.5001 64.1045 60.5311 64.1045V64.2405H60.6202C60.6202 64.113 60.6512 63.9599 60.7133 63.7812H60.6667V63.8281C60.6356 63.8281 60.6202 63.8124 60.6202 63.7812C60.1201 63.9654 59.832 64.0576 59.7558 64.0576C59.5496 63.9669 59.4282 63.9216 59.3914 63.9216V64.0576C59.3914 64.1257 59.4056 64.1867 59.4337 64.2405C59.4337 64.2717 59.4197 64.2874 59.3914 64.2874C59.4197 64.4264 59.4493 64.8844 59.4803 65.6616V65.6616ZM66.6875 67.6404H66.4164C66.4164 67.5808 66.3246 67.5198 66.141 67.4575C65.6833 66.9696 65.4547 65.702 65.4547 63.6544C65.4264 63.6544 65.4123 63.5936 65.4123 63.4715C65.4123 63.4403 65.4264 63.4247 65.4547 63.4247L65.4123 63.1951V62.7823C65.4123 62.7541 65.4264 62.7399 65.4547 62.7399C65.4264 62.6803 65.4123 62.6335 65.4123 62.5994L65.4547 61.5019H65.5012C65.5012 61.4708 65.4857 61.4551 65.4547 61.4551C65.4942 61.0412 65.5252 60.7972 65.5478 60.7235C65.5478 60.6921 65.5324 60.6766 65.5012 60.6766C65.5012 60.6455 65.5168 60.5999 65.5478 60.5406C65.579 59.7693 65.5944 59.158 65.5944 58.707C65.5944 58.2079 65.5337 57.5655 65.4123 56.7801C65.545 56.5361 65.682 56.4141 65.8233 56.4141C65.9985 56.4141 66.1042 56.4908 66.141 56.6438C66.3641 56.6951 66.5619 56.8481 66.7341 57.1035C66.7341 57.1855 66.7654 57.2762 66.8274 57.3756L66.9163 57.333H66.963C67.0223 57.7499 67.052 57.9784 67.052 58.018H67.1451V57.9286C67.275 57.9286 67.3514 58.1412 67.374 58.5667C67.4164 58.5667 67.4772 58.7808 67.5561 59.2089C67.5872 59.2089 67.6028 59.2246 67.6028 59.2558C67.6028 59.2869 67.5872 59.3026 67.5561 59.3026L67.6917 60.264C67.6606 60.4286 67.6452 60.566 67.6452 60.6766V61.1785C67.6452 61.2495 67.6309 61.312 67.6028 61.3658C67.6309 61.4225 67.6452 61.4678 67.6452 61.5019C67.535 62.6305 67.4447 63.1951 67.374 63.1951L67.4206 63.5183V64.3434C67.4206 64.4115 67.405 64.4725 67.374 64.5264C67.405 64.5804 67.4206 64.6412 67.4206 64.7094V64.7561C67.4206 64.8158 67.3894 64.8455 67.3273 64.8455C67.3273 64.8144 67.3119 64.7987 67.2807 64.7987V64.8455L67.374 64.9816V65.0753L67.1918 66.5429L66.963 66.9086C66.8614 66.9086 66.7696 66.9539 66.6875 67.0448C66.6875 67.076 66.7031 67.0915 66.7341 67.0915L66.6875 67.5512V67.6404ZM51.9587 58.2378C52.3815 58.08 52.7783 57.948 53.1495 57.8419H53.1901V57.9194C53.0573 57.9269 52.991 57.9541 52.991 58.0011C52.7526 58.0158 52.6332 58.0689 52.6332 58.1602H52.5153C52.4268 58.1602 52.3348 58.1996 52.239 58.2786H51.9587V58.2378ZM56.4954 64.2902H56.5359C56.5359 64.2334 56.4966 64.1532 56.418 64.0495V63.9312L56.4549 63.8497L56.2189 63.4501C55.7814 63.0057 55.2777 62.6073 54.7075 62.2546C54.1547 61.9264 53.8769 61.74 53.8745 61.6957C53.6558 61.6019 53.0732 61.2442 52.1271 60.6224C51.6087 60.3287 51.2522 60.0228 51.0581 59.7044C51.0704 59.5984 51.1097 59.5452 51.176 59.5452C51.176 59.3677 51.9859 59.0801 52.6742 58.7963C53.0721 58.6877 53.2712 58.5951 53.2712 58.5186C53.9569 58.2892 54.3402 58.1425 54.4214 58.0783C54.8195 57.9894 55.0186 57.9229 55.0186 57.8784C55.0775 57.8784 55.1304 57.9723 55.1771 58.1598L55.1365 58.2374C55.1365 58.2918 55.1758 58.3187 55.2544 58.3187V58.3595C55.1758 58.3595 55.1365 58.3991 55.1365 58.478C55.1635 58.6112 55.2434 58.7839 55.3761 58.9962H55.494L55.4535 58.9148H55.5715C55.687 58.5693 55.7803 58.3965 55.8516 58.3965V58.3187C55.8516 58.188 55.8909 58.0549 55.9695 57.919C55.9425 57.8723 55.9291 57.8191 55.9291 57.7601C55.9168 57.6688 55.7054 57.496 55.295 57.2419L54.6204 57.0421H54.5799C54.398 57.0421 54.2003 57.0826 53.9865 57.1641C53.2416 57.322 52.7651 57.4811 52.5561 57.6417L52.4751 57.6009H52.3976C52.2624 57.707 52.0904 57.7735 51.8816 57.8008L50.4918 58.4373C49.9191 58.7334 49.6009 59.0395 49.537 59.3552C49.537 59.3946 49.6033 59.5674 49.7361 59.8733L49.6955 59.9548C49.6955 59.9771 49.7484 60.0954 49.8541 60.3101C49.8541 60.3816 49.9204 60.4618 50.0532 60.5507C50.0532 60.6272 50.1722 60.7863 50.4106 61.0281C50.7081 61.2082 50.9329 61.381 51.0853 61.5462C51.3507 61.593 51.4834 61.6598 51.4834 61.746C52.0044 62.0324 52.2955 62.2186 52.357 62.3051C53.0279 62.6775 53.716 63.1155 54.4214 63.619C54.8711 63.8508 55.0961 64.0112 55.0961 64.1001C54.8232 64.3195 54.0159 64.4924 52.6742 64.6182C52.6742 64.5911 52.6606 64.5774 52.6334 64.5774C52.5868 64.6045 52.5339 64.6182 52.4751 64.6182H50.9268C50.5041 64.6182 50.2927 64.7773 50.2927 65.0955V65.2141C50.3935 65.2141 50.4598 65.308 50.4918 65.4953L50.7277 65.6546C50.8409 65.7333 50.9206 65.773 50.9674 65.773C51.1172 65.879 51.2228 65.9319 51.2844 65.9319C51.2844 66.0678 51.5363 66.1616 52.0401 66.2135V66.2503L51.9995 66.3316C52.2156 66.3316 52.3484 66.3576 52.3976 66.4095H52.5155L52.7552 66.3724L52.8325 66.4095C53.2135 66.3774 53.5439 66.3381 53.8242 66.2911C53.8242 66.3182 53.8377 66.3316 53.8647 66.3316C54.3883 66.2677 54.9178 66.1344 55.4535 65.9319C55.6231 65.8926 55.7693 65.7199 55.8922 65.414H56.1686L56.2497 65.1363V65.0142C56.2497 64.9525 56.5766 64.4653 56.4954 64.2902V64.2902Z" fill="black"/>
</svg>
