<svg width="20" height="17" viewBox="0 0 20 17" fill="none" xmlns="http://www.w3.org/2000/svg">
<path fill-rule="evenodd" clip-rule="evenodd" d="M1.8451 5.78999L16.5782 0.211014C17.3794 -0.123936 18.4533 -0.115032 19.2516 0.642599C20.0354 1.38656 20.1062 2.42685 19.9028 3.2608L17.3949 14.8675L17.3942 14.8704C17.2595 15.5023 16.8982 16.3816 15.9523 16.7997C15.0149 17.2141 14.1159 16.9028 13.5715 16.6084L13.4745 16.5559L10.6923 14.538L9.86004 15.3327C9.85476 15.3377 9.84807 15.3442 9.84005 15.3519C9.75621 15.4329 9.52654 15.6548 9.23667 15.8247C8.85054 16.0511 8.41539 16.1677 7.93623 16.1677H7.2258C6.64675 16.1677 6.18874 15.6774 6.22812 15.0997L6.48444 11.3385L6.28893 11.4596L1.76665 10.0743C1.42202 9.97 1.00757 9.79057 0.657489 9.46547C0.277403 9.1125 -0.0643222 8.53561 0.0103283 7.80699C0.0786954 7.1397 0.465577 6.67683 0.772072 6.41069C1.0893 6.13524 1.46299 5.94053 1.82358 5.79831L1.8451 5.78999ZM2.25951 8.51183L6.05066 9.67317L14.8223 4.2386C14.9059 4.18865 14.988 4.15419 15.0633 4.13322L15.0665 4.13234C15.2252 4.08883 15.3532 4.10543 15.3999 4.16339C15.4404 4.21372 15.4197 4.29522 15.3045 4.39562L8.19851 10.6932L8.19608 10.6938L8.19775 10.6947L7.93623 14.532C8.30709 14.532 8.47738 14.3703 8.6828 14.1752C8.68959 14.1688 8.69642 14.1623 8.70329 14.1558L10.5447 12.3974L14.375 15.1756C15.0813 15.5576 15.5885 15.3613 15.7642 14.5336L18.2786 2.89733C18.5359 1.88402 17.8847 1.42521 17.2109 1.72454L2.44441 7.31614C1.43665 7.71361 1.44248 8.26566 2.25951 8.51183Z" fill="#039BE5"/>
</svg>
