<svg width="54" height="18" viewBox="0 0 54 18" fill="none" xmlns="http://www.w3.org/2000/svg">
<path d="M23.4653 17.2533H19.1719L21.8573 0.796875H26.1504L23.4653 17.2533Z" fill="#00579F"/>
<path d="M39.0274 1.20062C38.1806 0.867643 36.8374 0.5 35.1766 0.5C30.9367 0.5 27.9511 2.74076 27.9327 5.94438C27.8975 8.308 30.0704 9.62081 31.6955 10.4089C33.3566 11.2142 33.9212 11.7399 33.9212 12.4577C33.9043 13.5602 32.579 14.0684 31.3429 14.0684C29.6288 14.0684 28.7103 13.8064 27.3146 13.193L26.7492 12.9301L26.1484 16.6242C27.1554 17.0788 29.0106 17.4823 30.9367 17.5C35.4416 17.5 38.3745 15.2939 38.4092 11.88C38.4264 10.0066 37.279 8.57116 34.8054 7.3982C33.3038 6.64523 32.3841 6.13751 32.3841 5.36708C32.4017 4.6667 33.162 3.94933 34.857 3.94933C36.2528 3.91419 37.2783 4.2467 38.0552 4.57944L38.4435 4.75419L39.0274 1.20062V1.20062Z" fill="#00579F"/>
<path d="M44.7363 11.4234C45.0899 10.478 46.4504 6.81901 46.4504 6.81901C46.4326 6.85414 46.8033 5.85616 47.0153 5.2435L47.3153 6.66148C47.3153 6.66148 48.1284 10.6006 48.3049 11.4234C47.6339 11.4234 45.5843 11.4234 44.7363 11.4234ZM50.0359 0.796875H46.715C45.6909 0.796875 44.9129 1.09425 44.471 2.16227L38.0938 17.2531H42.5987C42.5987 17.2531 43.3403 15.222 43.4997 14.7845C43.9939 14.7845 48.3763 14.7845 49.0121 14.7845C49.1353 15.3623 49.5243 17.2531 49.5243 17.2531H53.4996L50.0359 0.796875V0.796875Z" fill="#00579F"/>
<path d="M15.5843 0.796875L11.3797 12.0186L10.9202 9.7427C10.1429 7.11661 7.70497 4.26342 4.98438 2.84474L8.83566 17.2359H13.3758L20.1242 0.796875H15.5843V0.796875Z" fill="#00579F"/>
<path d="M7.47828 0.796875H0.570668L0.5 1.12938C5.88837 2.49501 9.45699 5.78682 10.9232 9.7434L9.42153 2.18019C9.17431 1.12915 8.41457 0.831545 7.47828 0.796875Z" fill="#FAA61A"/>
</svg>
