<svg aria-hidden="true" style="position: absolute; width: 0; height: 0; overflow: hidden;" version="1.1" xmlns="http://www.w3.org/2000/svg" xmlns:xlink="http://www.w3.org/1999/xlink">
<defs>
<symbol id="icon-basket" viewBox="0 0 33 32">
<path fill="currentColor" style="fill: var(--color1, currentColor)" d="M7.6 1.867c0.252-0.336 0.647-0.533 1.067-0.533h16c0.42 0 0.815 0.198 1.067 0.533l4 5.333c0.173 0.231 0.267 0.511 0.267 0.8v18.667c0 1.061-0.421 2.078-1.172 2.828s-1.767 1.172-2.828 1.172h-18.667c-1.061 0-2.078-0.421-2.828-1.172s-1.172-1.767-1.172-2.828v-18.667c0-0.288 0.094-0.569 0.267-0.8l4-5.333zM9.333 4l-3.333 4.444v18.222c0 0.354 0.14 0.693 0.391 0.943s0.589 0.391 0.943 0.391h18.667c0.354 0 0.693-0.141 0.943-0.391s0.391-0.589 0.391-0.943v-18.222l-3.333-4.444h-14.667z"></path>
<path fill="currentColor" style="fill: var(--color1, currentColor)" d="M3.333 8c0-0.736 0.597-1.333 1.333-1.333h24c0.736 0 1.333 0.597 1.333 1.333s-0.597 1.333-1.333 1.333h-24c-0.736 0-1.333-0.597-1.333-1.333z"></path>
<path fill="currentColor" style="fill: var(--color1, currentColor)" d="M11.333 12c0.736 0 1.333 0.597 1.333 1.333 0 1.061 0.421 2.078 1.172 2.828s1.768 1.172 2.828 1.172 2.078-0.421 2.828-1.172c0.75-0.75 1.172-1.768 1.172-2.828 0-0.736 0.597-1.333 1.333-1.333s1.333 0.597 1.333 1.333c0 1.768-0.702 3.464-1.953 4.714s-2.946 1.953-4.714 1.953-3.464-0.702-4.714-1.953c-1.25-1.25-1.953-2.946-1.953-4.714 0-0.736 0.597-1.333 1.333-1.333z"></path>
</symbol>
<symbol id="icon-bell" viewBox="0 0 32 32">
<path fill="currentColor" style="fill: var(--color1, currentColor)" d="M9.4 4.067c1.75-1.75 4.124-2.734 6.6-2.734s4.849 0.983 6.6 2.734c1.75 1.75 2.734 4.124 2.734 6.6 0 4.47 0.956 7.246 1.837 8.861 0.442 0.811 0.873 1.343 1.172 1.659 0.15 0.158 0.268 0.263 0.339 0.322 0.035 0.030 0.059 0.048 0.069 0.055 0.002 0.001 0.003 0.002 0.004 0.003 0.478 0.328 0.689 0.929 0.521 1.485-0.17 0.562-0.689 0.947-1.276 0.947h-24c-0.588 0-1.106-0.385-1.276-0.947-0.168-0.556 0.043-1.157 0.521-1.485 0.001-0.001 0.002-0.002 0.004-0.003 0.010-0.008 0.034-0.026 0.070-0.055 0.071-0.059 0.189-0.164 0.339-0.322 0.299-0.316 0.73-0.848 1.172-1.659 0.881-1.615 1.837-4.391 1.837-8.861 0-2.475 0.983-4.849 2.734-6.6zM3.259 21.559c0-0 0-0 0-0s0 0 0 0l-0 0zM6.866 21.333h18.269c-0.101-0.166-0.203-0.342-0.305-0.528-1.119-2.051-2.163-5.275-2.163-10.139 0-1.768-0.702-3.464-1.953-4.714s-2.946-1.953-4.714-1.953c-1.768 0-3.464 0.702-4.714 1.953s-1.953 2.946-1.953 4.714c0 4.863-1.044 8.087-2.163 10.139-0.101 0.186-0.203 0.362-0.305 0.528z"></path>
<path fill="currentColor" style="fill: var(--color1, currentColor)" d="M13.029 26.847c0.637-0.37 1.453-0.153 1.822 0.484 0.117 0.202 0.285 0.37 0.488 0.486s0.432 0.178 0.665 0.178 0.463-0.061 0.665-0.178c0.202-0.117 0.371-0.284 0.488-0.486 0.369-0.637 1.185-0.854 1.822-0.484s0.854 1.185 0.484 1.822c-0.352 0.606-0.856 1.109-1.464 1.459s-1.296 0.534-1.996 0.534-1.389-0.184-1.996-0.534c-0.607-0.35-1.112-0.853-1.464-1.459-0.37-0.637-0.153-1.453 0.484-1.822z"></path>
</symbol>
<symbol id="icon-user" viewBox="0 0 32 32">
<path fill="currentColor" style="fill: var(--color1, currentColor)" d="M5.953 20.619c1.25-1.25 2.946-1.953 4.714-1.953h10.667c1.768 0 3.464 0.702 4.714 1.953s1.953 2.946 1.953 4.714v2.667c0 0.736-0.597 1.333-1.333 1.333s-1.333-0.597-1.333-1.333v-2.667c0-1.061-0.421-2.078-1.172-2.828s-1.768-1.172-2.828-1.172h-10.667c-1.061 0-2.078 0.421-2.828 1.172s-1.172 1.768-1.172 2.828v2.667c0 0.736-0.597 1.333-1.333 1.333s-1.333-0.597-1.333-1.333v-2.667c0-1.768 0.702-3.464 1.953-4.714z"></path>
<path fill="currentColor" style="fill: var(--color1, currentColor)" d="M16 5.333c-2.209 0-4 1.791-4 4s1.791 4 4 4c2.209 0 4-1.791 4-4s-1.791-4-4-4zM9.333 9.333c0-3.682 2.985-6.667 6.667-6.667s6.667 2.985 6.667 6.667c0 3.682-2.985 6.667-6.667 6.667s-6.667-2.985-6.667-6.667z"></path>
</symbol>
<symbol id="icon-hearth" viewBox="0 0 40 32">
<path fill="currentColor" style="fill: var(--color1, currentColor)" d="M6.185 6.541c1.101-1.864 2.898-3.173 5.603-3.173 2.707-0 4.356 1.317 5.39 2.695 0.527 0.703 0.884 1.414 1.109 1.953 0.111 0.267 0.187 0.486 0.234 0.631 0.023 0.072 0.039 0.126 0.048 0.158l0.009 0.032c0 0.001-0-0 0 0 0.19 0.746 0.862 1.269 1.632 1.269s1.443-0.524 1.633-1.27c0-0-0 0.001 0 0 0-0.002 0-0.001 0.001-0.003l-0.001 0.003 0.008-0.030c0.009-0.032 0.025-0.085 0.048-0.158 0.047-0.145 0.123-0.364 0.234-0.631 0.224-0.539 0.582-1.25 1.109-1.953 1.033-1.378 2.683-2.695 5.39-2.695 2.705 0 4.501 1.308 5.603 3.173 1.144 1.936 1.521 4.474 1.157 6.656-0.715 4.291-4.437 8.158-8.385 11.082-1.926 1.426-3.808 2.557-5.212 3.332-0.648 0.358-1.19 0.638-1.584 0.834-0.393-0.197-0.936-0.477-1.584-0.834-1.404-0.775-3.286-1.906-5.212-3.332-3.948-2.924-7.67-6.791-8.385-11.082-0.364-2.182 0.013-4.72 1.157-6.656zM20.209 8.421c-1.634 0.408-1.634 0.409-1.634 0.41l0.001 0.003 0 0.002zM20.209 4.515c-0.106-0.157-0.218-0.315-0.337-0.473-1.493-1.991-4.054-4.042-8.084-4.042-4.032 0-6.867 2.060-8.503 4.827-1.593 2.695-2.058 6.052-1.58 8.923 0.946 5.677 5.646 10.231 9.703 13.236 2.077 1.538 4.094 2.749 5.588 3.574 0.749 0.413 1.371 0.732 1.808 0.95 0.219 0.108 0.392 0.192 0.513 0.249 0.060 0.028 0.107 0.050 0.14 0.066l0.054 0.025c0 0 0.002 0.001 0.697-1.533l-0.695 1.534c0.442 0.2 0.948 0.2 1.389 0l-0.695-1.534c0.695 1.534 0.694 1.534 0.695 1.534l0.006-0.003 0.011-0.005 0.039-0.018c0.033-0.015 0.080-0.037 0.14-0.066 0.121-0.057 0.294-0.14 0.513-0.249 0.438-0.217 1.060-0.536 1.808-0.95 1.495-0.825 3.511-2.036 5.588-3.574 4.057-3.005 8.757-7.559 9.703-13.236 0.478-2.871 0.013-6.228-1.58-8.923-1.635-2.768-4.471-4.827-8.503-4.827-4.030 0-6.591 2.051-8.084 4.042-0.119 0.158-0.231 0.316-0.337 0.473z"></path>
</symbol>
<symbol id="icon-rolles" viewBox="0 0 33 32">
<path fill="currentColor" style="fill: var(--color2, currentColor)" d="M9.667 6.381c-1.693 1.016-2.576 2.318-2.576 3.619s0.883 2.603 2.576 3.619c1.679 1.007 4.045 1.654 6.697 1.654s5.018-0.647 6.697-1.654c1.693-1.016 2.576-2.318 2.576-3.619s-0.883-2.603-2.576-3.619c-1.679-1.007-4.045-1.654-6.697-1.654s-5.018 0.647-6.697 1.654zM8.918 5.134c1.941-1.164 4.575-1.861 7.445-1.861s5.505 0.697 7.445 1.861c1.926 1.156 3.282 2.854 3.282 4.866s-1.356 3.711-3.282 4.866c-1.941 1.164-4.575 1.861-7.445 1.861s-5.505-0.697-7.445-1.861c-1.926-1.156-3.282-2.854-3.282-4.866s1.356-3.711 3.282-4.866z"></path>
<path fill="#9e9e9e" style="fill: var(--color3, #9e9e9e)" d="M22.364 10c0 1.657-2.686 3-6 3s-6-1.343-6-3c0-1.657 2.686-3 6-3s6 1.343 6 3z"></path>
<path fill="#86868b" style="fill: var(--color2, #86868b)" d="M5.636 10c0-0 0-0 0.727-0s0.727 0 0.727 0v12c0 1.301 0.883 2.603 2.576 3.619 1.679 1.007 4.045 1.654 6.697 1.654s5.018-0.647 6.697-1.654c1.693-1.016 2.576-2.318 2.576-3.619v-12h1.455v12c0 2.013-1.356 3.711-3.282 4.866-1.941 1.164-4.575 1.861-7.445 1.861s-5.505-0.697-7.445-1.861c-1.926-1.156-3.282-2.854-3.282-4.866v-12z"></path>
</symbol>
<symbol id="icon-sushi" viewBox="0 0 33 32">
<path fill="currentColor" style="fill: currentColor)" d="M4.877 13.305c0.384-0.118 0.791 0.097 0.909 0.481l1.434 4.66c0.283 0.921 1.004 1.642 1.925 1.925l9.668 2.975c0.762 0.234 1.587 0.146 2.282-0.245l6.64-3.735c0.35-0.197 0.794-0.073 0.99 0.277s0.073 0.794-0.277 0.99l-6.64 3.735c-1.042 0.586-2.28 0.719-3.423 0.367l-9.668-2.975c-1.381-0.425-2.462-1.506-2.887-2.887l-1.434-4.66c-0.118-0.384 0.097-0.791 0.481-0.909z"></path>
<path fill="#9e9e9e" style="fill: var(--color3, #9e9e9e)" d="M29.547 21.578c-1.795-2.055-9.141-4.342-15.070-5.527-7.5-1.5-15 0-11.5-5.5 3.364-5.287 23.638-6.602 27.584 9.935 0.322 1.348-0.625 1.538-1.013 1.093z"></path>
<path fill="#86868b" style="fill: var(--color2, #86868b)" d="M16.336 6.824c0.097 0.39-0.14 0.785-0.529 0.882-1.054 0.263-2.081 1.032-2.998 2.172-0.911 1.133-1.668 2.577-2.194 4.081-0.526 1.505-0.808 3.031-0.797 4.317 0.011 1.316 0.324 2.232 0.814 2.698 0.291 0.277 0.302 0.737 0.025 1.028s-0.737 0.302-1.028 0.025c-0.918-0.874-1.253-2.283-1.265-3.74-0.012-1.487 0.31-3.182 0.879-4.809 0.569-1.628 1.399-3.227 2.433-4.513 1.028-1.279 2.305-2.303 3.778-2.672 0.39-0.097 0.784 0.139 0.882 0.529zM22.348 8.871c0.071 0.395-0.191 0.774-0.586 0.845-0.804 0.145-1.733 0.677-2.658 1.553-0.916 0.867-1.778 2.027-2.457 3.335-1.372 2.644-1.907 5.718-0.85 8.101 0.163 0.367-0.003 0.797-0.37 0.96s-0.797-0.003-0.96-0.37c-1.309-2.952-0.586-6.519 0.888-9.361 0.744-1.435 1.701-2.73 2.748-3.721 1.037-0.982 2.212-1.714 3.399-1.929 0.395-0.071 0.774 0.191 0.845 0.586z"></path>
</symbol>
<symbol id="icon-sets" viewBox="0 0 33 32">
<path fill="currentColor" style="fill: var(--color2, currentColor)" d="M17.222 4.091c-1.425 0.838-2.131 1.891-2.131 2.909s0.706 2.070 2.131 2.909c1.408 0.828 3.401 1.364 5.642 1.364s4.234-0.536 5.642-1.364c1.425-0.838 2.131-1.891 2.131-2.909s-0.706-2.070-2.131-2.909c-1.408-0.828-3.401-1.364-5.642-1.364s-4.234 0.536-5.642 1.364zM16.485 2.838c1.668-0.981 3.925-1.565 6.379-1.565s4.711 0.584 6.379 1.565c1.651 0.971 2.848 2.419 2.848 4.162s-1.197 3.191-2.848 4.162c-1.668 0.981-3.925 1.565-6.379 1.565s-4.711-0.584-6.379-1.565c-1.652-0.971-2.848-2.419-2.848-4.162s1.197-3.191 2.848-4.162z"></path>
<path fill="#9e9e9e" style="fill: var(--color3, #9e9e9e)" d="M27.364 7c0 1.105-2.015 2-4.5 2s-4.5-0.895-4.5-2c0-1.105 2.015-2 4.5-2s4.5 0.895 4.5 2z"></path>
<path fill="#86868b" style="fill: var(--color2, #86868b)" d="M13.636 7c0-0 0-0 0.727-0s0.727 0 0.727 0v10c0 1.018 0.706 2.070 2.131 2.909 1.408 0.828 3.401 1.364 5.642 1.364s4.234-0.536 5.642-1.364c1.425-0.838 2.131-1.891 2.131-2.909v-10h1.455v10c0 1.744-1.197 3.191-2.848 4.162-1.668 0.981-3.925 1.565-6.379 1.565s-4.711-0.584-6.379-1.565c-1.652-0.971-2.848-2.419-2.848-4.162v-10z"></path>
<path fill="#86868b" style="fill: var(--color2, #86868b)" d="M3.15 19.305c0.384-0.118 0.791 0.097 0.909 0.481l1.434 4.66c0.283 0.921 1.004 1.642 1.925 1.925l9.668 2.975c0.762 0.234 1.587 0.146 2.282-0.245l6.64-3.735c0.35-0.197 0.794-0.073 0.99 0.277s0.073 0.794-0.277 0.99l-6.64 3.735c-1.042 0.586-2.28 0.719-3.423 0.367l-9.668-2.975c-1.381-0.425-2.462-1.506-2.887-2.887l-1.434-4.66c-0.118-0.384 0.097-0.791 0.481-0.909z"></path>
<path fill="#9e9e9e" style="fill: var(--color3, #9e9e9e)" d="M27.82 27.578c-1.795-2.055-9.141-4.342-15.070-5.527-7.5-1.5-15 0-11.5-5.5 3.364-5.287 23.638-6.602 27.584 9.935 0.322 1.348-0.625 1.538-1.013 1.093z"></path>
<path fill="#86868b" style="fill: var(--color2, #86868b)" d="M14.609 12.824c0.097 0.39-0.139 0.784-0.529 0.882-1.054 0.264-2.081 1.032-2.998 2.172-0.911 1.133-1.668 2.577-2.194 4.081-0.526 1.505-0.808 3.031-0.797 4.317 0.011 1.316 0.324 2.232 0.814 2.698 0.291 0.277 0.302 0.737 0.025 1.028s-0.737 0.302-1.028 0.025c-0.918-0.874-1.253-2.283-1.265-3.74-0.012-1.487 0.31-3.182 0.879-4.809 0.569-1.628 1.399-3.227 2.433-4.513 1.028-1.279 2.305-2.303 3.778-2.672 0.39-0.097 0.784 0.139 0.882 0.529zM20.62 14.871c0.071 0.395-0.191 0.774-0.586 0.845-0.804 0.145-1.733 0.677-2.658 1.553-0.916 0.867-1.778 2.027-2.457 3.335-1.372 2.644-1.907 5.718-0.85 8.101 0.163 0.367-0.003 0.797-0.37 0.96s-0.797-0.003-0.96-0.37c-1.309-2.952-0.586-6.519 0.888-9.36 0.744-1.435 1.701-2.73 2.748-3.721 1.037-0.982 2.212-1.714 3.399-1.929 0.395-0.071 0.774 0.191 0.845 0.586z"></path>
</symbol>
<symbol id="icon-bouls" viewBox="0 0 33 32">
<path fill="currentColor" style="fill: var(--color3, currentColor)" d="M12.364 11.5c0-1.933-1.567-3.5-3.5-3.5s-3.5 1.567-3.5 3.5z"></path>
<path fill="#9e9e9e" style="fill: var(--color3, #9e9e9e)" d="M27.364 11.5c0-1.933-1.567-3.5-3.5-3.5s-3.5 1.567-3.5 3.5z"></path>
<path fill="#86868b" style="fill: var(--color2, #86868b)" d="M9.645 12.043c0.465-3.262 3.269-5.771 6.66-5.771 3.316 0 6.070 2.398 6.625 5.555l-1.433 0.252c-0.435-2.473-2.595-4.352-5.193-4.352-2.657 0-4.855 1.965-5.22 4.521l-1.44-0.205z"></path>
<path fill="#86868b" style="fill: var(--color2, #86868b)" d="M24.034 11.89c0.778-0.395 1.658-0.617 2.588-0.617 3.163 0 5.727 2.564 5.727 5.727 0 1.275-0.418 2.455-1.123 3.407l-1.169-0.866c0.526-0.71 0.837-1.588 0.837-2.541 0-2.36-1.913-4.273-4.273-4.273-0.696 0-1.351 0.166-1.93 0.46l-0.658-1.297z"></path>
<path fill="#86868b" style="fill: var(--color2, #86868b)" d="M0.636 17c0-3.163 2.564-5.727 5.727-5.727 1.025 0 1.989 0.27 2.823 0.743l-0.718 1.265c-0.621-0.352-1.338-0.554-2.105-0.554-2.36 0-4.273 1.913-4.273 4.273 0 0.98 0.329 1.881 0.883 2.602l-1.153 0.887c-0.743-0.966-1.184-2.176-1.184-3.488z"></path>
<path fill="#86868b" style="fill: var(--color2, #86868b)" d="M0.636 24.861c0-8.057 6.532-14.589 14.589-14.589h2.277c8.057 0 14.589 6.532 14.589 14.589 0 0.478-0.388 0.866-0.866 0.866h-29.723c-0.478 0-0.866-0.388-0.866-0.866zM2.104 24.273h28.52c-0.308-6.981-6.065-12.545-13.121-12.545h-2.277c-7.056 0-12.813 5.565-13.121 12.545z"></path>
<path fill="#9e9e9e" style="fill: var(--color3, #9e9e9e)" d="M14.364 16c0 0.552-0.448 1-1 1s-1-0.448-1-1c0-0.552 0.448-1 1-1s1 0.448 1 1z"></path>
<path fill="#9e9e9e" style="fill: var(--color3, #9e9e9e)" d="M18.364 20c0 0.552-0.448 1-1 1s-1-0.448-1-1c0-0.552 0.448-1 1-1s1 0.448 1 1z"></path>
<path fill="#9e9e9e" style="fill: var(--color3, #9e9e9e)" d="M25.364 19c0 0.552-0.448 1-1 1s-1-0.448-1-1c0-0.552 0.448-1 1-1s1 0.448 1 1z"></path>
<path fill="#9e9e9e" style="fill: var(--color3, #9e9e9e)" d="M8.364 21c0 0.552-0.448 1-1 1s-1-0.448-1-1c0-0.552 0.448-1 1-1s1 0.448 1 1z"></path>
</symbol>
<symbol id="icon-drink" viewBox="0 0 33 32">
<path fill="currentColor" style="fill: var(--color2, currentColor)" d="M8.822 10.515c0.138-0.154 0.335-0.242 0.542-0.242h14c0.207 0 0.404 0.088 0.542 0.242s0.204 0.36 0.181 0.565l-2 18c-0.041 0.368-0.352 0.647-0.723 0.647h-10c-0.371 0-0.682-0.279-0.723-0.647l-2-18c-0.023-0.206 0.043-0.411 0.181-0.565zM10.176 11.727l1.838 16.545h8.698l1.838-16.545h-12.375z"></path>
<path fill="#86868b" style="fill: var(--color2, #86868b)" d="M6.636 6c0-0.402 0.326-0.727 0.727-0.727h18c0.402 0 0.727 0.326 0.727 0.727v5c0 0.402-0.326 0.727-0.727 0.727h-18c-0.402 0-0.727-0.326-0.727-0.727v-5zM8.091 6.727v3.545h16.545v-3.545h-16.545z"></path>
<path fill="#9e9e9e" style="fill: var(--color3, #9e9e9e)" d="M22.364 19c0 3.314-2.686 6-6 6s-6-2.686-6-6c0-3.314 2.686-6 6-6s6 2.686 6 6z"></path>
<path fill="#86868b" style="fill: var(--color2, #86868b)" d="M8.658 0.824c0.097-0.39 0.492-0.627 0.882-0.529l4 1c0.206 0.052 0.379 0.19 0.474 0.38l2 4c0.18 0.359 0.034 0.796-0.325 0.976s-0.796 0.034-0.976-0.325l-1.85-3.701-3.675-0.919c-0.39-0.097-0.627-0.492-0.529-0.882z"></path>
</symbol>
<symbol id="icon-sauce" viewBox="0 0 33 32">
<path fill="currentColor" style="fill: var(--color3, currentColor)" d="M14.11 5.787v1.261c0 0.388-1.051 1.1-2.798 1.1s-2.798-0.712-2.798-1.1v-1.261c0.744 0.372 1.698 0.598 2.798 0.598 1.1 0.016 2.070-0.21 2.798-0.598z"></path>
<path fill="#86868b" style="fill: var(--color2, #86868b)" d="M17.549 8.858h-1.455v5.385h1.455v-5.385z"></path>
<path fill="#86868b" style="fill: var(--color2, #86868b)" d="M11.325 26.938c-3.493 0-6.242-1.585-6.242-3.59v-14.49h1.455v14.49c0 1.003 2.038 2.135 4.787 2.135v1.455z"></path>
<path fill="#86868b" style="fill: var(--color2, #86868b)" d="M11.325 12.447c-3.509 0-6.242-1.569-6.242-3.59 0-1.148 0.889-2.199 2.426-2.862l0.582 1.342c-0.97 0.42-1.553 0.986-1.553 1.536 0 1.003 2.038 2.135 4.787 2.135s4.787-1.132 4.787-2.135c0-0.534-0.582-1.116-1.553-1.536l0.582-1.342c1.536 0.663 2.426 1.714 2.426 2.862-0.016 2.021-2.749 3.59-6.242 3.59z"></path>
<path fill="#86868b" style="fill: var(--color2, #86868b)" d="M15.564 3.844v3.218c0 0.129-0.016 0.259-0.049 0.388-0.291 1.261-2.005 2.151-4.188 2.151-2.021 0-3.622-0.76-4.108-1.86-0.097-0.226-0.146-0.453-0.146-0.695v-3.202h1.455v3.218c0 0.388 1.067 1.1 2.798 1.1s2.798-0.712 2.798-1.1v-3.218h1.439z"></path>
<path fill="#86868b" style="fill: var(--color2, #86868b)" d="M15.188 2.761c-0.647-0.889-2.102-1.472-3.881-1.472-1.536 0-2.83 0.437-3.574 1.132-0.437 0.404-0.679 0.889-0.679 1.423 0 0.809 0.55 1.488 1.455 1.957 0.744 0.372 1.698 0.598 2.798 0.598 1.084 0 2.054-0.226 2.798-0.598 0.906-0.453 1.455-1.148 1.455-1.957 0-0.404-0.129-0.76-0.372-1.083zM11.323 4.945c-1.73 0-2.798-0.712-2.798-1.1s1.067-1.1 2.798-1.1c1.73 0 2.798 0.712 2.798 1.1-0.016 0.388-1.067 1.1-2.798 1.1z"></path>
<path fill="#9e9e9e" style="fill: var(--color3, #9e9e9e)" d="M14.11 3.844c0 0.388-1.051 1.1-2.798 1.1s-2.798-0.712-2.798-1.1 1.067-1.1 2.798-1.1c1.73 0 2.798 0.712 2.798 1.1z"></path>
<path fill="#86868b" style="fill: var(--color2, #86868b)" d="M18.329 13.517c-5.628 0-10.043 2.442-10.043 5.563s4.415 5.563 10.043 5.563c5.628 0 10.043-2.442 10.043-5.563s-4.399-5.563-10.043-5.563zM26.027 20.875c-1.423 1.358-4.366 2.313-7.698 2.313s-6.275-0.954-7.698-2.329c-0.566-0.534-0.889-1.148-0.889-1.779 0-2.215 3.93-4.108 8.587-4.108 4.641 0 8.587 1.876 8.587 4.108 0 0.631-0.323 1.245-0.889 1.795z"></path>
<path fill="#86868b" style="fill: var(--color2, #86868b)" d="M18.325 30.546c-4.059 0-6.824-1.504-7.617-4.108l-1.569-5.143 1.391-0.421 1.569 5.143c0.582 1.957 2.846 3.073 6.21 3.073v1.455h0.016z"></path>
<path fill="#86868b" style="fill: var(--color2, #86868b)" d="M18.33 30.545v-1.455c3.364 0 5.628-1.116 6.21-3.073l1.569-5.159 1.391 0.42-1.569 5.143c-0.776 2.62-3.542 4.124-7.601 4.124z"></path>
<path fill="#9e9e9e" style="fill: var(--color3, #9e9e9e)" d="M26.026 20.875c-1.423 1.358-4.366 2.313-7.698 2.313s-6.275-0.954-7.698-2.329c1.035-1.375 3.914-2.604 7.698-2.604 3.8 0.016 6.679 1.229 7.698 2.62z"></path>
</symbol>
<symbol id="icon-plus" viewBox="0 0 32 32">
<path fill="#00cc2d" style="fill: var(--color4, #00cc2d)" d="M15.998 5.335c0.736 0 1.333 0.597 1.333 1.333v18.667c0 0.736-0.597 1.333-1.333 1.333s-1.333-0.597-1.333-1.333v-18.667c0-0.736 0.597-1.333 1.333-1.333z"></path>
<path fill="#00cc2d" style="fill: var(--color4, #00cc2d)" d="M5.335 15.998c0-0.736 0.597-1.333 1.333-1.333h18.667c0.736 0 1.333 0.597 1.333 1.333s-0.597 1.333-1.333 1.333h-18.667c-0.736 0-1.333-0.597-1.333-1.333z"></path>
</symbol>
</defs>
</svg>
