<?xml version="1.0" standalone="no"?>
<!DOCTYPE svg PUBLIC "-//W3C//DTD SVG 20010904//EN"
 "http://www.w3.org/TR/2001/REC-SVG-20010904/DTD/svg10.dtd">
<svg version="1.0" xmlns="http://www.w3.org/2000/svg"
 width="552.000000pt" height="552.000000pt" viewBox="0 0 552.000000 552.000000"
 preserveAspectRatio="xMidYMid meet">
<metadata>
Created by potrace 1.14, written by Peter Selinger 2001-2017
</metadata>
<g transform="translate(0.000000,552.000000) scale(0.100000,-0.100000)"
fill="#000000" stroke="none">
<path d="M895 4707 c-13 -57 -15 -71 -18 -137 -4 -67 10 -147 33 -190 17 -32
161 -253 169 -260 3 -3 24 -32 46 -65 22 -33 42 -62 45 -65 3 -3 40 -50 82
-105 42 -55 85 -109 95 -120 10 -11 38 -45 63 -75 25 -30 52 -61 60 -67 13
-11 13 -14 0 -22 -8 -5 -31 -19 -51 -31 -20 -12 -53 -48 -72 -79 -20 -31 -41
-61 -47 -68 -5 -7 -10 -15 -10 -18 0 -12 -46 -54 -73 -68 -28 -15 -98 -14
-122 1 -5 4 -16 7 -24 9 -42 6 -109 104 -126 183 l-7 34 -27 -30 c-14 -17 -42
-49 -61 -73 -19 -23 -47 -57 -62 -74 -15 -18 -28 -36 -28 -40 0 -31 78 -128
133 -166 54 -36 109 -54 174 -57 89 -3 113 14 298 206 69 72 127 103 175 94
32 -7 32 -7 25 -53 -11 -76 -16 -90 -33 -89 -94 2 -222 -51 -271 -113 -57 -70
-74 -130 -75 -259 l-1 -65 65 2 c129 3 123 -1 124 84 1 69 20 139 38 139 5 0
8 6 8 13 0 13 53 50 89 62 20 6 22 4 17 -13 -4 -11 -8 -37 -10 -58 -22 -216
-21 -214 -31 -409 -12 -220 -7 -523 9 -660 2 -16 7 -61 11 -100 4 -38 9 -79
12 -90 2 -11 11 -64 19 -118 24 -162 74 -239 219 -337 73 -48 210 -112 304
-140 64 -18 68 -27 66 -135 -2 -86 -13 -154 -34 -208 -9 -24 -16 -27 -58 -28
-27 -1 -66 -3 -88 -4 -22 -2 -80 -6 -130 -9 -86 -5 -125 -9 -242 -21 -42 -4
-63 0 -109 21 -68 31 -101 26 -115 -16 -13 -34 -13 -35 -189 -66 -14 -2 -62
-16 -107 -30 -82 -26 -133 -60 -133 -88 0 -51 214 -119 475 -150 22 -3 56 -8
75 -11 44 -6 123 -14 220 -21 41 -3 98 -7 125 -9 247 -20 1032 -27 1300 -12
232 13 355 22 435 32 19 2 62 7 95 10 86 9 111 12 205 30 14 3 41 7 60 10 129
20 259 70 279 107 13 23 13 28 1 44 -24 29 -125 67 -235 90 -52 11 -196 35
-237 39 -25 3 -55 8 -66 10 -12 2 -56 7 -99 10 -43 4 -81 9 -85 11 -4 3 -3 17
3 32 13 33 17 51 28 124 8 58 6 226 -3 263 -7 26 0 34 49 66 60 39 121 104
147 157 21 43 23 60 23 195 -1 81 2 147 5 147 3 0 14 -6 25 -14 11 -7 56 -33
100 -56 44 -24 87 -49 96 -56 8 -8 23 -14 32 -14 28 0 20 -17 -27 -56 -52 -44
-62 -68 -36 -94 25 -25 51 -19 103 24 l43 35 50 -33 c48 -32 127 -77 254 -144
295 -156 308 -159 379 -84 56 58 111 149 114 187 2 24 -4 29 -48 45 -210 77
-368 137 -501 189 l-81 31 24 48 c28 56 27 82 -6 98 -35 18 -48 8 -78 -53 -15
-31 -32 -57 -39 -60 -6 -2 -49 16 -95 41 -46 25 -106 57 -134 71 -67 35 -70
39 -41 59 14 9 37 38 50 64 13 26 40 65 59 86 41 45 63 117 53 178 -14 84
-101 191 -222 270 -58 38 -61 42 -59 77 2 20 4 59 5 86 2 34 10 60 26 82 13
17 24 34 24 38 0 3 11 22 24 43 22 35 70 158 82 212 12 54 10 135 -5 165 -17
33 -49 64 -68 65 -18 0 -17 11 17 113 32 94 70 173 129 266 47 75 89 170 105
239 12 51 11 63 -6 117 -38 118 -133 209 -307 295 -126 62 -350 129 -485 145
-28 4 -52 8 -55 10 -30 17 -528 26 -641 11 -334 -44 -543 -154 -706 -370 -31
-42 -120 -196 -141 -246 -21 -50 -73 -190 -78 -213 -6 -24 -25 -38 -25 -19 0
4 -19 27 -41 52 -38 43 -131 160 -174 220 -142 199 -274 396 -350 522 -11 18
-31 52 -45 74 -14 23 -42 71 -63 108 -21 36 -42 68 -47 71 -4 2 -11 -10 -15
-28z m2944 -2327 c51 -54 73 -115 52 -149 -7 -11 -15 -9 -43 12 -28 22 -55 30
-120 36 -6 1 -5 167 1 190 2 6 76 -53 110 -89z m-458 -1182 c7 -159 -4 -268
-35 -333 -16 -34 -1 -32 -206 -19 -41 3 -266 7 -500 9 -234 3 -426 5 -427 5
-1 0 1 10 6 23 14 35 24 123 25 210 l1 77 30 -5 c16 -3 48 -8 70 -10 22 -3 50
-8 62 -10 123 -26 480 -26 661 1 52 7 232 51 262 63 39 15 50 13 51 -11z"/>
</g>
</svg>
